<?xml version="1.0" encoding="utf-8"?>
<!-- Generator: Adobe Illustrator 24.1.2, SVG Export Plug-In . SVG Version: 6.00 Build 0)  -->
<svg version="1.1" id="Layer_1" xmlns="http://www.w3.org/2000/svg" xmlns:xlink="http://www.w3.org/1999/xlink" x="0px" y="0px"
	 viewBox="0 0 20 20" style="enable-background:new 0 0 20 20;" xml:space="preserve">
<style type="text/css">
	.st0{fill:#1F1E33;}
</style>
<path class="st0" d="M10,16.7c-0.2,0-0.4-0.1-0.6-0.2c-0.3-0.3-0.3-0.9,0-1.2l4.4-4.4H4.2c-0.5,0-0.8-0.4-0.8-0.8s0.4-0.8,0.8-0.8
	h9.7L9.4,4.8c-0.3-0.3-0.3-0.9,0-1.2s0.9-0.3,1.2,0l5.8,5.8c0.1,0.1,0.1,0.2,0.2,0.3c0,0.1,0.1,0.2,0.1,0.3c0,0.1,0,0.2-0.1,0.3
	c0,0.1-0.1,0.2-0.2,0.2c0,0,0,0,0,0c0,0,0,0,0,0v0c0,0,0,0,0,0l-5.8,5.8C10.4,16.6,10.2,16.7,10,16.7z"/>
</svg>
