<?xml version="1.0" encoding="utf-8"?>
<!-- Generator: Adobe Illustrator 24.1.2, SVG Export Plug-In . SVG Version: 6.00 Build 0)  -->
<svg version="1.1" id="Layer_1" xmlns="http://www.w3.org/2000/svg" xmlns:xlink="http://www.w3.org/1999/xlink" x="0px" y="0px"
	 viewBox="0 0 88 88" style="enable-background:new 0 0 88 88;" xml:space="preserve">
<style type="text/css">
	.st0{fill:#1F1E33;}
</style>
<path class="st0" d="M80,81.8H8.7c-1.4,0-2.5-1.1-2.5-2.5V74c0-1.4,1.1-2.5,2.5-2.5h1.2V49c-4.6-3.4-7.3-8.8-7.3-14.5
	c0-3.3,0.9-6.5,2.5-9.2L15,8.1c0.9-1.6,2.6-2.6,4.5-2.6h49.8c1.8,0,3.6,1,4.5,2.6l9.9,17.2c1.7,2.8,2.6,6,2.6,9.3
	c0,5.7-2.7,11.1-7.3,14.5v22.5H80c1.4,0,2.5,1.1,2.5,2.5v5.3C82.5,80.7,81.4,81.8,80,81.8z M9.2,78.8h70.3v-4.3h-1.2
	c-1.4,0-2.5-1.1-2.5-2.5V48.8c0-0.8,0.4-1.6,1.1-2.1c3.9-2.8,6.3-7.4,6.3-12.2c0-2.7-0.7-5.4-2.1-7.7L71.1,9.6
	c-0.4-0.7-1.1-1.1-1.9-1.1H19.4c-0.8,0-1.5,0.4-1.9,1.1L7.6,26.8c-1.4,2.3-2.1,5-2.1,7.7c0,4.8,2.3,9.4,6.3,12.2
	c0.7,0.5,1.1,1.2,1.1,2.1V72c0,1.4-1.1,2.5-2.5,2.5H9.2V78.8z M78.6,49.1L78.6,49.1C78.6,49.1,78.6,49.1,78.6,49.1L78.6,49.1z
	 M69,74.5H19.7c-1.4,0-2.5-1.1-2.5-2.5V52c0-0.7,0.3-1.3,0.8-1.8c0.5-0.5,1.2-0.7,1.9-0.7c4,0.2,7.9-1.2,10.8-3.9
	c1-0.9,2.5-0.9,3.5,0c2.8,2.6,6.4,4,10.2,4c3.8,0,7.4-1.4,10.2-4c1-0.9,2.5-0.9,3.5,0c2.9,2.7,6.9,4.1,10.8,3.9
	c0.7,0,1.4,0.2,1.9,0.7c0.5,0.5,0.8,1.1,0.8,1.8v20C71.5,73.4,70.4,74.5,69,74.5z M20.2,71.5h48.3v-19C64,52.6,59.6,51,56.3,48
	c-3.3,2.9-7.5,4.5-11.9,4.5c-4.4,0-8.6-1.6-11.9-4.5c-3.4,3-7.8,4.6-12.3,4.5V71.5z M68.2,45.2c-4.4,0-8.3-2.6-9.9-6.7
	c-0.5-1.3-1.7-1.4-2-1.4s-1.5,0.1-2,1.4c-1.6,4.1-5.5,6.7-9.9,6.7s-8.3-2.6-9.9-6.7c-0.5-1.3-1.7-1.4-2-1.4s-1.5,0.1-2,1.4
	c-1.6,4.1-5.5,6.7-9.9,6.7c-5.9,0-10.7-4.8-10.7-10.7c0-1.9,0.5-3.8,1.5-5.5L20,14.1c0.4-0.8,1.3-1.3,2.2-1.3h44.4
	c0.9,0,1.7,0.5,2.2,1.2L77.3,29c1,1.7,1.5,3.6,1.5,5.5C78.8,40.4,74,45.2,68.2,45.2z M56.3,34.1c2.1,0,4,1.3,4.8,3.2
	c1.2,2.9,4,4.8,7.1,4.8c4.2,0,7.7-3.4,7.7-7.7c0-1.4-0.4-2.8-1.1-4l-8.5-14.7H22.4l-8.5,14.7c-0.7,1.2-1.1,2.6-1.1,4
	c0,4.2,3.4,7.7,7.7,7.7c3.2,0,5.9-1.9,7.1-4.8c0.8-2,2.7-3.2,4.8-3.2c2.1,0,4,1.3,4.8,3.2c1.2,2.9,4,4.8,7.1,4.8
	c3.2,0,5.9-1.9,7.1-4.8C52.2,35.4,54.1,34.1,56.3,34.1z"/>
</svg>
