<?xml version="1.0" encoding="utf-8"?>
<!-- Generator: Adobe Illustrator 24.1.2, SVG Export Plug-In . SVG Version: 6.00 Build 0)  -->
<svg version="1.1" id="Layer_1" xmlns="http://www.w3.org/2000/svg" xmlns:xlink="http://www.w3.org/1999/xlink" x="0px" y="0px"
	 viewBox="0 0 32 32" style="enable-background:new 0 0 32 32;" xml:space="preserve">
<style type="text/css">
	.st0{fill:#F05075;}
</style>
<path class="st0" d="M16,29.3c-7.4,0-13.3-6-13.3-13.3c0-7.4,6-13.3,13.3-13.3s13.3,6,13.3,13.3C29.3,23.4,23.4,29.3,16,29.3z
	 M16,3.7C9.2,3.7,3.7,9.2,3.7,16c0,6.8,5.5,12.3,12.3,12.3c6.8,0,12.3-5.5,12.3-12.3C28.3,9.2,22.8,3.7,16,3.7z M16.3,27.7v-10h2.9
	l0.2-0.7h-3.1v-3.2c0-1.2,0-1.8,0.3-2.3c0.2-0.4,0.5-0.6,0.8-0.8c0.3-0.1,0.6-0.2,1-0.3c0.3,0,0.6,0,1.1-0.1V9.7c-0.2,0-0.5,0-0.6,0
	c-1.1,0.1-1.6,0.2-1.8,0.4c-0.5,0.3-0.8,0.6-1.1,1.1c-0.2,0.5-0.4,0.9-0.4,2.6V17H13v0.7h2.7v10l-1.1-0.1C8.7,26.9,4.3,21.9,4.3,16
	C4.3,9.6,9.6,4.3,16,4.3S27.7,9.6,27.7,16c0,5.9-4.4,10.9-10.2,11.6L16.3,27.7z M17.3,18.7v7.9c5.3-0.7,9.3-5.2,9.3-10.6
	c0-5.9-4.8-10.7-10.7-10.7C10.1,5.3,5.3,10.1,5.3,16c0,5.4,4,9.9,9.3,10.6v-7.9H12V16h2.7v-2.2c0-1.8,0.2-2.4,0.5-3.1
	c0.4-0.7,0.9-1.2,1.5-1.5c0.5-0.3,1.2-0.4,2.2-0.5c0.3,0,0.8,0,1.3,0.1l0.4,0v2.5H20c-0.6,0-1.1,0-1.4,0c-0.3,0-0.5,0.1-0.7,0.2
	c-0.2,0.1-0.3,0.2-0.4,0.4c-0.2,0.3-0.2,0.6-0.2,1.8V16h3.3L20,18.7H17.3z"/>
</svg>
