<?xml version="1.0" encoding="utf-8"?>
<!-- Generator: Adobe Illustrator 24.1.2, SVG Export Plug-In . SVG Version: 6.00 Build 0)  -->
<svg version="1.1" id="Layer_1" xmlns="http://www.w3.org/2000/svg" xmlns:xlink="http://www.w3.org/1999/xlink" x="0px" y="0px"
	 viewBox="0 0 28 28" style="enable-background:new 0 0 28 28;" xml:space="preserve">
<style type="text/css">
	.st0{fill:#F05075;}
</style>
<path class="st0" d="M14,25.2c-0.3,0-0.7-0.1-0.9-0.4l-9.3-9.4C1.1,12.5,1.2,8,4,5.2c2.6-2.6,6.7-3,9.7-0.8c0.1,0.1,0.3,0.1,0.5,0
	c3-2.2,7.1-1.8,9.7,0.8c2.8,2.8,2.9,7.3,0.3,10.3l-9.4,9.4C14.7,25.1,14.3,25.2,14,25.2z M9.3,4C7.7,4,6,4.6,4.7,5.9
	c-2.4,2.4-2.5,6.4-0.3,8.9l9.3,9.3c0.1,0.1,0.3,0.1,0.4,0l9.3-9.4c2.3-2.5,2.2-6.5-0.3-8.9l0,0c-2.2-2.2-5.9-2.5-8.4-0.7
	c-0.5,0.4-1.2,0.4-1.7,0C12,4.4,10.7,4,9.3,4z M14,21.9c-0.3,0-0.7-0.1-0.9-0.4l-7.6-7.7c-1.8-2.1-1.7-5.2,0.2-7.1l0,0l0,0
	c1.9-1.9,4.8-2,6.9-0.4l0.2,0.1l0.1,0.3c0,0.2-0.1,0.3-0.2,0.5L10,10c-0.1,0.1-0.1,0.1-0.1,0.2s0,0.1,0.1,0.2l0.6,0.6
	c0.1,0.1,0.3,0.1,0.4,0l4.4-4.4c2.1-1.8,5.2-1.7,7.1,0.2c1.9,1.9,2,5,0.2,7l-7.7,7.7C14.7,21.8,14.3,21.9,14,21.9z M9.3,6.3
	c-1.1,0-2.1,0.4-3,1.2l0,0c-1.5,1.5-1.6,4-0.2,5.7l7.6,7.6c0.1,0.1,0.3,0.1,0.4,0l7.6-7.7c1.4-1.6,1.3-4.1-0.2-5.7
	c-1.5-1.5-4-1.6-5.7-0.2l-4.3,4.3c-0.5,0.5-1.3,0.5-1.8,0l-0.6-0.6c-0.2-0.2-0.4-0.6-0.4-0.9c0-0.3,0.1-0.7,0.4-0.9L11.6,7
	C10.9,6.5,10.1,6.3,9.3,6.3z"/>
</svg>
