<?xml version="1.0" encoding="utf-8"?>
<!-- Generator: Adobe Illustrator 24.1.2, SVG Export Plug-In . SVG Version: 6.00 Build 0)  -->
<svg version="1.1" id="Layer_1" xmlns="http://www.w3.org/2000/svg" xmlns:xlink="http://www.w3.org/1999/xlink" x="0px" y="0px"
	 viewBox="0 0 28 28" style="enable-background:new 0 0 28 28;" xml:space="preserve">
<style type="text/css">
	.st0{fill:#FFFFFF;}
</style>
<path class="st0" d="M14,26.9c-0.9,0-1.8-0.3-2.6-1l-1.6-1.3c-0.1-0.1-0.2-0.1-0.4-0.2l-2.1-0.2c-2-0.2-3.5-1.7-3.7-3.7l-0.2-2.1
	c0-0.1-0.1-0.3-0.2-0.4l-1.3-1.6c-1.3-1.5-1.3-3.7,0-5.2l1.3-1.6c0.1-0.1,0.1-0.2,0.2-0.4l0.2-2.1c0.2-2,1.7-3.5,3.7-3.7l2.1-0.2
	c0.1,0,0.3-0.1,0.4-0.2l1.6-1.3c1.5-1.3,3.7-1.3,5.2,0l1.6,1.3c0.1,0.1,0.2,0.1,0.4,0.2l2.1,0.2c2,0.2,3.5,1.7,3.7,3.7l0.2,2.1
	c0,0.1,0.1,0.3,0.2,0.4l1.3,1.6c1.3,1.5,1.3,3.7,0,5.2l-1.3,1.6c-0.1,0.1-0.1,0.2-0.2,0.4l-0.2,2.1c-0.2,2-1.7,3.5-3.7,3.7l-2.1,0.2
	c-0.1,0-0.3,0.1-0.4,0.2l-1.6,1.3C15.8,26.6,14.9,26.9,14,26.9z M12.1,2.8l-1.6,1.3c-0.3,0.2-0.6,0.4-0.9,0.4L7.5,4.7
	C6,4.8,4.8,6,4.7,7.5L4.6,9.5c0,0.4-0.2,0.7-0.4,0.9l-1.3,1.6c-1,1.1-1,2.8,0,3.9l1.3,1.6c0.2,0.3,0.4,0.6,0.4,0.9l0.2,2.1
	C4.8,22,6,23.2,7.5,23.3l2.1,0.2c0.4,0,0.7,0.2,0.9,0.4l1.6,1.3c1.1,1,2.8,1,3.9,0l1.6-1.3c0.3-0.2,0.6-0.4,0.9-0.4l2.1-0.2
	c1.5-0.1,2.6-1.3,2.8-2.8l0.2-2.1c0-0.3,0.2-0.7,0.4-0.9l1.3-1.6c1-1.1,1-2.8,0-3.9l-1.3-1.6c-0.2-0.3-0.4-0.6-0.4-0.9l-0.2-2.1
	C23.2,6,22,4.8,20.5,4.7l-2.1-0.2c-0.4,0-0.7-0.2-0.9-0.4l-1.6-1.3C14.8,1.9,13.2,1.9,12.1,2.8L12.1,2.8z M14,24.6
	c-0.4,0-0.8-0.1-1.1-0.4l-1.6-1.3c-0.5-0.4-1.1-0.7-1.7-0.7l-2.1-0.2c-0.8-0.1-1.5-0.7-1.5-1.5l-0.2-2.1c-0.1-0.6-0.3-1.2-0.7-1.7
	l-1.3-1.6c-0.5-0.6-0.5-1.5,0-2.2l1.3-1.6c0.4-0.5,0.7-1.1,0.7-1.7l0.2-2.1C6.1,6.8,6.8,6.1,7.6,6l2.1-0.2c0.6-0.1,1.2-0.3,1.7-0.7
	l1.6-1.3c0.6-0.5,1.5-0.5,2.2,0l1.6,1.3c0.5,0.4,1.1,0.7,1.7,0.7L20.4,6c0.8,0.1,1.5,0.7,1.5,1.5l0.2,2.1c0.1,0.6,0.3,1.2,0.7,1.7
	l1.3,1.6c0.5,0.6,0.5,1.5,0,2.2l-1.3,1.6c-0.4,0.5-0.7,1.1-0.7,1.7l-0.2,2.1c-0.1,0.8-0.7,1.5-1.5,1.5l-2.1,0.2
	c-0.6,0.1-1.2,0.3-1.7,0.7l-1.6,1.3C14.8,24.4,14.4,24.6,14,24.6z M14,4.4c-0.2,0-0.3,0.1-0.4,0.2L12,5.9c-0.6,0.5-1.4,0.9-2.3,0.9
	L7.7,7C7.3,7.1,7.1,7.3,7,7.7L6.9,9.7c-0.1,0.8-0.4,1.6-0.9,2.3l-1.3,1.6c-0.2,0.3-0.2,0.6,0,0.9L5.9,16c0.5,0.6,0.9,1.4,0.9,2.3
	L7,20.3c0,0.3,0.3,0.6,0.6,0.6l2.1,0.2c0.8,0.1,1.6,0.4,2.3,0.9l1.6,1.3c0.3,0.2,0.6,0.2,0.9,0l1.6-1.3c0.6-0.5,1.4-0.9,2.3-0.9
	l2.1-0.2c0.3,0,0.6-0.3,0.6-0.6l0.2-2.1c0.1-0.8,0.4-1.6,0.9-2.3l1.3-1.6c0.2-0.3,0.2-0.6,0-0.9L22.1,12c-0.5-0.6-0.9-1.4-0.9-2.3
	L21,7.7c0-0.3-0.3-0.6-0.6-0.6l-2.1-0.2c-0.8-0.1-1.6-0.4-2.3-0.9l-1.6-1.3C14.3,4.5,14.2,4.4,14,4.4z M17.3,19.5
	c-0.6,0-1.2-0.2-1.6-0.7c-0.9-0.9-0.9-2.3,0-3.2c0.9-0.9,2.3-0.9,3.2,0c0.9,0.9,0.9,2.3,0,3.2C18.5,19.3,17.9,19.5,17.3,19.5z
	 M17.3,16c-0.3,0-0.6,0.1-0.9,0.4c-0.5,0.5-0.5,1.3,0,1.8l0,0c0.5,0.5,1.3,0.5,1.8,0c0.5-0.5,0.5-1.3,0-1.8
	C17.9,16.2,17.6,16,17.3,16z M10.7,19c-0.4,0-0.8-0.1-1.1-0.4l-0.2-0.2c-0.6-0.6-0.6-1.5,0-2.1l6.8-6.8c0.6-0.6,1.5-0.6,2.1,0
	l0.2,0.2c0.3,0.3,0.4,0.7,0.4,1.1c0,0.4-0.2,0.8-0.4,1.1l-6.8,6.8C11.5,18.9,11.1,19,10.7,19z M17.3,10c-0.1,0-0.3,0-0.4,0.1
	l-6.8,6.8c-0.2,0.2-0.2,0.5,0,0.7l0.2,0.2c0.2,0.2,0.5,0.2,0.7,0l6.8-6.8C18,11,18,10.8,18,10.7c0-0.1-0.1-0.3-0.1-0.4l-0.2-0.2
	C17.6,10,17.4,10,17.3,10z M10.7,12.9c-0.6,0-1.2-0.2-1.6-0.7c-0.9-0.9-0.9-2.3,0-3.2c0.9-0.9,2.3-0.9,3.2,0c0.9,0.9,0.9,2.3,0,3.2
	C11.9,12.7,11.3,12.9,10.7,12.9z M10.7,9.5c-0.3,0-0.6,0.1-0.9,0.4c-0.5,0.5-0.5,1.3,0,1.8c0.5,0.5,1.3,0.5,1.8,0
	c0.5-0.5,0.5-1.3,0-1.8C11.3,9.6,11,9.5,10.7,9.5z"/>
</svg>
