<?xml version="1.0" encoding="utf-8"?>
<!-- Generator: Adobe Illustrator 24.1.2, SVG Export Plug-In . SVG Version: 6.00 Build 0)  -->
<svg version="1.1" id="Layer_1" xmlns="http://www.w3.org/2000/svg" xmlns:xlink="http://www.w3.org/1999/xlink" x="0px" y="0px"
	 viewBox="0 0 32 32" style="enable-background:new 0 0 32 32;" xml:space="preserve">
<style type="text/css">
	.st0{fill:#F05075;}
</style>
<path class="st0" d="M16,29.3c-3.7,0-4.1,0-5.5-0.1c-1.3-0.1-2.3-0.3-3.2-0.6c-0.9-0.4-1.7-0.8-2.4-1.5c-0.7-0.7-1.2-1.4-1.5-2.4
	c-0.4-0.9-0.6-1.9-0.6-3.2C2.7,20,2.7,19.6,2.7,16c0-3.7,0-4.1,0.1-5.5C2.8,9.2,3,8.2,3.4,7.3c0.4-0.9,0.8-1.7,1.5-2.4l0.4,0.4
	L4.9,4.9c0.7-0.7,1.4-1.2,2.4-1.5C8.2,3,9.2,2.8,10.5,2.7C12,2.7,12.4,2.7,16,2.7c3.7,0,4.1,0,5.5,0.1l0,0c1.3,0.1,2.3,0.3,3.2,0.6
	c0.9,0.4,1.7,0.8,2.4,1.5c0.7,0.7,1.2,1.4,1.5,2.4c0.4,1,0.6,2,0.6,3.2c0.1,1.5,0.1,1.9,0.1,5.5c0,3.7,0,4.1-0.1,5.5
	c-0.1,1.3-0.3,2.3-0.6,3.2c-0.4,0.9-0.8,1.7-1.5,2.4c-0.7,0.7-1.4,1.2-2.4,1.5c-1,0.4-2,0.6-3.2,0.6C20,29.3,19.6,29.3,16,29.3z
	 M5.6,5.6c-0.6,0.6-1,1.2-1.3,2C4,8.5,3.8,9.4,3.7,10.5c-0.1,1.4-0.1,1.8-0.1,5.5c0,3.7,0,4.1,0.1,5.5c0.1,1.2,0.2,2.1,0.6,2.9
	c0.3,0.8,0.7,1.4,1.3,2c0.6,0.6,1.2,1,2,1.3c0.9,0.3,1.8,0.5,2.9,0.6c1.4,0.1,1.8,0.1,5.5,0.1c3.7,0,4.1,0,5.5-0.1
	c1.2-0.1,2.1-0.2,2.9-0.6c0.8-0.3,1.4-0.7,2-1.3c0.6-0.6,1-1.2,1.3-2c0.3-0.8,0.5-1.8,0.6-2.9c0.1-1.4,0.1-1.8,0.1-5.5
	c0-3.7,0-4.1-0.1-5.5c-0.1-1.2-0.2-2.1-0.6-2.9c-0.3-0.8-0.7-1.4-1.3-2c-0.6-0.6-1.2-1-2-1.3c-0.8-0.3-1.7-0.5-2.9-0.6l0-0.5l0,0.5
	c-1.4-0.1-1.8-0.1-5.5-0.1c-3.5,0-4,0-5.5,0.1C9.4,3.8,8.5,4,7.6,4.3C6.8,4.6,6.2,5,5.6,5.6L5.6,5.6z M16,22.7c-3.7,0-6.7-3-6.7-6.7
	c0-3.7,3-6.7,6.7-6.7s6.7,3,6.7,6.7C22.7,19.7,19.7,22.7,16,22.7z M16,10.3c-3.1,0-5.7,2.5-5.7,5.7s2.5,5.7,5.7,5.7
	c3.1,0,5.7-2.5,5.7-5.7S19.1,10.3,16,10.3z M16,21c-2.8,0-5-2.2-5-5s2.2-5,5-5s5,2.2,5,5S18.8,21,16,21z M16,12c-2.2,0-4,1.8-4,4
	c0,2.2,1.8,4,4,4c2.2,0,4-1.8,4-4C20,13.8,18.2,12,16,12z M23,10.7c-0.9,0-1.7-0.7-1.7-1.7c0-0.9,0.7-1.7,1.7-1.7l0,0h0
	c0.4,0,0.9,0.2,1.2,0.5c0.3,0.3,0.5,0.7,0.5,1.2C24.7,9.9,23.9,10.7,23,10.7z M23,8.3c-0.4,0-0.7,0.3-0.7,0.7c0,0.4,0.3,0.7,0.7,0.7
	s0.7-0.3,0.7-0.7c0-0.2-0.1-0.3-0.2-0.5C23.3,8.4,23.2,8.3,23,8.3C23,8.3,23,8.3,23,8.3L23,8.3z"/>
<path class="st0" d="M16,27.8c-3.2,0-3.6,0-4.8-0.1c-1.1-0.1-2-0.2-2.9-0.5c-0.8-0.3-1.5-0.7-2.1-1.4c-0.6-0.6-1-1.3-1.4-2.1
	c-0.3-0.8-0.5-1.7-0.5-2.9c-0.1-1.3-0.1-1.7-0.1-4.8c0-3.2,0-3.6,0.1-4.8c0.1-1.1,0.2-2,0.5-2.9c0.3-0.8,0.7-1.5,1.4-2.1l0.3,0.3
	L6.2,6.2c0.6-0.6,1.3-1,2.1-1.4c0.8-0.3,1.7-0.5,2.9-0.5c1.3-0.1,1.7-0.1,4.8-0.1c3.2,0,3.6,0,4.8,0.1l0,1c-1.2-0.1-1.6-0.1-4.8-0.1
	c-3.2,0-3.6,0-4.8,0.1c-1,0-1.8,0.2-2.5,0.5C8,6.1,7.5,6.4,6.9,6.9C6.4,7.5,6.1,8,5.8,8.7c-0.3,0.7-0.4,1.5-0.5,2.5
	c-0.1,1.2-0.1,1.6-0.1,4.8c0,3.2,0,3.6,0.1,4.8c0,1,0.2,1.8,0.5,2.5c0.3,0.7,0.6,1.2,1.1,1.7c0.5,0.5,1.1,0.9,1.7,1.1
	c0.7,0.3,1.5,0.4,2.5,0.5c1.2,0.1,1.6,0.1,4.8,0.1c3.2,0,3.6,0,4.8-0.1c1,0,1.8-0.2,2.5-0.5c0.7-0.3,1.2-0.6,1.7-1.1
	c0.5-0.5,0.9-1.1,1.1-1.7c0.3-0.7,0.4-1.5,0.5-2.5c0.1-1.2,0.1-1.6,0.1-4.8c0-3.2,0-3.6-0.1-4.8c0-1-0.2-1.8-0.5-2.5
	c-0.3-0.7-0.6-1.2-1.1-1.7c-0.5-0.5-1.1-0.9-1.7-1.1c-0.7-0.3-1.5-0.4-2.5-0.5l0-1c1.1,0.1,2,0.2,2.9,0.5c0.8,0.3,1.5,0.7,2.1,1.4
	c0.6,0.6,1,1.3,1.4,2.1c0.3,0.8,0.5,1.7,0.5,2.9c0.1,1.3,0.1,1.7,0.1,4.8c0,3.2,0,3.6-0.1,4.8c-0.1,1.1-0.2,2-0.5,2.9
	c-0.3,0.8-0.7,1.5-1.4,2.1c-0.6,0.6-1.3,1-2.1,1.4c-0.8,0.3-1.7,0.5-2.9,0.5C19.5,27.7,19.1,27.8,16,27.8z"/>
</svg>
