<?xml version="1.0" encoding="utf-8"?>
<!-- Generator: Adobe Illustrator 24.1.2, SVG Export Plug-In . SVG Version: 6.00 Build 0)  -->
<svg version="1.1" id="Layer_1" xmlns="http://www.w3.org/2000/svg" xmlns:xlink="http://www.w3.org/1999/xlink" x="0px" y="0px"
	 viewBox="0 0 28 28" style="enable-background:new 0 0 28 28;" xml:space="preserve">
<style type="text/css">
	.st0{fill:#60CBE8;}
</style>
<path class="st0" d="M21.3,26.2H6.7c-0.6,0-1.1-0.5-1.1-1.1c0-0.1,0-0.3,0.1-0.4l2.2-5c0.1-0.1,0-0.3-0.1-0.4
	c-2.3-1.9-3.6-4.7-3.6-7.6c0-5.4,4.4-9.8,9.8-9.8c5.4,0,9.8,4.4,9.8,9.8c0,3-1.3,5.8-3.6,7.6c-0.1,0.1-0.2,0.3-0.1,0.4l2.2,5
	c0.1,0.3,0.1,0.6,0,0.8c-0.1,0.3-0.3,0.5-0.6,0.6C21.6,26.1,21.4,26.2,21.3,26.2z M14,2.8c-4.9,0-8.8,4-8.8,8.8
	c0,2.7,1.2,5.2,3.3,6.9c0.5,0.4,0.6,1,0.4,1.6l-2.2,5c0,0.1,0,0.1,0.1,0.1h14.5l0.1-0.1l-2.2-5c-0.2-0.5-0.1-1.2,0.4-1.6
	c2.1-1.7,3.3-4.2,3.3-6.9C22.8,6.8,18.9,2.8,14,2.8z M17.4,23.8h-6.8c-0.4,0-0.8-0.2-1.1-0.6c-0.2-0.4-0.3-0.8-0.1-1.2l1.4-3.2
	c0.1-0.1,0-0.3-0.1-0.3l-1-0.7c-2-1.4-3.2-3.7-3.2-6.1c0-4.1,3.4-7.5,7.5-7.5s7.5,3.4,7.5,7.5c0,2.4-1.2,4.7-3.2,6.1l-1,0.7
	c-0.1,0.1-0.1,0.2-0.1,0.3l1.4,3.2c0.2,0.4,0.1,0.9-0.1,1.2C18.2,23.6,17.8,23.8,17.4,23.8z M14,5.2c-3.6,0-6.5,2.9-6.5,6.5
	c0,2.1,1,4.1,2.8,5.3l1,0.7c0.5,0.3,0.7,1,0.4,1.6l-1.4,3.2c-0.1,0.1,0,0.2,0,0.3c0,0,0.1,0.1,0.2,0.1h6.8c0.1,0,0.2-0.1,0.2-0.1
	c0,0,0.1-0.1,0-0.3l-1.4-3.2c-0.2-0.6-0.1-1.2,0.4-1.6l1-0.7c1.7-1.2,2.8-3.2,2.8-5.3C20.5,8.1,17.6,5.2,14,5.2z M14,16.8
	c-2.1,0-3.9-1.2-4.7-3.1l0,0c-0.1-0.3-0.1-0.7,0-1c0.2-0.3,0.5-0.6,0.8-0.7l0.8-0.2c0.6-0.1,1.2,0.1,1.6,0.7
	c0.3,0.5,0.9,0.8,1.5,0.8c0.6,0,1.2-0.3,1.5-0.8c0.4-0.6,1-0.9,1.6-0.7l0.8,0.2c0.4,0.1,0.7,0.3,0.8,0.7c0.1,0.3,0.2,0.6,0,1
	C17.9,15.6,16.1,16.8,14,16.8z M10.2,13.3c0.7,1.5,2.2,2.5,3.8,2.5c1.7,0,3.2-1,3.8-2.5c0,0,0-0.1,0-0.1c0-0.1-0.1-0.1-0.2-0.1
	l-0.8-0.2c-0.2,0-0.4,0.1-0.5,0.3C15.8,14,15,14.5,14,14.5c-1,0-1.8-0.5-2.4-1.3c-0.1-0.2-0.3-0.4-0.5-0.3l-0.8,0.2
	c-0.1,0-0.1,0.1-0.2,0.1C10.2,13.3,10.2,13.3,10.2,13.3L10.2,13.3z"/>
</svg>
