<?xml version="1.0" encoding="utf-8"?>
<!-- Generator: Adobe Illustrator 24.1.2, SVG Export Plug-In . SVG Version: 6.00 Build 0)  -->
<svg version="1.1" id="Layer_1" xmlns="http://www.w3.org/2000/svg" xmlns:xlink="http://www.w3.org/1999/xlink" x="0px" y="0px"
	 viewBox="0 0 36 36" style="enable-background:new 0 0 36 36;" xml:space="preserve">
<style type="text/css">
	.st0{fill:#888888;}
</style>
<path class="st0" d="M31.3,33.8C31.3,33.8,31.3,33.8,31.3,33.8c-0.5,0-0.9-0.2-1.2-0.5L25,28.2c-0.1-0.1-0.3-0.1-0.4,0
	c-2.4,1.7-5.2,2.6-8.1,2.6c-7.9,0-14.3-6.4-14.3-14.3S8.6,2.3,16.5,2.3s14.3,6.4,14.3,14.2c0,2.9-0.9,5.7-2.6,8.1l0,0
	c-0.1,0.1-0.1,0.3,0,0.4l5.1,5.1c0.7,0.7,0.7,1.8,0,2.5l-0.7,0.7C32.3,33.6,31.8,33.8,31.3,33.8z M24.8,26.6c0.5,0,0.9,0.2,1.3,0.5
	l5.1,5.1c0.1,0.1,0.2,0.1,0.2,0.1c0,0,0.1,0,0.2-0.1l0.7-0.7c0.1-0.1,0.1-0.3,0-0.4l-5.1-5.1c-0.6-0.6-0.7-1.6-0.2-2.3l0,0
	c1.5-2.1,2.3-4.7,2.3-7.3c0-7-5.7-12.7-12.8-12.7S3.8,9.5,3.8,16.5s5.7,12.8,12.8,12.8c2.6,0,5.1-0.8,7.3-2.3
	C24.1,26.7,24.5,26.6,24.8,26.6z M16.5,27.8c-6.2,0-11.3-5-11.3-11.3s5-11.2,11.3-11.2s11.3,5,11.3,11.2c0,2.9-1.1,5.7-3.2,7.8
	l-0.2,0.2C22.2,26.6,19.4,27.8,16.5,27.8z M16.5,6.8c-5.4,0-9.8,4.4-9.8,9.7s4.4,9.8,9.8,9.8c2.5,0,5-1,6.8-2.8l0.2-0.2
	c1.8-1.8,2.7-4.2,2.7-6.8C26.3,11.1,21.9,6.8,16.5,6.8z M16.5,23.3c-3.7,0-6.8-3-6.8-6.8c0-3.7,3-6.7,6.8-6.7c0.5,0,0.9,0.2,1.1,0.7
	c0.3,0.5,0.3,1.3-0.1,1.9c-0.2,0.4-0.3,0.8-0.3,1.2c0,1.2,1,2.3,2.3,2.3c0.4,0,0.8-0.1,1.2-0.3c0.6-0.3,1.3-0.4,1.9-0.1
	c0.4,0.2,0.7,0.7,0.7,1.1C23.3,20.2,20.2,23.3,16.5,23.3z M16.4,11.3c-2.8,0.1-5.1,2.4-5.1,5.2c0,2.9,2.4,5.3,5.3,5.3
	c2.8,0,5.2-2.3,5.2-5.1c-0.1,0-0.2,0-0.3,0.1c-0.6,0.4-1.3,0.6-2,0.6c-2.1,0-3.8-1.7-3.8-3.7c0-0.7,0.2-1.4,0.6-2
	C16.4,11.5,16.4,11.3,16.4,11.3z"/>
</svg>
