<?xml version="1.0" encoding="utf-8"?>
<!-- Generator: Adobe Illustrator 24.1.2, SVG Export Plug-In . SVG Version: 6.00 Build 0)  -->
<svg version="1.1" id="Layer_1" xmlns="http://www.w3.org/2000/svg" xmlns:xlink="http://www.w3.org/1999/xlink" x="0px" y="0px"
	 viewBox="0 0 28 28" style="enable-background:new 0 0 28 28;" xml:space="preserve">
<style type="text/css">
	.st0{fill:#97C93D;}
</style>
<path class="st0" d="M20.4,27.3c-1.2,0-2.3-1-2.3-2.3s1-2.3,2.3-2.3s2.3,1,2.3,2.3S21.7,27.3,20.4,27.3z M20.4,23.8
	c-0.7,0-1.3,0.6-1.3,1.3s0.6,1.3,1.3,1.3s1.3-0.6,1.3-1.3S21.1,23.8,20.4,23.8z M6.4,27.3c-1.2,0-2.3-1-2.3-2.3s1-2.3,2.3-2.3
	s2.3,1,2.3,2.3S7.7,27.3,6.4,27.3z M6.4,23.8c-0.7,0-1.3,0.6-1.3,1.3s0.6,1.3,1.3,1.3s1.3-0.6,1.3-1.3S7.1,23.8,6.4,23.8z
	 M19.1,22.7H5.8c-0.9,0-1.7-0.7-1.7-1.7V7.8c0-0.1,0-0.1-0.1-0.2l-3-3c-0.5-0.5-0.5-1.3,0-1.8l0.6-0.5c0.5-0.5,1.3-0.5,1.8,0l3,3
	c0.1,0.1,0.1,0.1,0.2,0.1h17.5c0.9,0,1.7,0.7,1.7,1.7c0,0.2,0,0.3-0.1,0.5l-2.8,9.3C22.7,17.5,22,18,21.3,18H7.8
	c-0.2,0-0.3,0.1-0.3,0.3v0.8c0,0.2,0.1,0.3,0.3,0.3h11.3c0.7,0,1.3,0.6,1.3,1.3v0.8C20.3,22.1,19.8,22.7,19.1,22.7z M2.5,2.9
	c-0.1,0-0.1,0-0.2,0.1L1.8,3.5C1.7,3.6,1.7,3.6,1.7,3.7c0,0.1,0,0.1,0.1,0.2l3,3C5,7.1,5.2,7.5,5.2,7.8V21c0,0.4,0.3,0.7,0.7,0.7
	h13.2c0.2,0,0.3-0.1,0.3-0.3v-0.8c0-0.2-0.1-0.3-0.3-0.3H7.8c-0.7,0-1.3-0.6-1.3-1.3v-0.8c0-0.7,0.6-1.3,1.3-1.3h13.5
	c0.3,0,0.6-0.2,0.6-0.5l2.8-9.3c0-0.1,0-0.1,0-0.2c0-0.4-0.3-0.7-0.7-0.7H6.6C6.3,6.3,6,6.2,5.7,6l-3-3C2.7,2.9,2.6,2.9,2.5,2.9z
	 M19.9,15.7H7.8c-0.7,0-1.3-0.6-1.3-1.3V8.9c0-0.7,0.6-1.3,1.3-1.3h13.7c0.4,0,0.8,0.2,1,0.5c0.2,0.3,0.3,0.7,0.2,1.1l-1.6,5.4
	C20.9,15.3,20.4,15.7,19.9,15.7z M7.8,8.7c-0.2,0-0.3,0.1-0.3,0.3v5.4c0,0.2,0.1,0.3,0.3,0.3h12.1c0.1,0,0.2-0.1,0.3-0.2L21.8,9
	c0-0.1,0-0.2,0-0.2c0,0-0.1-0.1-0.2-0.1H7.8z"/>
</svg>
