<?xml version="1.0" encoding="utf-8"?>
<!-- Generator: Adobe Illustrator 24.1.2, SVG Export Plug-In . SVG Version: 6.00 Build 0)  -->
<svg version="1.1" id="Layer_1" xmlns="http://www.w3.org/2000/svg" xmlns:xlink="http://www.w3.org/1999/xlink" x="0px" y="0px"
	 viewBox="0 0 36 36" style="enable-background:new 0 0 36 36;" xml:space="preserve">
<style type="text/css">
	.st0{fill:#252F6C;}
</style>
<g>
	<path class="st0" d="M18,36C8.1,36,0,27.9,0,18C0,8.1,8.1,0,18,0c9.9,0,18,8.1,18,18C36,27.9,27.9,36,18,36z M18,2
		C9.2,2,2,9.2,2,18s7.2,16,16,16s16-7.2,16-16S26.8,2,18,2z"/>
	<path class="st0" d="M23.4,16.9c0.4,0.4,0.4,1,0,1.4l-7.1,7.1c-0.4,0.4-1,0.4-1.4,0L13.5,24c-0.4-0.4-0.4-1,0-1.4l4.2-4.2
		c0.4-0.4,0.4-1,0-1.4l-4.2-4.2c-0.4-0.4-0.4-1,0-1.4l1.4-1.4c0.4-0.4,1-0.4,1.4,0L23.4,16.9z"/>
</g>
</svg>
