<?xml version="1.0" encoding="utf-8"?>
<!-- Generator: Adobe Illustrator 24.1.2, SVG Export Plug-In . SVG Version: 6.00 Build 0)  -->
<svg version="1.1" id="Layer_1" xmlns="http://www.w3.org/2000/svg" xmlns:xlink="http://www.w3.org/1999/xlink" x="0px" y="0px"
	 viewBox="0 0 24 25" style="enable-background:new 0 0 24 25;" xml:space="preserve">
<style type="text/css">
	.st0{fill:#252C32;}
</style>
<g>
	<path class="st0" d="M4.5,7.2h12.7c0.4,0,0.7-0.3,0.7-0.7c0-0.4-0.3-0.7-0.7-0.7H4.5c-0.4,0-0.7,0.3-0.7,0.7
		C3.8,6.9,4.1,7.2,4.5,7.2z"/>
	<path class="st0" d="M11.3,11.8H4.5c-0.4,0-0.7,0.3-0.7,0.7s0.3,0.7,0.7,0.7h6.7c0.4,0,0.7-0.3,0.7-0.7S11.7,11.8,11.3,11.8z"/>
	<path class="st0" d="M9.8,17.8H4.5c-0.4,0-0.7,0.3-0.7,0.7c0,0.4,0.3,0.7,0.7,0.7h5.2c0.4,0,0.7-0.3,0.7-0.7
		C10.5,18.1,10.2,17.8,9.8,17.8z"/>
	<path class="st0" d="M21.5,15.7c-0.3-0.3-0.8-0.3-1.1,0L18,18.2V11c0-0.4-0.3-0.7-0.7-0.7c-0.4,0-0.7,0.3-0.7,0.7v7.2L14,15.7
		c-0.3-0.3-0.8-0.3-1.1,0s-0.3,0.8,0,1.1l3.7,3.7c0.3,0.3,0.8,0.3,1.1,0c0,0,0-0.1,0.1-0.1l3.7-3.7C21.8,16.5,21.8,16,21.5,15.7z"/>
</g>
</svg>
