<?xml version="1.0" encoding="utf-8"?>
<!-- Generator: Adobe Illustrator 24.1.2, SVG Export Plug-In . SVG Version: 6.00 Build 0)  -->
<svg version="1.1" id="Layer_1" xmlns="http://www.w3.org/2000/svg" xmlns:xlink="http://www.w3.org/1999/xlink" x="0px" y="0px"
	 viewBox="0 0 13.6 13" style="enable-background:new 0 0 13.6 13;" xml:space="preserve">
<path d="M6.9,0.4c0.2,0,0.3,0.1,0.4,0.2l1.6,2.6C9,3.6,9.4,3.8,9.8,3.9l3,0.8c0.2,0.1,0.3,0.2,0.4,0.3c0,0.2,0,0.3-0.1,0.5l-1.9,2.4
	l0,0l0,0c-0.1,0.2-0.3,0.5-0.3,0.9l0.1,3.1c0,0.3-0.3,0.5-0.5,0.5c0,0-0.1,0-0.1,0l-2.9-1.1c-0.2-0.1-0.4-0.1-0.5-0.1
	c-0.2,0-0.4,0-0.5,0.1l-2.8,1.1c-0.1,0-0.1,0-0.2,0c-0.2,0-0.3-0.1-0.4-0.2c-0.1-0.1-0.1-0.2-0.1-0.3l0,0l0,0l0.1-3.1
	c0-0.3-0.1-0.7-0.3-0.9l0-0.1l0,0l-2-2.4C0.5,5.4,0.5,5.2,0.5,5c0.1-0.2,0.2-0.2,0.2-0.2l0,0l0,0l3-0.8l0,0l0,0
	c0.3-0.1,0.5-0.4,0.7-0.6l0,0l0,0l1.7-2.6C6.5,0.5,6.7,0.4,6.9,0.4 M6.9-0.1C6.5-0.1,6.2,0.1,6,0.4L4.3,3C4.1,3.2,3.9,3.4,3.7,3.5
	l-3,0.8C0,4.4-0.2,5.3,0.2,5.8l2,2.4c0.1,0.2,0.2,0.5,0.2,0.7L2.3,12c-0.1,0.6,0.4,1,1,1c0.1,0,0.2,0,0.3,0l2.9-1.1
	c0.1,0,0.2-0.1,0.3-0.1s0.3,0,0.3,0.1l2.9,1.1c0.1,0,0.2,0,0.3,0c0.5,0,1-0.5,1-1l-0.1-3.1c0-0.3,0.1-0.5,0.2-0.7l1.9-2.4
	c0.5-0.6,0.2-1.4-0.5-1.6l-3-0.8C9.6,3.3,9.4,3.2,9.3,3L7.7,0.4C7.5,0.1,7.2-0.1,6.9-0.1L6.9-0.1z"/>
</svg>
