<?xml version="1.0" encoding="utf-8"?>
<!-- Generator: Adobe Illustrator 24.1.2, SVG Export Plug-In . SVG Version: 6.00 Build 0)  -->
<svg version="1.1" id="Layer_1" xmlns="http://www.w3.org/2000/svg" xmlns:xlink="http://www.w3.org/1999/xlink" x="0px" y="0px"
	 viewBox="0 0 13.6 13" style="enable-background:new 0 0 13.6 13;" xml:space="preserve">
<path d="M6,0.4c0.4-0.6,1.3-0.6,1.7,0L9.3,3c0.1,0.2,0.3,0.3,0.6,0.4l3,0.8c0.7,0.2,1,1,0.5,1.6l-1.9,2.4c-0.1,0.2-0.2,0.4-0.2,0.7
	l0.1,3.1c0,0.7-0.7,1.2-1.3,1l-2.9-1.1c-0.2-0.1-0.5-0.1-0.7,0L3.6,13c-0.7,0.2-1.4-0.3-1.3-1l0.1-3.1c0-0.2-0.1-0.5-0.2-0.7l-2-2.4
	C-0.2,5.3,0,4.4,0.7,4.3l3-0.8C3.9,3.4,4.1,3.2,4.3,3L6,0.4z"/>
</svg>
