<?xml version="1.0" encoding="utf-8"?>
<!-- Generator: Adobe Illustrator 24.1.2, SVG Export Plug-In . SVG Version: 6.00 Build 0)  -->
<svg version="1.1" id="Layer_1" xmlns="http://www.w3.org/2000/svg" xmlns:xlink="http://www.w3.org/1999/xlink" x="0px" y="0px"
	 viewBox="0 0 32 32" style="enable-background:new 0 0 32 32;" xml:space="preserve">
<style type="text/css">
	.st0{fill:none;}
	.st1{fill:#F05075;}
</style>
<path class="st0" d="M12.1,16.6c0.3,0,0.6,0.3,0.8,0.7l1,3.2l0.7-0.6c0.4-0.4,0.9-0.6,1.4-0.6c0.4,0,0.8,0.1,1.2,0.4l2.4,1.8
	l2.1-9.9L10.1,16L12.1,16.6z"/>
<path class="st0" d="M17.2,21.1l-0.8-0.6c-0.4-0.3-0.9-0.3-1.3,0.1l-0.3,0.3h1.6L17.2,21.1z"/>
<path class="st0" d="M16,3.7C9.2,3.7,3.7,9.2,3.7,16c0,6.8,5.5,12.3,12.3,12.3c6.8,0,12.3-5.5,12.3-12.3C28.3,9.2,22.8,3.7,16,3.7z
	 M16,27.7C9.6,27.7,4.3,22.4,4.3,16C4.3,9.6,9.6,4.3,16,4.3S27.7,9.6,27.7,16C27.7,22.4,22.4,27.7,16,27.7z"/>
<path class="st1" d="M16,2.7C8.6,2.7,2.7,8.6,2.7,16c0,7.4,6,13.3,13.3,13.3s13.3-6,13.3-13.3C29.3,8.6,23.4,2.7,16,2.7z M16,28.3
	C9.2,28.3,3.7,22.8,3.7,16C3.7,9.2,9.2,3.7,16,3.7c6.8,0,12.3,5.5,12.3,12.3C28.3,22.8,22.8,28.3,16,28.3z"/>
<path class="st1" d="M22.2,10.3c-0.1,0-0.3,0-0.5,0.1l-13,5c-0.1,0.1-0.2,0.1-0.3,0.1l-0.9,0.6l4.4,1.4l1.2,3.8
	c0,0.1,0.1,0.2,0.1,0.2l0.1,0.2l0.4,0l1.2-1l0,0l0.3-0.3c0.4-0.3,0.9-0.4,1.3-0.1l0.8,0.6h0l2,1.5l0,0c0.1,0,0.2,0.1,0.3,0.1
	c0.1,0,0.2,0,0.3,0l0.3-0.2l0.2-0.3c0-0.1,0-0.1,0.1-0.2l2.2-10.4c0.1-0.2,0.1-0.4,0.1-0.6l-0.2-0.5L22.2,10.3z M8.5,16.1l0.3,0.3
	L8.5,16.1z M19.5,21.5L17,19.7c-0.4-0.3-0.8-0.4-1.2-0.4c-0.5,0-1,0.2-1.4,0.6l-0.7,0.6l-1-3.2c-0.1-0.4-0.4-0.7-0.8-0.7l-2-0.6
	l11.5-4.5L19.5,21.5z"/>
<path class="st1" d="M16,4.3C9.6,4.3,4.3,9.6,4.3,16c0,6.4,5.2,11.7,11.7,11.7S27.7,22.4,27.7,16C27.7,9.6,22.4,4.3,16,4.3z
	 M16,26.7c-5.9,0-10.7-4.8-10.7-10.7c0-5.9,4.8-10.7,10.7-10.7c5.9,0,10.7,4.8,10.7,10.7C26.7,21.9,21.9,26.7,16,26.7z"/>
</svg>
