<?xml version="1.0" encoding="utf-8"?>
<!-- Generator: Adobe Illustrator 24.1.2, SVG Export Plug-In . SVG Version: 6.00 Build 0)  -->
<svg version="1.1" id="Layer_1" xmlns="http://www.w3.org/2000/svg" xmlns:xlink="http://www.w3.org/1999/xlink" x="0px" y="0px"
	 viewBox="0 0 32 32" style="enable-background:new 0 0 32 32;" xml:space="preserve">
<style type="text/css">
	.st0{fill:#F05075;}
</style>
<path class="st0" d="M13,29.3c-5,0-9.1-4.1-9.1-9.1S8,11.1,13,11.1c0.6,0,1.1,0.1,1.7,0.2V2.7h7.5V4c0,2.6,2,4.7,4.5,4.7H28v7.5
	h-1.3c-1.6,0-3.1-0.3-4.5-0.9v5C22.1,25.2,18,29.3,13,29.3z M13,12.1c-4.5,0-8.1,3.6-8.1,8.1c0,4.5,3.6,8.1,8.1,8.1s8.1-3.6,8.1-8.1
	v-6.5l1.4,0.6c1.3,0.6,2.7,0.8,4.1,0.8H27V9.7h-0.3c-3.1,0-5.5-2.5-5.5-5.7V3.7h-5.5v8.8l-1.2-0.2C14,12.1,13.5,12.1,13,12.1z
	 M13,27.7c-4.1,0-7.5-3.3-7.5-7.5s3.3-7.5,7.5-7.5c0.1,0,0.3,0,0.4,0l0.9,0V17l-1.1-0.1c-0.1,0-0.2,0-0.3,0c-1.8,0-3.3,1.5-3.3,3.3
	s1.5,3.3,3.3,3.3s3.3-1.5,3.3-3.3V4.3h4.1l0.1,0.8c0.5,2.6,2.4,4.6,4.9,5.1l0.8,0.2v4.1l-1.1-0.2c-1.5-0.2-2.9-0.8-4.2-1.7l-0.5-0.3
	v7.8C20.5,24.3,17.1,27.7,13,27.7z M13,13.7c-3.6,0-6.5,2.9-6.5,6.5c0,3.6,2.9,6.5,6.5,6.5c3.6,0,6.5-2.9,6.5-6.5v-9.7l2.1,1.4
	c1.2,0.8,2.5,1.3,3.8,1.5v-2.2c-3-0.5-5.2-2.9-5.8-5.9h-2.3l0,9.9l0,5c0,2.4-1.9,4.3-4.3,4.3s-4.3-1.9-4.3-4.3s1.9-4.3,4.3-4.3
	c0.1,0,0.2,0,0.3,0h0v-2.1C13.2,13.7,13.1,13.7,13,13.7z M13,22.9c-1.5,0-2.7-1.2-2.7-2.7s1.2-2.7,2.7-2.7s2.7,1.2,2.7,2.7
	S14.5,22.9,13,22.9z M13,18.5c-0.9,0-1.7,0.7-1.7,1.7s0.7,1.7,1.7,1.7s1.7-0.7,1.7-1.7S13.9,18.5,13,18.5z"/>
</svg>
