<?xml version="1.0" encoding="utf-8"?>
<!-- Generator: Adobe Illustrator 24.1.2, SVG Export Plug-In . SVG Version: 6.00 Build 0)  -->
<svg version="1.1" id="Layer_1" xmlns="http://www.w3.org/2000/svg" xmlns:xlink="http://www.w3.org/1999/xlink" x="0px" y="0px"
	 viewBox="0 0 88 88" style="enable-background:new 0 0 88 88;" xml:space="preserve">
<style type="text/css">
	.st0{fill:#1F1E33;}
</style>
<path class="st0" d="M64.2,78.5c-6.6,0-12.4-4.6-13.9-11H34.1c-1.5,6.4-7.3,11-13.9,11c-6.6,0-12.4-4.6-13.9-11H4.7
	c-1.4,0-2.5-1.1-2.5-2.5V22c0-2.8,2.3-5.2,5.2-5.2h51.3c2.8,0,5.2,2.3,5.2,5.2v5.8h9c0.8,0,1.5,0.4,2,1L85.3,43
	c0.3,0.4,0.5,1,0.5,1.5V65c0,1.4-1.1,2.5-2.5,2.5h-5.2C76.6,73.9,70.8,78.5,64.2,78.5z M33.7,64.5h16.9c1.2,0,2.2,0.9,2.5,2
	c1.1,5.2,5.8,9,11.1,9s10-3.8,11.1-9c0.3-1.2,1.3-2,2.5-2h5.1V44.7L72.6,30.8h-9.2c-1.4,0-2.5-1.1-2.5-2.5V22c0-1.2-1-2.2-2.2-2.2
	H7.3c-1.2,0-2.2,1-2.2,2.2v42.5h1.4c1.2,0,2.2,0.9,2.5,2c1.1,5.2,5.8,9,11.1,9c5.3,0,10-3.8,11.1-9C31.5,65.4,32.5,64.5,33.7,64.5z
	 M82.9,44.8C82.9,44.8,82.9,44.8,82.9,44.8L82.9,44.8z M64.2,71.2c-3,0-5.6-1.9-6.6-4.7c-0.3-0.8-0.4-1.5-0.4-2.3c0-3.9,3.1-7,7-7
	s7,3.1,7,7c0,0.8-0.1,1.6-0.4,2.3C69.8,69.3,67.1,71.2,64.2,71.2z M64.2,60.2c-2.2,0-4,1.8-4,4c0,0.5,0.1,0.9,0.2,1.3
	c0.6,1.6,2.1,2.7,3.8,2.7c1.7,0,3.2-1.1,3.8-2.7c0.2-0.4,0.2-0.9,0.2-1.3C68.2,62,66.4,60.2,64.2,60.2z M20.2,71.2
	c-3,0-5.6-1.9-6.6-4.7c-0.3-0.7-0.4-1.5-0.4-2.3c0-3.9,3.1-7,7-7s7,3.1,7,7c0,0.8-0.1,1.6-0.4,2.3C25.8,69.3,23.1,71.2,20.2,71.2z
	 M20.2,60.2c-2.2,0-4,1.8-4,4c0,0.5,0.1,0.9,0.2,1.3c0.6,1.6,2.1,2.7,3.8,2.7s3.2-1.1,3.8-2.7c0.2-0.4,0.2-0.9,0.2-1.3
	C24.2,62,22.4,60.2,20.2,60.2z M51.9,60.2H32.4c-0.9,0-1.8-0.5-2.2-1.4c-2-3.7-5.8-6-10-6c-2.3,0-4.5,0.7-6.4,2
	c-0.8,0.6-1.9,0.6-2.8,0.2c-0.9-0.5-1.4-1.3-1.4-2.3V26.7c0-1.4,1.1-2.5,2.5-2.5h42c1.4,0,2.5,1.1,2.5,2.5v28.1
	c0,0.6-0.2,1.2-0.7,1.7c-0.6,0.7-1.2,1.5-1.6,2.3S52.9,60.2,51.9,60.2z M32.7,57.2h19c0.5-0.9,1.1-1.8,1.8-2.6V27.2h-41v24.9
	c2.3-1.5,4.9-2.2,7.7-2.2C25.4,49.8,30.1,52.6,32.7,57.2z M76.2,49.2H63.3c-1.4,0-2.5-1.1-2.5-2.5v-9c0-1.4,1.1-2.5,2.5-2.5h5.8
	c0.8,0,1.5,0.4,2,1l6.9,9.3c0.3,0.4,0.4,0.9,0.4,1.4C78.5,48.1,77.5,49.2,76.2,49.2z M63.8,46.2h11l-5.9-8h-5V46.2z"/>
</svg>
