<?xml version="1.0" encoding="utf-8"?>
<!-- Generator: Adobe Illustrator 24.1.2, SVG Export Plug-In . SVG Version: 6.00 Build 0)  -->
<svg version="1.1" id="Layer_1" xmlns="http://www.w3.org/2000/svg" xmlns:xlink="http://www.w3.org/1999/xlink" x="0px" y="0px"
	 viewBox="0 0 34.3 32" style="enable-background:new 0 0 34.3 32;" xml:space="preserve">
<style type="text/css">
	.st0{fill:#F05075;}
</style>
<path class="st0" d="M31.3,3.1c3.9,4,4,10.4,0.4,14.5l-13.6,14c-0.5,0.5-1.4,0.5-1.9,0l-13.6-14C-1,13.5-0.9,7.1,3,3.1
	C6.6-0.6,12.2-1,16.2,1.9c0.6,0.4,1.3,0.4,1.9,0C22.1-1,27.7-0.6,31.3,3.1z M5.4,5.6c-2.6,2.6-2.7,6.8-0.3,9.6l11.1,11.4
	c0.5,0.5,1.4,0.5,1.9,0l11.1-11.4c2.4-2.8,2.2-7-0.3-9.6c-2.5-2.6-6.7-2.8-9.3-0.3l-6.2,6.4c-0.5,0.5-1.4,0.5-1.9,0l-0.6-0.6
	c-0.5-0.5-0.5-1.3,0-1.9l3.8-3.9c0.1-0.1,0.1-0.2,0-0.3C11.9,2.8,7.9,3,5.4,5.6z"/>
</svg>
