<svg width="54" height="35" viewBox="0 0 54 35" fill="none" xmlns="http://www.w3.org/2000/svg">
<path d="M49.171 0.218799H4.82902C4.6468 0.218799 4.46457 0.218799 4.28234 0.218799C4.13048 0.218799 3.97863 0.218799 3.81159 0.218799C3.4775 0.233984 3.12823 0.24917 2.79415 0.309912C2.46007 0.370654 2.12598 0.476953 1.82227 0.628809C1.21485 0.932522 0.713723 1.43365 0.410011 2.04107C0.258155 2.34478 0.151856 2.66368 0.0911134 3.01295C0.030371 3.34703 0.0151856 3.6963 0 4.03039C0 4.18224 0 4.3341 0 4.50114C0 4.68337 0 4.86559 0 5.04782V29.9522C0 30.1344 0 30.3167 0 30.5141C0 30.6659 0 30.8178 0 30.9848C0.0151856 31.3189 0.030371 31.6682 0.0911134 32.0023C0.151856 32.3363 0.258155 32.6704 0.410011 32.9741C0.561867 33.2779 0.759279 33.5512 1.00225 33.7942C1.24522 34.0371 1.51856 34.2346 1.82227 34.3864C2.12598 34.5383 2.44488 34.6446 2.79415 34.7053C3.12823 34.766 3.4775 34.7812 3.81159 34.7964C3.96344 34.7964 4.1153 34.7964 4.28234 34.7964C4.46457 34.7964 4.6468 34.7964 4.82902 34.7964H49.171C49.3532 34.7964 49.5354 34.7964 49.7177 34.7964C49.8695 34.7964 50.0214 34.7964 50.1884 34.7964C50.5225 34.7812 50.8718 34.766 51.2059 34.7053C51.5399 34.6446 51.874 34.5383 52.1777 34.3864C52.7852 34.0675 53.2863 33.5816 53.59 32.9741C53.7419 32.6704 53.8481 32.3515 53.9089 32.0023C53.9696 31.6682 53.9848 31.3189 54 30.9848C54 30.833 54 30.6811 54 30.5141C54 30.3319 54 30.1496 54 29.9522V5.04782C54 4.86559 54 4.68337 54 4.48595C54 4.3341 54 4.18224 54 4.0152C53.9848 3.68112 53.9696 3.33185 53.9089 2.99776C53.8481 2.66368 53.7419 2.3296 53.59 2.02589C53.2863 1.41846 52.7852 0.917336 52.1777 0.613624C51.874 0.461768 51.5551 0.355469 51.2059 0.294727C50.8718 0.233984 50.5225 0.218799 50.1884 0.203613C50.0366 0.203613 49.8847 0.203613 49.7177 0.203613C49.5354 0.218799 49.3532 0.218799 49.171 0.218799Z" fill="#010202"/>
<path d="M49.1731 1.37158H49.7198C49.8717 1.37158 50.0083 1.37158 50.1602 1.37158C50.4184 1.37158 50.7221 1.38677 51.0106 1.44751C51.2536 1.49307 51.4662 1.55381 51.6636 1.66011C52.0584 1.85752 52.3773 2.17642 52.5747 2.57124C52.681 2.76866 52.7417 2.96607 52.7873 3.22423C52.8329 3.49757 52.848 3.80128 52.8632 4.05943C52.8632 4.21129 52.8632 4.34796 52.8632 4.49982C52.8632 4.68204 52.8632 4.86427 52.8632 5.0465V29.9509C52.8632 30.1331 52.8632 30.3153 52.8632 30.4976C52.8632 30.6494 52.8632 30.7861 52.8632 30.9379C52.8632 31.1961 52.848 31.4998 52.7873 31.7883C52.7569 32.0161 52.681 32.2287 52.5747 32.4261C52.3773 32.821 52.0584 33.1399 51.6636 33.3373C51.4662 33.4436 51.2687 33.5043 51.0258 33.5499C50.7372 33.5954 50.4183 33.6106 50.1906 33.6258C50.0387 33.6258 49.8869 33.6258 49.735 33.6258C49.5528 33.6258 49.3705 33.6258 49.1883 33.6258H4.84635C4.66412 33.6258 4.4819 33.6258 4.29967 33.6258C4.14782 33.6258 4.01114 33.6258 3.85929 33.6258C3.61632 33.6258 3.29742 33.6106 3.0089 33.5499C2.78111 33.5195 2.56851 33.4436 2.35591 33.3373C2.1585 33.231 1.97627 33.1095 1.82442 32.9576C1.67256 32.8058 1.53589 32.6236 1.44478 32.4261C1.33848 32.2287 1.27773 32.0009 1.23218 31.7732C1.18662 31.4846 1.17144 31.1961 1.15625 30.9379C1.15625 30.7861 1.15625 30.6494 1.15625 30.4976V30.0572V4.9402V4.515C1.15625 4.36315 1.15625 4.22647 1.15625 4.07462C1.15625 3.81646 1.17144 3.51275 1.23218 3.22423C1.26255 2.99644 1.33848 2.78384 1.44478 2.57124C1.55108 2.37383 1.67256 2.1916 1.82442 2.03975C1.97627 1.88789 2.1585 1.75122 2.35591 1.66011C2.55333 1.55381 2.78111 1.49307 3.0089 1.44751C3.29742 1.40195 3.60113 1.38677 3.85929 1.37158C4.01114 1.37158 4.14782 1.37158 4.29967 1.37158H4.84635H49.1731Z" fill="white"/>
<path d="M14.2031 11.8941C14.6587 11.317 14.9776 10.5577 14.8865 9.76807C14.2183 9.79844 13.3983 10.2085 12.9275 10.7855C12.5023 11.2714 12.1227 12.0763 12.229 12.8356C12.9731 12.8963 13.7324 12.4559 14.2031 11.8941Z" fill="#010202"/>
<path d="M14.8718 12.9731C13.7784 12.9123 12.8521 13.5957 12.3358 13.5957C11.8195 13.5957 11.0146 13.0034 10.1491 13.0186C9.02533 13.0338 7.97752 13.6716 7.41565 14.689C6.24636 16.7087 7.11194 19.7155 8.25086 21.3555C8.81273 22.1755 9.4809 23.0715 10.3465 23.0411C11.1817 23.0107 11.5006 22.5096 12.518 22.5096C13.5355 22.5096 13.824 23.0411 14.7047 23.0259C15.6159 23.0107 16.1929 22.2059 16.7396 21.4011C17.3774 20.4747 17.6356 19.5788 17.6508 19.5181C17.6356 19.5029 15.8892 18.8347 15.874 16.8302C15.8588 15.1446 17.2407 14.3549 17.3167 14.2942C16.527 13.1401 15.297 13.0034 14.8718 12.9731Z" fill="#010202"/>
<path d="M25.7736 10.6938C28.1425 10.6938 29.7977 12.3339 29.7977 14.718C29.7977 17.1174 28.1121 18.7574 25.7128 18.7574H23.0857V22.9334H21.1875V10.6938H25.7736ZM23.0857 17.1629H25.2724C26.9277 17.1629 27.8692 16.267 27.8692 14.7332C27.8692 13.1843 26.9277 12.3035 25.2876 12.3035H23.1009C23.0857 12.3035 23.0857 17.1629 23.0857 17.1629Z" fill="#010202"/>
<path d="M30.2656 20.3962C30.2656 18.8321 31.4653 17.921 33.6672 17.7995L36.0362 17.6628V16.9795C36.0362 15.9924 35.3832 15.4457 34.2139 15.4457C33.2572 15.4457 32.5586 15.9316 32.422 16.6909H30.706C30.7516 15.1116 32.2549 13.9575 34.2746 13.9575C36.4462 13.9575 37.8584 15.0964 37.8584 16.858V22.9474H36.0969V21.4744H36.0513C35.5502 22.4311 34.4417 23.0385 33.2572 23.0385C31.4957 23.0233 30.2656 21.9755 30.2656 20.3962ZM36.0362 19.6066V18.9232L33.9254 19.0599C32.7409 19.1358 32.1183 19.5762 32.1183 20.3507C32.1183 21.0948 32.7561 21.5807 33.7735 21.5807C35.0643 21.5807 36.0362 20.7607 36.0362 19.6066Z" fill="#010202"/>
<path d="M39.4745 26.213V24.74C39.596 24.7552 39.8845 24.7704 40.0364 24.7704C40.8716 24.7704 41.3575 24.4211 41.6461 23.4948L41.8131 22.9481L38.5938 14.0493H40.5831L42.8154 21.2777H42.8609L45.0932 14.0493H47.0369L43.6961 23.4036C42.9368 25.5448 42.0561 26.2585 40.2034 26.2585C40.0668 26.2585 39.6112 26.2434 39.4745 26.213Z" fill="#010202"/>
</svg>
