<svg width="41" height="27" viewBox="0 0 41 27" fill="none" xmlns="http://www.w3.org/2000/svg">
<path d="M37.1595 0.538977H3.90302C3.76635 0.538977 3.62967 0.538977 3.493 0.538977C3.37911 0.538977 3.26522 0.538977 3.13994 0.538977C2.88938 0.550366 2.62742 0.561755 2.37686 0.607312C2.1263 0.652869 1.87574 0.732593 1.64795 0.846485C1.19239 1.07427 0.816542 1.45011 0.588758 1.90568C0.474866 2.13347 0.395142 2.37264 0.349585 2.63459C0.304028 2.88515 0.292639 3.14711 0.28125 3.39767C0.28125 3.51156 0.28125 3.62545 0.28125 3.75073C0.28125 3.8874 0.28125 4.02407 0.28125 4.16074V22.839C0.28125 22.9757 0.28125 23.1124 0.28125 23.2604C0.28125 23.3743 0.28125 23.4882 0.28125 23.6135C0.292639 23.8641 0.304028 24.126 0.349585 24.3766C0.395142 24.6271 0.474866 24.8777 0.588758 25.1055C0.70265 25.3333 0.850709 25.5383 1.03294 25.7205C1.21516 25.9027 1.42017 26.0508 1.64795 26.1647C1.87574 26.2786 2.11491 26.3583 2.37686 26.4039C2.62742 26.4494 2.88938 26.4608 3.13994 26.4722C3.25383 26.4722 3.36772 26.4722 3.493 26.4722C3.62967 26.4722 3.76635 26.4722 3.90302 26.4722H37.1595C37.2962 26.4722 37.4328 26.4722 37.5695 26.4722C37.6834 26.4722 37.7973 26.4722 37.9226 26.4722C38.1731 26.4608 38.4351 26.4494 38.6856 26.4039C38.9362 26.3583 39.1868 26.2786 39.4145 26.1647C39.8701 25.9255 40.246 25.5611 40.4737 25.1055C40.5876 24.8777 40.6674 24.6385 40.7129 24.3766C40.7585 24.126 40.7699 23.8641 40.7812 23.6135C40.7812 23.4996 40.7812 23.3857 40.7812 23.2604C40.7812 23.1238 40.7812 22.9871 40.7812 22.839V4.16074C40.7812 4.02407 40.7812 3.8874 40.7812 3.73934C40.7812 3.62545 40.7812 3.51156 40.7812 3.38628C40.7699 3.13572 40.7585 2.87376 40.7129 2.6232C40.6674 2.37264 40.5876 2.12208 40.4737 1.89429C40.246 1.43872 39.8701 1.06288 39.4145 0.835096C39.1868 0.721204 38.9476 0.64148 38.6856 0.595923C38.4351 0.550366 38.1731 0.538977 37.9226 0.527588C37.8087 0.527588 37.6948 0.527588 37.5695 0.527588C37.4328 0.538977 37.2962 0.538977 37.1595 0.538977Z" fill="#1F1E33"/>
<path d="M37.1582 1.40332H37.5682C37.6821 1.40332 37.7846 1.40332 37.8985 1.40332C38.0921 1.40332 38.3199 1.41471 38.5363 1.46027C38.7185 1.49443 38.8779 1.53999 39.026 1.61972C39.3221 1.76777 39.5613 2.00695 39.7093 2.30307C39.7891 2.45113 39.8346 2.59919 39.8688 2.7928C39.903 2.99781 39.9144 3.22559 39.9257 3.41921C39.9257 3.5331 39.9257 3.6356 39.9257 3.7495C39.9257 3.88617 39.9257 4.02284 39.9257 4.15951V22.8378C39.9257 22.9745 39.9257 23.1111 39.9257 23.2478C39.9257 23.3617 39.9257 23.4642 39.9257 23.5781C39.9257 23.7717 39.9144 23.9995 39.8688 24.2159C39.846 24.3867 39.7891 24.5462 39.7093 24.6942C39.5613 24.9904 39.3221 25.2295 39.026 25.3776C38.8779 25.4573 38.7299 25.5029 38.5476 25.537C38.3313 25.5712 38.0921 25.5826 37.9212 25.594C37.8074 25.594 37.6935 25.594 37.5796 25.594C37.4429 25.594 37.3062 25.594 37.1696 25.594H3.91308C3.77641 25.594 3.63974 25.594 3.50307 25.594C3.38918 25.594 3.28668 25.594 3.17279 25.594C2.99056 25.594 2.75139 25.5826 2.53499 25.537C2.36415 25.5143 2.2047 25.4573 2.04526 25.3776C1.8972 25.2979 1.76053 25.2068 1.64663 25.0929C1.53274 24.979 1.43024 24.8423 1.3619 24.6942C1.28218 24.5462 1.23662 24.3753 1.20245 24.2045C1.16829 23.9881 1.1569 23.7717 1.14551 23.5781C1.14551 23.4642 1.14551 23.3617 1.14551 23.2478V22.9175V4.07978V3.76089C1.14551 3.64699 1.14551 3.54449 1.14551 3.4306C1.14551 3.23698 1.1569 3.0092 1.20245 2.7928C1.22523 2.62197 1.28218 2.46252 1.3619 2.30307C1.44163 2.15501 1.53274 2.01834 1.64663 1.90445C1.76053 1.79055 1.8972 1.68805 2.04526 1.61972C2.19332 1.53999 2.36415 1.49443 2.53499 1.46027C2.75139 1.4261 2.97917 1.41471 3.17279 1.40332C3.28668 1.40332 3.38918 1.40332 3.50307 1.40332H3.91308H37.1582Z" fill="white"/>
<path d="M10.9307 9.29517C11.2723 8.86238 11.5115 8.29292 11.4432 7.70068C10.9421 7.72346 10.327 8.03097 9.97397 8.46376C9.65508 8.82822 9.37035 9.43184 9.45007 10.0013C10.0081 10.0469 10.5776 9.71657 10.9307 9.29517Z" fill="#1F1E33"/>
<path d="M11.4322 10.1044C10.6121 10.0589 9.91739 10.5714 9.53016 10.5714C9.14293 10.5714 8.5393 10.1272 7.89012 10.1386C7.04732 10.15 6.26146 10.6283 5.84006 11.3914C4.96309 12.9062 5.61228 15.1612 6.46647 16.3913C6.88787 17.0063 7.38899 17.6782 8.03818 17.6555C8.66458 17.6327 8.90376 17.2568 9.66683 17.2568C10.4299 17.2568 10.6463 17.6555 11.3069 17.6441C11.9902 17.6327 12.423 17.0291 12.833 16.4254C13.3114 15.7307 13.505 15.0587 13.5164 15.0132C13.505 15.0018 12.1952 14.5007 12.1838 12.9973C12.1725 11.7331 13.2089 11.1408 13.2658 11.0953C12.6736 10.2297 11.7511 10.1272 11.4322 10.1044Z" fill="#1F1E33"/>
<path d="M19.6085 8.39502C21.3852 8.39502 22.6266 9.62505 22.6266 11.4132C22.6266 13.2127 21.3624 14.4427 19.5629 14.4427H17.5926V17.5747H16.1689V8.39502H19.6085ZM17.5926 13.2468H19.2326C20.4741 13.2468 21.1802 12.5749 21.1802 11.4245C21.1802 10.2628 20.4741 9.60228 19.244 9.60228H17.604C17.5926 9.60228 17.5926 13.2468 17.5926 13.2468Z" fill="#1F1E33"/>
<path d="M22.9805 15.6718C22.9805 14.4987 23.8802 13.8154 25.5316 13.7242L27.3084 13.6217V13.1092C27.3084 12.3689 26.8186 11.9589 25.9417 11.9589C25.2241 11.9589 24.7002 12.3234 24.5977 12.8928H23.3108C23.3449 11.7084 24.4725 10.8428 25.9872 10.8428C27.6159 10.8428 28.6751 11.697 28.6751 13.0181V17.5852H27.3539V16.4804H27.3198C26.9439 17.1979 26.1125 17.6535 25.2241 17.6535C23.903 17.6421 22.9805 16.8563 22.9805 15.6718ZM27.3084 15.0796V14.567L25.7253 14.6695C24.8369 14.7265 24.3699 15.0568 24.3699 15.6376C24.3699 16.1957 24.8483 16.5602 25.6114 16.5602C26.5795 16.5602 27.3084 15.9451 27.3084 15.0796Z" fill="#1F1E33"/>
<path d="M29.8813 20.0344V18.9296C29.9724 18.941 30.1888 18.9524 30.3027 18.9524C30.9291 18.9524 31.2935 18.6904 31.5099 17.9957L31.6352 17.5857L29.2207 10.9116H30.7127L32.3869 16.3329H32.4211L34.0953 10.9116H35.5531L33.0475 17.9274C32.478 19.5332 31.8174 20.0685 30.428 20.0685C30.3255 20.0685 29.9838 20.0572 29.8813 20.0344Z" fill="#1F1E33"/>
</svg>
