<svg width="28" height="28" viewBox="0 0 28 28" fill="none" xmlns="http://www.w3.org/2000/svg">
<path d="M14.8347 24.5842V25.1504L15.3965 25.0804C20.9054 24.3934 25.168 19.6949 25.168 14.0001C25.168 7.8329 20.1685 2.83341 14.0013 2.83341C7.83412 2.83341 2.83464 7.8329 2.83464 14.0001C2.83464 19.6949 7.0972 24.3934 12.6061 25.0804L13.168 25.1504V24.5842V16.6667V16.1667H12.668H10.5013V14.5001H12.668H13.168V14.0001V11.7945C13.168 10.052 13.3491 9.4986 13.6432 8.94888L13.6432 8.94881C13.9451 8.38414 14.3853 7.94394 14.9501 7.64192C15.3716 7.41651 15.9243 7.26019 16.9955 7.19178C17.2998 7.17234 17.6889 7.18686 18.168 7.24021V8.83341H18.0013C17.3866 8.83341 16.932 8.8477 16.5868 8.88542C16.2423 8.92306 15.9681 8.98751 15.7361 9.1116L15.736 9.11165C15.4618 9.25832 15.2596 9.46057 15.1129 9.73476L15.1128 9.73485C14.8839 10.1629 14.8347 10.5871 14.8347 11.7945V14.0001V14.5001H15.3347H18.0276L17.6109 16.1667H15.3347H14.8347V16.6667V24.5842ZM14.0013 26.8334C6.91365 26.8334 1.16797 21.0877 1.16797 14.0001C1.16797 6.91242 6.91365 1.16675 14.0013 1.16675C21.0889 1.16675 26.8347 6.91243 26.8347 14.0001C26.8347 21.0877 21.0889 26.8334 14.0013 26.8334Z" stroke="#F05075"/>
</svg>
