<svg width="303" height="341" viewBox="0 0 303 341" fill="none" xmlns="http://www.w3.org/2000/svg">
<path d="M153.061 255.872L153.062 255.874L153.064 255.886L153.077 255.939C153.088 255.987 153.106 256.061 153.13 256.158C153.177 256.353 153.249 256.642 153.345 257.012C153.537 257.753 153.826 258.819 154.21 260.106C154.978 262.684 156.121 266.123 157.619 269.6C159.125 273.092 160.952 276.534 163.062 279.172C164.885 281.451 166.766 282.942 168.667 283.526C168.916 283.219 169.22 282.813 169.547 282.309C170.443 280.923 171.513 278.79 172.114 275.872C173.3 270.11 172.719 260.971 164.714 248.107C164.687 248.076 164.655 248.041 164.62 248.001C164.475 247.84 164.27 247.607 164.016 247.304C163.508 246.7 162.801 245.82 161.987 244.696C160.361 242.452 158.292 239.215 156.523 235.238C152.987 227.288 150.589 216.234 155.519 204.29L157.364 199.821L159.215 204.286L159.215 204.286L159.215 204.286L159.216 204.287L159.218 204.292L159.231 204.324C159.238 204.34 159.247 204.361 159.258 204.387C159.268 204.409 159.278 204.434 159.291 204.462C159.345 204.586 159.428 204.773 159.539 205.014C159.762 205.496 160.096 206.193 160.535 207.031C161.415 208.714 162.705 210.944 164.349 213.164C166.523 216.098 169.131 218.766 172.056 220.306C172.042 220.286 172.028 220.265 172.014 220.245C169.946 217.262 167.413 213.01 165.603 207.973C161.961 197.835 161.244 184.394 173.16 172.014L177.962 167.025L176.56 173.801L176.56 173.802L176.56 173.804L176.559 173.806L176.559 173.808C176.557 173.817 176.554 173.834 176.549 173.859C176.54 173.91 176.526 173.992 176.508 174.106C176.473 174.332 176.425 174.682 176.379 175.143C176.288 176.066 176.208 177.432 176.261 179.153C176.369 182.594 177.012 187.444 179.175 192.993C183.475 204.023 193.885 218.085 218.698 229.319C218.751 229.338 218.82 229.363 218.905 229.394C219.094 229.464 219.359 229.568 219.692 229.71C220.357 229.995 221.292 230.432 222.421 231.063C224.679 232.324 227.714 234.359 230.913 237.481C236.215 242.657 241.905 250.761 245.277 263.136C245.359 262.492 245.428 261.818 245.479 261.115C245.915 255.05 244.982 246.887 239.462 238.472L242.571 235.984L241.134 237.375C242.571 235.984 242.571 235.985 242.572 235.985L242.574 235.987L242.578 235.992L242.593 236.007L242.645 236.061C242.672 236.09 242.707 236.128 242.749 236.173C242.774 236.199 242.802 236.229 242.831 236.261C242.992 236.434 243.222 236.686 243.511 237.014C244.089 237.669 244.903 238.625 245.866 239.848C247.789 242.292 250.314 245.813 252.727 250.133C256.794 257.414 260.622 267.108 260.576 277.804C271.643 264.839 276.951 251.684 278.637 239.137C280.511 225.183 277.92 211.852 273.578 200.226C269.942 190.49 265.094 181.996 260.679 175.404C263.834 185.063 264.371 194.03 263.846 201.379C263.435 207.143 262.37 211.915 261.404 215.255C260.921 216.927 260.461 218.243 260.119 219.15C259.948 219.603 259.806 219.955 259.704 220.197C259.654 220.319 259.613 220.413 259.584 220.479C259.57 220.512 259.558 220.538 259.55 220.557L259.54 220.58L259.536 220.588L259.535 220.59C259.535 220.591 259.534 220.592 257.714 219.763L259.534 220.592L256.786 226.624L255.739 220.079C251.107 191.13 239.446 173.742 229.063 163.607C223.861 158.529 218.956 155.249 215.374 153.247C213.583 152.245 212.124 151.564 211.125 151.136C210.625 150.923 210.241 150.773 209.988 150.678C209.861 150.631 209.768 150.598 209.709 150.577C209.686 150.57 209.669 150.564 209.657 150.56L209.647 150.556L209.639 150.554L209.637 150.553L209.636 150.553L209.636 150.553L209.534 150.52L209.433 150.474C164.801 130.298 145.437 104.682 137.324 83.8784C133.279 73.5052 132.059 64.3958 131.854 57.8583C131.804 56.279 131.814 54.8494 131.858 53.5877C117.106 71.9534 118.449 91.1025 123.879 106.227C126.832 114.452 130.992 121.455 134.426 126.412C136.14 128.886 137.667 130.841 138.761 132.172C139.307 132.837 139.745 133.346 140.043 133.685C140.192 133.855 140.306 133.982 140.382 134.065C140.396 134.081 140.409 134.095 140.42 134.108C140.439 134.128 140.454 134.144 140.465 134.156L140.484 134.177L140.487 134.18L140.487 134.181L140.488 134.181L143.63 137.552L139.021 137.544C127.387 137.525 118.187 128.654 112.104 120.438C109.012 116.263 106.61 112.101 104.981 108.989C104.828 108.696 104.682 108.413 104.542 108.139C98.8988 125.495 102.509 141.484 107.87 153.523C110.775 160.045 114.18 165.372 116.859 169.065C118.197 170.91 119.35 172.344 120.164 173.31C120.571 173.793 120.892 174.159 121.109 174.401C121.176 174.475 121.232 174.537 121.278 174.588C121.308 174.62 121.333 174.648 121.354 174.671C121.381 174.7 121.4 174.721 121.413 174.734L121.425 174.747L121.427 174.749L153.061 255.872ZM153.061 255.872L153.061 255.871L153.061 255.871C153.061 255.871 153.061 255.871 153.06 255.872L149.179 255.805C144.546 273.209 144.474 286.764 147.458 297.305C149.628 304.97 153.393 310.96 158.065 315.619C139.429 312.163 119.285 304.485 105.6 288.287C91.0567 271.074 83.452 243.799 93.443 200.512C93.47 200.603 93.4972 200.695 93.5247 200.787C94.9073 205.424 96.974 211.653 99.7058 217.991C102.431 224.312 105.855 230.829 109.981 235.987C114.082 241.113 119.087 245.157 125.022 246.002L125.949 246.134L126.644 245.507L125.304 244.022C126.644 245.507 126.645 245.506 126.646 245.505L126.65 245.502L126.658 245.494L126.681 245.474C126.698 245.457 126.722 245.435 126.751 245.408C126.808 245.353 126.887 245.277 126.984 245.179C127.178 244.983 127.447 244.7 127.772 244.329C128.421 243.588 129.295 242.494 130.238 241.038C132.125 238.126 134.292 233.767 135.5 227.91C137.925 216.144 136.42 198.65 121.67 175.064L121.564 174.894L121.427 174.75L153.061 255.872Z" fill="#FA5856" stroke="white" stroke-width="4"/>
<mask id="path-2-inside-1_128_2491" fill="white">
<path d="M73.3688 172.594C73.3739 172.596 73.3759 172.592 73.3771 172.597C73.4188 172.779 84.3832 220.349 104.841 223.948C105.134 224 105.421 223.917 105.628 223.705C108.371 220.9 126.983 199.383 100.029 156.211C99.9937 156.155 99.9685 156.118 99.9232 156.069C98.5366 154.575 69.597 122.773 83.4289 85.2449C83.7372 84.4085 84.9266 84.3707 85.3097 85.1755C88.6375 92.1648 100.108 113.538 116.722 115.412C117.591 115.511 118.097 114.503 117.537 113.831C110.373 105.233 81.0024 65.8004 112.08 30.2086C112.74 29.4533 114.093 30.0314 114.01 31.0307C112.893 44.3931 114.268 94.2795 190.206 128.628C190.239 128.643 190.248 128.648 190.283 128.66C191.367 129.024 227.039 141.4 237.148 196.469C237.327 197.443 238.562 197.612 238.873 196.671C241.28 189.389 245.81 170.148 235.893 148.689C235.384 147.588 236.777 146.571 237.512 147.536C251.947 166.474 281.317 215.621 240.32 261.128C239.67 261.851 238.424 261.318 238.487 260.348C239.413 246.24 232.947 233.557 227.646 225.688C226.968 224.682 225.354 225.718 225.73 226.872C228.79 236.266 227.382 244.471 226.177 248.738C225.908 249.691 224.707 249.566 224.511 248.595C218.475 218.614 199.053 211.556 198.005 211.196C197.97 211.184 197.942 211.172 197.909 211.157C156.955 192.631 153.938 166.193 154.265 156.84C154.3 155.838 152.93 155.224 152.3 156.003C136.838 175.128 150.922 195.86 155.747 201.922C156.293 202.607 155.795 203.619 154.936 203.45C146.587 201.813 140.662 191.747 138.392 187.236C137.991 186.44 136.804 186.474 136.52 187.319C129.529 208.105 145.127 225.6 146.249 226.822C146.294 226.87 146.332 226.92 146.367 226.977C161.338 250.981 151.662 263.278 149.693 265.395C149.491 265.612 149.194 265.706 148.903 265.647C140.071 263.876 134.366 247.764 132.153 240.203C131.86 239.202 130.368 239.226 130.13 240.242C123.302 269.413 130.212 286.392 141.658 296.22C142.452 296.902 141.873 298.3 140.84 298.132C100.091 291.503 48.656 265.488 73.348 172.605C73.3504 172.596 73.3601 172.591 73.3688 172.594Z"/>
</mask>
<path d="M73.3688 172.594C73.3739 172.596 73.3759 172.592 73.3771 172.597C73.4188 172.779 84.3832 220.349 104.841 223.948C105.134 224 105.421 223.917 105.628 223.705C108.371 220.9 126.983 199.383 100.029 156.211C99.9937 156.155 99.9685 156.118 99.9232 156.069C98.5366 154.575 69.597 122.773 83.4289 85.2449C83.7372 84.4085 84.9266 84.3707 85.3097 85.1755C88.6375 92.1648 100.108 113.538 116.722 115.412C117.591 115.511 118.097 114.503 117.537 113.831C110.373 105.233 81.0024 65.8004 112.08 30.2086C112.74 29.4533 114.093 30.0314 114.01 31.0307C112.893 44.3931 114.268 94.2795 190.206 128.628C190.239 128.643 190.248 128.648 190.283 128.66C191.367 129.024 227.039 141.4 237.148 196.469C237.327 197.443 238.562 197.612 238.873 196.671C241.28 189.389 245.81 170.148 235.893 148.689C235.384 147.588 236.777 146.571 237.512 147.536C251.947 166.474 281.317 215.621 240.32 261.128C239.67 261.851 238.424 261.318 238.487 260.348C239.413 246.24 232.947 233.557 227.646 225.688C226.968 224.682 225.354 225.718 225.73 226.872C228.79 236.266 227.382 244.471 226.177 248.738C225.908 249.691 224.707 249.566 224.511 248.595C218.475 218.614 199.053 211.556 198.005 211.196C197.97 211.184 197.942 211.172 197.909 211.157C156.955 192.631 153.938 166.193 154.265 156.84C154.3 155.838 152.93 155.224 152.3 156.003C136.838 175.128 150.922 195.86 155.747 201.922C156.293 202.607 155.795 203.619 154.936 203.45C146.587 201.813 140.662 191.747 138.392 187.236C137.991 186.44 136.804 186.474 136.52 187.319C129.529 208.105 145.127 225.6 146.249 226.822C146.294 226.87 146.332 226.92 146.367 226.977C161.338 250.981 151.662 263.278 149.693 265.395C149.491 265.612 149.194 265.706 148.903 265.647C140.071 263.876 134.366 247.764 132.153 240.203C131.86 239.202 130.368 239.226 130.13 240.242C123.302 269.413 130.212 286.392 141.658 296.22C142.452 296.902 141.873 298.3 140.84 298.132C100.091 291.503 48.656 265.488 73.348 172.605C73.3504 172.596 73.3601 172.591 73.3688 172.594Z" fill="url(#paint0_linear_128_2491)"/>
<path d="M73.348 172.605L69.4823 171.577L73.348 172.605ZM141.658 296.22L139.052 299.255L141.658 296.22ZM140.84 298.132L140.197 302.08L140.84 298.132ZM132.153 240.203L128.314 241.327L132.153 240.203ZM130.13 240.242L126.235 239.33L130.13 240.242ZM149.693 265.395L146.765 262.669L149.693 265.395ZM148.903 265.647L149.689 261.725L148.903 265.647ZM146.249 226.822L149.196 224.116L146.249 226.822ZM146.367 226.977L142.973 229.093L146.367 226.977ZM138.392 187.236L134.819 189.035L138.392 187.236ZM136.52 187.319L132.729 186.044L136.52 187.319ZM155.747 201.922L152.618 204.413L155.747 201.922ZM154.936 203.45L155.706 199.525L154.936 203.45ZM154.265 156.84L158.263 156.98L154.265 156.84ZM152.3 156.003L149.189 153.489L152.3 156.003ZM198.005 211.196L196.704 214.978L198.005 211.196ZM197.909 211.157L196.26 214.802L197.909 211.157ZM226.177 248.738L222.328 247.651L226.177 248.738ZM224.511 248.595L228.432 247.806L224.511 248.595ZM227.646 225.688L224.329 227.923L227.646 225.688ZM225.73 226.872L229.533 225.633L225.73 226.872ZM240.32 261.128L237.349 258.451L240.32 261.128ZM238.487 260.348L234.496 260.086L238.487 260.348ZM235.893 148.689L232.262 150.367L235.893 148.689ZM237.512 147.536L240.694 145.111L237.512 147.536ZM237.148 196.469L233.214 197.191L237.148 196.469ZM238.873 196.671L242.671 197.926L238.873 196.671ZM190.206 128.628L188.557 132.273L190.206 128.628ZM190.283 128.66L191.556 124.868L190.283 128.66ZM112.08 30.2086L115.093 32.8395L112.08 30.2086ZM114.01 31.0307L110.024 30.6974L114.01 31.0307ZM116.722 115.412L116.274 119.387L116.722 115.412ZM117.537 113.831L114.464 116.391L117.537 113.831ZM83.4289 85.2449L87.1821 86.6282L83.4289 85.2449ZM85.3097 85.1755L81.6982 86.895L85.3097 85.1755ZM100.029 156.211L103.422 154.093L100.029 156.211ZM99.9232 156.069L96.9915 158.79L99.9232 156.069ZM104.841 223.948L104.148 227.888L104.841 223.948ZM105.628 223.705L102.768 220.909L105.628 223.705ZM73.3771 172.597L69.4789 173.494L73.3771 172.597ZM69.4789 173.494C69.5176 173.662 72.3322 185.874 77.777 198.568C80.4951 204.905 83.9461 211.548 88.1554 216.904C92.3132 222.193 97.616 226.739 104.148 227.888L105.535 220.009C101.838 219.358 98.0982 216.608 94.445 211.96C90.8433 207.378 87.7147 201.442 85.1292 195.414C82.5569 189.417 80.5929 183.496 79.2674 179.049C77.944 174.608 77.2719 171.686 77.2752 171.7L69.4789 173.494ZM108.488 226.502C110.257 224.693 116.139 217.875 117.923 205.674C119.714 193.423 117.29 176.306 103.422 154.093L96.6359 158.33C109.721 179.288 111.469 194.515 110.007 204.517C108.537 214.569 103.742 219.913 102.768 220.909L108.488 226.502ZM102.855 153.348C102.313 152.765 95.0553 144.813 89.6267 132.551C84.2096 120.314 80.7416 104.103 87.1821 86.6282L79.6757 83.8616C72.2844 103.916 76.3702 122.369 82.3115 135.789C88.2414 149.184 96.1464 157.88 96.9915 158.79L102.855 153.348ZM81.6982 86.895C83.4273 90.5266 87.2936 97.9522 92.9571 104.768C98.5356 111.482 106.414 118.275 116.274 119.387L117.171 111.438C110.417 110.676 104.253 105.844 99.1102 99.6557C94.053 93.5692 90.52 86.8137 88.9213 83.4559L81.6982 86.895ZM120.61 111.27C117.17 107.142 108.446 95.6449 104.317 81.0532C100.241 66.6531 100.643 49.3891 115.093 32.8395L109.067 27.5777C92.44 46.62 91.9877 66.8682 96.6189 83.2318C101.196 99.4038 110.739 111.922 114.464 116.391L120.61 111.27ZM110.024 30.6974C109.421 37.9107 109.528 54.535 119.672 73.8216C129.84 93.1545 149.897 114.786 188.557 132.273L191.854 124.984C154.577 108.122 135.977 87.6356 126.752 70.0976C117.504 52.5132 117.482 37.5131 117.996 31.3639L110.024 30.6974ZM189.009 132.452C189.253 132.534 223.456 144.036 233.214 197.191L241.083 195.747C230.622 138.763 193.481 125.515 191.556 124.868L189.009 132.452ZM242.671 197.926C245.238 190.159 250.039 169.765 239.524 147.011L232.262 150.367C241.581 170.532 237.322 188.619 235.075 195.416L242.671 197.926ZM234.331 149.961C241.385 159.214 251.927 175.664 255.779 195.145C259.589 214.415 256.897 236.752 237.349 258.451L243.292 263.806C264.741 239.998 267.861 215.008 263.627 193.593C259.435 172.389 248.075 154.795 240.694 145.111L234.331 149.961ZM242.479 260.61C243.49 245.192 236.451 231.6 230.964 223.453L224.329 227.923C229.442 235.514 235.335 247.288 234.496 260.086L242.479 260.61ZM221.926 228.111C224.66 236.501 223.402 243.845 222.328 247.651L230.027 249.824C231.362 245.097 232.921 236.032 229.533 225.633L221.926 228.111ZM228.432 247.806C222.023 215.972 201.183 208.059 199.306 207.413L196.704 214.978C196.923 215.054 214.927 221.257 220.59 249.385L228.432 247.806ZM199.557 207.513C179.727 198.542 169.425 187.825 164.07 178.557C158.699 169.262 158.119 161.1 158.263 156.98L150.267 156.701C150.085 161.933 150.849 171.667 157.143 182.56C163.453 193.481 175.137 205.246 196.26 214.802L199.557 207.513ZM149.189 153.489C140.486 164.254 140.109 175.608 142.547 184.879C144.943 193.986 150.056 201.195 152.618 204.413L158.877 199.431C156.613 196.587 152.271 190.399 150.284 182.844C148.34 175.452 148.652 166.878 155.41 158.518L149.189 153.489ZM155.706 199.525C152.831 198.961 150 196.833 147.425 193.822C144.909 190.879 143.028 187.55 141.965 185.438L134.819 189.035C136.027 191.434 138.243 195.393 141.344 199.02C144.387 202.579 148.692 206.302 154.166 207.376L155.706 199.525ZM132.729 186.044C128.811 197.692 131.267 208.336 134.687 216.031C138.098 223.707 142.59 228.751 143.303 229.527L149.196 224.116C148.786 223.671 144.919 219.356 141.998 212.783C139.085 206.229 137.238 197.732 140.311 188.594L132.729 186.044ZM142.973 229.093C150.079 240.487 151.071 248.65 150.414 253.896C149.752 259.18 147.352 262.039 146.765 262.669L152.621 268.12C154.004 266.634 157.426 262.286 158.352 254.89C159.282 247.458 157.626 237.47 149.761 224.86L142.973 229.093ZM149.689 261.725C148.555 261.498 147.23 260.745 145.75 259.211C144.28 257.687 142.87 255.61 141.565 253.195C138.955 248.364 137.068 242.756 135.992 239.08L128.314 241.327C129.451 245.211 131.524 251.44 134.527 256.998C136.029 259.777 137.84 262.533 139.992 264.765C142.135 266.986 144.835 268.911 148.117 269.569L149.689 261.725ZM126.235 239.33C119.169 269.517 126.169 288.194 139.052 299.255L144.263 293.185C134.254 284.591 127.435 269.308 134.025 241.154L126.235 239.33ZM141.482 294.184C121.529 290.938 99.6643 283.038 85.7004 265.244C71.8685 247.619 65.0651 219.332 77.2137 173.633L69.4823 171.577C56.939 218.761 63.5071 249.923 79.407 270.183C95.1747 290.275 119.402 298.697 140.197 302.08L141.482 294.184ZM77.2137 173.633C76.6576 175.725 74.3704 177.202 72.0194 176.359L74.7182 168.828C72.3497 167.979 70.0432 169.467 69.4823 171.577L77.2137 173.633ZM139.052 299.255C137.894 298.26 137.877 296.821 138.249 295.939C138.635 295.024 139.807 293.911 141.482 294.184L140.197 302.08C142.906 302.52 144.884 300.792 145.619 299.05C146.341 297.341 146.216 294.862 144.263 293.185L139.052 299.255ZM135.992 239.08C135.251 236.549 132.958 235.433 131.05 235.467C129.13 235.501 126.847 236.719 126.235 239.33L134.025 241.154C133.651 242.749 132.233 243.447 131.192 243.466C130.162 243.484 128.762 242.857 128.314 241.327L135.992 239.08ZM146.765 262.669C147.522 261.856 148.636 261.514 149.689 261.725L148.117 269.569C149.751 269.897 151.46 269.367 152.621 268.12L146.765 262.669ZM143.303 229.527C143.171 229.383 143.061 229.234 142.973 229.093L149.761 224.86C149.603 224.606 149.417 224.357 149.196 224.116L143.303 229.527ZM141.965 185.438C140.987 183.496 139.038 182.597 137.26 182.665C135.446 182.734 133.47 183.839 132.729 186.044L140.311 188.594C139.854 189.953 138.613 190.619 137.564 190.659C136.551 190.698 135.396 190.181 134.819 189.035L141.965 185.438ZM152.618 204.413C151.869 203.472 151.786 202.196 152.313 201.174C152.886 200.06 154.227 199.235 155.706 199.525L154.166 207.376C156.504 207.834 158.523 206.587 159.424 204.838C160.278 203.181 160.171 201.057 158.877 199.431L152.618 204.413ZM158.263 156.98C158.35 154.477 156.692 152.766 155.128 152.086C153.536 151.393 150.931 151.334 149.189 153.489L155.41 158.518C154.299 159.893 152.694 159.751 151.936 159.421C151.206 159.104 150.215 158.201 150.267 156.701L158.263 156.98ZM199.306 207.413C199.345 207.426 199.392 207.444 199.443 207.464C199.494 207.485 199.534 207.502 199.557 207.513L196.26 214.802C196.393 214.862 196.537 214.921 196.704 214.978L199.306 207.413ZM222.328 247.651C222.486 247.092 222.862 246.448 223.542 245.974C224.204 245.512 224.975 245.339 225.687 245.405C227.174 245.543 228.199 246.646 228.432 247.806L220.59 249.385C221.019 251.515 222.743 253.166 224.946 253.371C227.28 253.588 229.383 252.105 230.027 249.824L222.328 247.651ZM230.964 223.453C230.143 222.235 228.865 221.466 227.442 221.31C226.138 221.167 224.992 221.563 224.164 222.084C222.612 223.06 221.024 225.34 221.926 228.111L229.533 225.633C230.06 227.25 229.091 228.435 228.422 228.856C228.035 229.1 227.396 229.353 226.573 229.263C225.632 229.16 224.81 228.638 224.329 227.923L230.964 223.453ZM237.349 258.451C238.35 257.339 239.784 257.301 240.705 257.693C241.622 258.084 242.575 259.134 242.479 260.61L234.496 260.086C234.188 264.784 240.062 267.392 243.292 263.806L237.349 258.451ZM239.524 147.011C240.171 148.413 239.554 149.878 238.575 150.583C238.083 150.937 237.351 151.223 236.471 151.134C235.511 151.036 234.763 150.528 234.331 149.961L240.694 145.111C239.894 144.062 238.696 143.319 237.284 143.175C235.952 143.039 234.765 143.467 233.898 144.093C232.165 145.341 231.105 147.865 232.262 150.367L239.524 147.011ZM233.214 197.191C233.617 199.386 235.354 200.993 237.465 201.257C239.691 201.536 241.904 200.249 242.671 197.926L235.075 195.416C235.267 194.836 235.688 194.212 236.381 193.78C237.049 193.363 237.793 193.236 238.458 193.319C239.828 193.491 240.859 194.526 241.083 195.747L233.214 197.191ZM188.557 132.273C188.555 132.272 188.542 132.266 188.562 132.275C188.574 132.28 188.616 132.299 188.668 132.322C188.726 132.347 188.787 132.372 188.853 132.396C188.915 132.419 188.968 132.438 189.009 132.452L191.556 124.868C191.58 124.876 191.619 124.889 191.668 124.908C191.721 124.928 191.772 124.948 191.82 124.969C191.841 124.978 191.859 124.986 191.871 124.991C191.882 124.997 191.891 125 191.891 125.001C191.899 125.004 191.873 124.992 191.854 124.984L188.557 132.273ZM115.093 32.8395C114.036 34.0508 112.561 33.9848 111.755 33.6411C110.95 33.2981 109.891 32.2877 110.024 30.6974L117.996 31.3639C118.212 28.7744 116.518 26.9753 114.893 26.2823C113.266 25.5885 110.784 25.6111 109.067 27.5777L115.093 32.8395ZM116.274 119.387C121.044 119.926 123.271 114.463 120.61 111.27L114.464 116.391C112.923 114.542 114.139 111.096 117.171 111.438L116.274 119.387ZM87.1821 86.6282C86.2153 89.2513 82.7737 89.1538 81.6982 86.895L88.9213 83.4559C87.0795 79.5875 81.2591 79.5658 79.6757 83.8616L87.1821 86.6282ZM103.422 154.093C103.319 153.928 103.141 153.656 102.855 153.348L96.9915 158.79C96.9169 158.71 96.8345 158.612 96.7526 158.5C96.7155 158.45 96.6864 158.407 96.6666 158.377C96.6481 158.349 96.6361 158.33 96.6359 158.33L103.422 154.093ZM104.148 227.888C105.64 228.15 107.288 227.729 108.488 226.502L102.768 220.909C103.553 220.106 104.627 219.849 105.535 220.009L104.148 227.888ZM77.2752 171.7C77.2415 171.554 77.1727 171.29 77.0356 170.98C76.8967 170.665 76.6401 170.193 76.1769 169.739C75.6755 169.247 75.081 168.922 74.4756 168.749C73.9339 168.594 73.4874 168.591 73.2986 168.595C72.4848 168.61 73.8028 168.5 74.7182 168.828L72.0194 176.359C72.9399 176.689 74.2614 176.578 73.4502 176.593C73.262 176.597 72.8161 176.595 72.2749 176.44C71.6701 176.267 71.076 175.942 70.5751 175.45C70.1123 174.996 69.8561 174.525 69.7175 174.212C69.5808 173.902 69.5124 173.639 69.4789 173.494L77.2752 171.7Z" fill="#252F6C" mask="url(#path-2-inside-1_128_2491)"/>
<defs>
<linearGradient id="paint0_linear_128_2491" x1="192.137" y1="282.555" x2="90.5469" y2="37.5605" gradientUnits="userSpaceOnUse">
<stop stop-color="#F05075"/>
<stop offset="1" stop-color="#FCEE21"/>
</linearGradient>
</defs>
</svg>
