<svg width="553" height="724" viewBox="0 0 553 724" fill="none" xmlns="http://www.w3.org/2000/svg">
<path d="M402.533 512.959L403.84 511.446C402.533 512.959 402.531 512.958 402.529 512.957L402.525 512.953L402.513 512.942L402.474 512.908C402.441 512.879 402.397 512.839 402.34 512.787C402.227 512.684 402.067 512.535 401.865 512.339C401.461 511.948 400.889 511.371 400.19 510.605C398.793 509.072 396.89 506.78 394.813 503.7C390.659 497.54 385.815 488.231 382.959 475.558C377.235 450.165 379.555 411.578 410.755 358.149L410.854 357.979L410.984 357.832L410.985 357.831L410.986 357.83L410.993 357.822L411.026 357.784C411.056 357.75 411.102 357.697 411.164 357.625C411.207 357.576 411.257 357.517 411.315 357.449C411.423 357.323 411.556 357.165 411.714 356.977C412.197 356.401 412.906 355.538 413.798 354.405C415.582 352.141 418.098 348.799 421.003 344.515C426.816 335.944 434.177 323.618 440.369 308.609C452.329 279.618 459.873 240.76 443.666 199.566C442.826 201.485 441.709 203.942 440.325 206.784C436.913 213.789 431.867 223.159 425.333 232.594C412.366 251.319 393.098 270.936 368.663 271.809L364.053 271.973L367.084 268.496L367.086 268.493L367.096 268.481L367.143 268.427C367.185 268.378 367.249 268.303 367.334 268.203C367.504 268.002 367.758 267.699 368.088 267.299C368.746 266.497 369.706 265.305 370.899 263.752C373.286 260.647 376.606 256.103 380.317 250.373C387.745 238.906 396.718 222.725 402.943 203.835C414.947 167.413 416.729 121.062 377.608 78.7485C378.07 82.7143 378.505 88.4143 378.431 95.5184C378.282 109.92 376.044 130.099 367.708 153.296C351.016 199.746 309.969 258.036 212.926 306.272L212.827 306.321L212.725 306.359L212.724 306.359L212.723 306.359L212.718 306.361L212.682 306.374C212.649 306.387 212.596 306.407 212.523 306.436C212.458 306.461 212.378 306.493 212.284 306.531C212.166 306.578 212.025 306.635 211.863 306.703C211.275 306.947 210.399 307.326 209.271 307.859C207.014 308.923 203.749 310.598 199.763 313.022C191.793 317.868 180.946 325.705 169.53 337.635C146.717 361.475 121.546 401.746 112.582 467.393L111.676 474.024L108.795 467.984L110.6 467.123C108.795 467.984 108.794 467.983 108.794 467.981L108.792 467.978L108.786 467.965L108.766 467.923C108.749 467.887 108.725 467.835 108.695 467.768C108.633 467.634 108.545 467.439 108.433 467.184C108.209 466.673 107.891 465.924 107.503 464.95C106.728 463.002 105.676 460.153 104.555 456.519C102.311 449.251 99.7844 438.83 98.6301 426.17C96.7411 405.454 98.5299 378.74 111.249 350.079C109.417 352.618 107.46 355.415 105.422 358.45C94.6323 374.516 81.57 397.224 72.4287 423.835C54.585 475.779 51.6864 542.468 109.777 603.917C107.273 577.965 115.757 553.797 125.119 535.813C130.171 526.11 135.503 518.157 139.575 512.627C141.612 509.86 143.336 507.697 144.554 506.221C145.163 505.482 145.647 504.916 145.98 504.531C146.146 504.339 146.275 504.192 146.364 504.092C146.408 504.042 146.442 504.004 146.466 503.977L146.494 503.946L146.502 503.938L146.504 503.935C146.505 503.934 146.505 503.934 147.988 505.275L146.505 503.934L149.694 506.321C137.553 526.127 135.81 545.035 137.09 558.996C137.678 565.411 138.905 570.78 140.057 574.703C146.081 540.988 159.677 519.594 172.246 506.46C178.988 499.414 185.414 494.767 190.177 491.873C192.558 490.426 194.524 489.417 195.907 488.765C196.599 488.439 197.145 488.203 197.525 488.045C197.714 487.966 197.863 487.907 197.967 487.867C197.989 487.858 198.01 487.85 198.029 487.843C252.83 460.59 275.673 427.857 284.908 402.149C289.538 389.26 290.772 378.072 290.853 370.128C290.893 366.156 290.646 362.997 290.391 360.845C290.264 359.768 290.135 358.945 290.039 358.397C289.991 358.124 289.952 357.919 289.926 357.787C289.912 357.721 289.902 357.673 289.896 357.643L289.889 357.612L289.889 357.61L289.888 357.608L288.367 350.878L293.252 355.753C319.279 381.724 318.355 410.764 310.992 433.086C307.319 444.219 302.043 453.72 297.696 460.427C295.919 463.169 294.293 465.451 292.988 467.194C303.264 464.767 311.85 455.971 318.237 446.752C321.858 441.526 324.666 436.317 326.57 432.409C327.52 430.457 328.243 428.836 328.726 427.707C328.967 427.143 329.149 426.702 329.269 426.404C329.329 426.255 329.374 426.143 329.403 426.069L329.435 425.986L329.442 425.968L329.444 425.964L329.444 425.963L331.197 421.388L333.146 425.884C344.216 451.412 339.615 475.57 332.341 493.222C328.703 502.051 324.382 509.292 320.97 514.328C319.263 516.847 317.781 518.819 316.72 520.167C316.189 520.841 315.764 521.359 315.469 521.712C315.324 521.885 315.211 522.018 315.131 522.11C297.693 552.037 296.623 573.248 299.678 586.819C301.214 593.641 303.808 598.611 305.994 601.857C307.087 603.48 308.079 604.673 308.785 605.448C308.929 605.607 309.061 605.748 309.179 605.871C314.597 604.549 319.572 600.381 324.054 594.391C328.779 588.076 332.751 580.008 335.951 571.982C339.145 563.973 341.537 556.093 343.131 550.208C343.927 547.268 344.523 544.832 344.919 543.134C345.117 542.285 345.265 541.621 345.363 541.171C345.387 541.063 345.407 540.967 345.425 540.884C345.444 540.794 345.46 540.72 345.473 540.66L345.499 540.532L345.506 540.502L345.507 540.494L345.508 540.493L349.39 540.345C360.331 578.645 361.032 608.487 355.077 631.726C349.913 651.877 339.771 666.952 327.16 678.192C370.561 669.712 419.274 650.924 451.206 610.521C484.127 568.864 499.563 503.768 472.133 402.047C471.485 404.718 470.656 407.996 469.644 411.73C466.823 422.147 462.579 436.137 456.891 450.399C451.209 464.644 444.052 479.249 435.376 490.841C426.728 502.398 416.362 511.237 404.193 513.415L403.254 513.583L402.533 512.959Z" fill="#FA5856" stroke="white" stroke-width="4"/>
<path d="M123.628 484.756C118.721 472.354 103.146 424.771 127.436 370.042C113.345 389.573 91.9619 424.241 82.3121 465.63C71.115 513.657 75.7029 570.714 125.964 623.879C122.105 583.88 144.341 548.067 155.869 532.445C156.342 531.804 157.03 531.362 157.835 531.252C158.606 531.147 159.322 531.369 159.868 531.742C160.975 532.497 161.597 534.039 160.889 535.559C149.116 560.83 152.977 583.543 156.245 594.666C168.447 526.363 211.665 508.786 214.216 507.805C262.22 483.933 285.693 455.859 296.982 432.007C308.288 408.122 307.467 388.279 306.574 380.772C306.391 379.235 307.356 378.103 308.357 377.633C309.36 377.162 310.858 377.142 311.921 378.288L310.454 379.648L311.921 378.288C333.385 401.422 334.313 426.715 328.861 447.384C324.032 465.691 314.194 480.451 309.175 487.158C318.135 485.044 325.827 478.075 331.908 470.165C338.518 461.568 342.932 452.239 344.734 448.086C345.821 445.579 349.337 445.751 350.305 448.184C360.094 472.784 355.603 495.951 348.585 513.048C341.777 529.632 332.531 540.665 331.319 542.073C314.981 570.111 313.013 590.494 315.337 604.105C317.487 616.706 323.357 623.74 325.367 625.834C330.001 624.704 334.319 621.489 338.293 616.803C342.418 611.94 346.03 605.659 349.112 598.998C355.274 585.681 359.164 571.182 360.807 564.362C361.182 562.8 362.551 562.068 363.741 562.066C364.924 562.065 366.277 562.779 366.689 564.3C376.369 599.988 376.99 628.16 371.589 650.386C366.535 671.184 356.234 686.669 343.348 698.155C387.428 689.542 436.97 670.3 468.861 628.595C500.765 586.873 515.34 522.212 488.321 422.01C485.868 432.117 480.821 450.92 473.132 470.225C467.49 484.394 460.387 498.928 451.784 510.509C443.207 522.054 432.934 530.937 420.879 533.284C420.087 533.438 419.123 533.31 418.342 532.578C415.981 530.364 403.142 517.345 398.421 491.991C393.694 466.612 397.154 429.165 426.882 378.214L426.886 378.207C426.894 378.193 426.907 378.169 426.924 378.139C426.931 378.127 426.939 378.115 426.946 378.103C426.98 378.047 427.019 377.989 427.063 377.93C427.112 377.865 427.156 377.812 427.188 377.776C427.801 377.078 444.471 357.934 456.612 328.436C468.54 299.458 476.034 260.656 459.853 219.529C456.584 227 449.089 242.678 437.952 257.507C425.614 273.935 408.462 289.778 387.264 291.623C384.871 291.832 382.835 289.035 384.65 286.802L386.202 288.064L384.65 286.802C390.277 279.881 411.372 252.292 421.377 216.415C431.186 181.243 430.327 138.222 393.795 98.711C395.369 112.21 396.625 145.831 378.577 186.515C359.078 230.473 317.134 282.467 229.185 326.199C229.181 326.201 229.176 326.204 229.171 326.207C229.148 326.219 229.124 326.23 229.1 326.242C229.074 326.255 229.046 326.267 229.018 326.279C228.971 326.299 228.931 326.314 228.908 326.323C228.233 326.573 147.959 356.564 129.243 484.011C129.041 485.385 128.006 486.342 126.809 486.554C125.558 486.776 124.185 486.162 123.628 484.756ZM214.132 507.848L214.133 507.847C214.128 507.85 214.126 507.85 214.132 507.848ZM488.696 415.878C488.511 415.93 488.319 415.954 488.186 415.965C488.292 415.961 488.478 415.945 488.696 415.878ZM426.878 378.223L426.88 378.219C426.877 378.223 426.876 378.227 426.875 378.228L426.878 378.223ZM229.164 326.209C229.167 326.208 229.169 326.207 229.171 326.206C229.169 326.207 229.167 326.208 229.165 326.209L229.164 326.209ZM229.203 326.189C229.205 326.189 229.206 326.188 229.207 326.187L229.208 326.187C229.207 326.187 229.205 326.188 229.203 326.189Z" fill="url(#paint0_linear_128_2224)" stroke="#252F6C" stroke-width="4"/>
<defs>
<linearGradient id="paint0_linear_128_2224" x1="231.143" y1="668.868" x2="444.026" y2="113.184" gradientUnits="userSpaceOnUse">
<stop stop-color="#F05075"/>
<stop offset="1" stop-color="#FCEE21"/>
</linearGradient>
</defs>
</svg>
