<svg width="51" height="21" viewBox="0 0 51 21" fill="none" xmlns="http://www.w3.org/2000/svg">
<path d="M24.4063 10.2734V16.0621H22.5713V1.77182H27.4375C28.6112 1.74923 29.7397 2.19316 30.5944 3.01396C31.4491 3.7776 31.9276 4.88282 31.905 6.02263C31.9276 7.17373 31.4491 8.27896 30.5944 9.05389C29.7397 9.8627 28.6917 10.2734 27.4495 10.2734H24.407H24.4063ZM24.4063 3.52705V8.51821H27.4834C28.1673 8.5408 28.8279 8.26767 29.2951 7.77716C30.2634 6.84273 30.2754 5.30417 29.341 4.33586L29.2951 4.28998C28.8279 3.78889 28.1673 3.51505 27.4834 3.53764L24.4063 3.52635V3.52705ZM36.1325 5.96547C37.4883 5.96547 38.5597 6.33035 39.3459 7.04811C40.1321 7.77716 40.5196 8.76876 40.5196 10.0335V16.0501H38.7643V14.6944H38.6846C37.9209 15.8109 36.9181 16.3698 35.6533 16.3698C34.582 16.3698 33.6708 16.0508 32.9524 15.4128C32.2459 14.82 31.8471 13.9427 31.8697 13.0196C31.8697 12.0054 32.2572 11.2079 33.0208 10.6037C33.7845 9.99961 34.8099 9.70319 36.086 9.70319C37.1799 9.70319 38.0685 9.90857 38.7756 10.296V9.87469C38.7756 9.24798 38.5018 8.65513 38.0233 8.25638C37.5335 7.82304 36.9068 7.58378 36.2568 7.58378C35.2313 7.58378 34.4218 8.01712 33.8183 8.8831L32.2 7.86891C33.0773 6.60418 34.3879 5.96617 36.1318 5.96617L36.1325 5.96547ZM33.7619 13.0647C33.7619 13.5433 33.9898 13.9879 34.366 14.261C34.7761 14.58 35.2779 14.7508 35.7902 14.7395C36.5652 14.7395 37.3055 14.4318 37.8532 13.8848C38.4573 13.3153 38.765 12.6427 38.765 11.8678C38.1955 11.4118 37.3973 11.1839 36.3718 11.1839C35.6307 11.1839 35.004 11.366 34.5029 11.7196C34.0131 12.0844 33.7619 12.5284 33.7619 13.064V13.0647ZM50.5929 6.28447L44.462 20.3694H42.5705L44.8494 15.4467L40.8153 6.29576H42.8098L45.7154 13.3153H45.7613L48.5985 6.29576L50.5929 6.28447Z" fill="#60646A"/>
<path d="M16.9894 9.01847C16.9894 8.46021 16.9436 7.90195 16.8525 7.35498H9.11523V10.5119H13.5481C13.366 11.526 12.7732 12.4379 11.9072 13.0074V15.0584H14.551C16.1009 13.6342 16.9894 11.526 16.9894 9.01847Z" fill="#517CBE"/>
<path d="M9.1124 17.042C11.3228 17.042 13.1917 16.3129 14.5482 15.0595L11.9044 13.0086C11.1633 13.5097 10.2176 13.7948 9.1124 13.7948C6.9697 13.7948 5.158 12.3473 4.5087 10.4106H1.78516V12.5301C3.17551 15.2875 6.01268 17.0427 9.1124 17.0427V17.042Z" fill="#32A853"/>
<path d="M4.51006 10.4092C4.16847 9.39507 4.16847 8.28984 4.51006 7.26437V5.15625H1.78651C0.612829 7.46974 0.612829 10.2046 1.78651 12.5181L4.51006 10.41V10.4092Z" fill="#FBBC0C"/>
<path d="M9.1124 3.87976C10.2861 3.85718 11.4146 4.3011 12.2573 5.11061L14.5934 2.77453C13.1127 1.37289 11.1528 0.60925 9.1124 0.631835C6.01339 0.631835 3.17551 2.38707 1.78516 5.15649L4.5087 7.2759C5.158 5.32728 6.9704 3.87976 9.1124 3.87976Z" fill="#E84436"/>
</svg>
