<svg width="67" height="27" viewBox="0 0 67 27" fill="none" xmlns="http://www.w3.org/2000/svg">
<path d="M31.3373 13.1974V20.9157H28.8906V1.86193H35.3789C36.9439 1.83182 38.4485 2.42372 39.5881 3.51813C40.7277 4.53631 41.3657 6.00994 41.3356 7.52969C41.3657 9.06449 40.7277 10.5381 39.5881 11.5714C38.4485 12.6498 37.0511 13.1974 35.3949 13.1974H31.3382H31.3373ZM31.3373 4.20225V10.8571H35.4401C36.352 10.8872 37.2328 10.5231 37.8557 9.86906C39.1468 8.62315 39.1628 6.57173 37.9169 5.28066L37.8557 5.21949C37.2328 4.55137 36.352 4.18625 35.4401 4.21636L31.3373 4.20131V4.20225ZM46.9723 7.45347C48.78 7.45347 50.2085 7.93997 51.2568 8.89699C52.305 9.86906 52.8217 11.1912 52.8217 12.8775V20.8997H50.4814V19.092H50.375C49.3568 20.5807 48.0196 21.326 46.3333 21.326C44.9049 21.326 43.69 20.9006 42.7321 20.0499C41.7901 19.2595 41.2584 18.0898 41.2885 16.8589C41.2885 15.5067 41.8052 14.4434 42.8233 13.6378C43.8415 12.8323 45.2088 12.4371 46.9102 12.4371C48.3688 12.4371 49.5535 12.7109 50.4964 13.2276V12.6658C50.4964 11.8301 50.1313 11.0397 49.4933 10.508C48.8402 9.93023 48.0046 9.61122 47.1379 9.61122C45.7706 9.61122 44.6913 10.189 43.8867 11.3436L41.7289 9.99139C42.8986 8.30509 44.6461 7.45441 46.9714 7.45441L46.9723 7.45347ZM43.8114 16.9192C43.8114 17.5572 44.1154 18.15 44.6169 18.5142C45.1637 18.9395 45.8327 19.1673 46.5159 19.1522C47.5491 19.1522 48.5363 18.7419 49.2665 18.0126C50.072 17.2532 50.4823 16.3564 50.4823 15.3232C49.7229 14.7153 48.6586 14.4114 47.2913 14.4114C46.3032 14.4114 45.4676 14.6541 44.7995 15.1256C44.1464 15.6121 43.8114 16.204 43.8114 16.9182V16.9192ZM66.2528 7.87881L58.0782 26.6587H55.5563L58.5948 20.0951L53.216 7.89386H55.8753L59.7494 17.2532H59.8106L63.5935 7.89386L66.2528 7.87881Z" fill="white"/>
<path d="M21.4443 11.5241C21.4443 10.7798 21.3831 10.0354 21.2617 9.30615H10.9453V13.5153H16.8558C16.6131 14.8676 15.8226 16.0834 14.668 16.8428V19.5774H18.193C20.2595 17.6784 21.4443 14.8676 21.4443 11.5241Z" fill="#517CBE"/>
<path d="M10.9415 22.2222C13.8888 22.2222 16.3806 21.2501 18.1893 19.5789L14.6642 16.8443C13.6761 17.5124 12.4152 17.8926 10.9415 17.8926C8.0846 17.8926 5.669 15.9625 4.80327 13.3804H1.17188V16.2062C3.02568 19.8828 6.80858 22.2231 10.9415 22.2231V22.2222Z" fill="#32A853"/>
<path d="M4.80508 13.3785C4.34962 12.0263 4.34962 10.5526 4.80508 9.18533V6.37451H1.17369C-0.391228 9.45917 -0.391228 13.1056 1.17369 16.1903L4.80508 13.3795V13.3785Z" fill="#FBBC0C"/>
<path d="M10.9415 4.67252C12.5064 4.64241 14.0111 5.23431 15.1347 6.31366L18.2495 3.19889C16.2752 1.33003 13.662 0.311845 10.9415 0.341958C6.80952 0.341958 3.02568 2.68227 1.17188 6.37483L4.80327 9.20071C5.669 6.60255 8.08554 4.67252 10.9415 4.67252Z" fill="#E84436"/>
</svg>
