<svg viewBox="0 0 26 23" fill="none" xmlns="http://www.w3.org/2000/svg">
<path d="M22.6163 2.55025C25.2562 5.19551 25.3468 9.40983 22.8917 12.1585L13.5503 21.5146C13.2464 21.8189 12.7533 21.8189 12.4495 21.5146L3.10825 12.1585C0.653203 9.40983 0.744973 5.18885 3.38356 2.55025C5.85707 0.0767522 9.72114 -0.158659 12.4593 1.84403C12.7797 2.07837 13.2224 2.0782 13.5427 1.84377C16.2752 -0.155832 20.1449 0.073652 22.6163 2.55025ZM5.03348 4.20017C3.29545 5.9382 3.20819 8.72185 4.8099 10.5604L12.4495 18.2121C12.7533 18.5164 13.2464 18.5164 13.5503 18.2121L21.1901 10.5604C22.7924 8.72115 22.7055 5.94279 20.9648 4.19845C19.2296 2.45976 16.4367 2.37607 14.6033 3.98105L10.2501 8.33468C9.94638 8.63845 9.45389 8.63846 9.15014 8.3347L8.59999 7.78452C8.29633 7.48086 8.29625 6.98855 8.5998 6.68479L11.2574 4.02531C11.3049 3.97779 11.3016 3.89982 11.2502 3.85651V3.85651C9.413 2.38063 6.72707 2.50659 5.03348 4.20017Z" stroke="#F05075"/>
</svg>
