<svg width="20" height="19" viewBox="0 0 20 19" fill="none" xmlns="http://www.w3.org/2000/svg">
<path d="M18.2423 1.80632C20.5049 4.13685 20.5826 7.84977 18.4783 10.2714L10.5576 18.4256C10.2522 18.7401 9.74727 18.7401 9.44181 18.4256L1.52135 10.2714C-0.582941 7.84977 -0.504282 4.13098 1.75733 1.80632C3.85024 -0.344948 7.10469 -0.574651 9.44566 1.11722C9.77401 1.35452 10.2275 1.35435 10.5558 1.11698C12.8921 -0.572283 16.1512 -0.347597 18.2423 1.80632ZM3.17151 3.25993C1.6818 4.79118 1.60701 7.24364 2.97987 8.86345L9.44181 15.5161C9.74727 15.8306 10.2522 15.8306 10.5576 15.5161L17.0198 8.86345C18.3932 7.24303 18.3187 4.79523 16.8267 3.25842C15.3394 1.72659 12.9456 1.65286 11.3741 3.06689L7.72892 6.81404C7.42355 7.12796 6.91931 7.12797 6.61393 6.81406L6.28469 6.47564C5.99105 6.17379 5.99097 5.69307 6.28451 5.39112L8.50638 3.1057C8.54734 3.06357 8.54444 2.99566 8.50004 2.95717C6.92532 1.65688 4.62313 1.76785 3.17151 3.25993Z" fill="#F05075"/>
</svg>
