<svg width="28" height="28" viewBox="0 0 28 28" fill="none" xmlns="http://www.w3.org/2000/svg">
<path d="M8.60624 2.91103L8.60745 2.91097C10.1537 2.84212 10.7006 2.83341 14.0013 2.83341C17.3872 2.83341 17.9118 2.84144 19.3965 2.91104C20.4776 2.961 21.2345 3.10866 21.9499 3.38632C22.5933 3.63444 23.0677 3.93955 23.5647 4.43659L23.565 4.43686C24.0593 4.93194 24.3661 5.40968 24.6145 6.05015L24.6146 6.05034C24.8914 6.76474 25.0395 7.52422 25.0904 8.60508L25.0904 8.60635C25.1592 10.1524 25.168 10.6994 25.168 14.0001C25.168 17.386 25.1599 17.9106 25.0904 19.3953M8.60624 2.91103L24.1476 21.7711L24.6139 21.9516C24.8924 21.2321 25.0405 20.4749 25.0904 19.3953M8.60624 2.91103C7.52317 2.96188 6.76612 3.10936 6.05141 3.38681M8.60624 2.91103L6.05141 3.38681M25.0904 19.3953L24.5909 19.3719L25.0904 19.395C25.0904 19.3951 25.0904 19.3952 25.0904 19.3953ZM6.05141 3.38681C5.40946 3.63578 4.93282 3.94158 4.4378 4.43659C3.94137 4.93302 3.63581 5.40856 3.38759 6.05133M6.05141 3.38681L3.38759 6.05133M3.38759 6.05133C3.10966 6.76734 2.96219 7.52324 2.91224 8.60513L3.38759 6.05133ZM2.91224 19.395L2.91218 19.3938C2.84334 17.8477 2.83464 17.3008 2.83464 14.0001C2.83464 10.6144 2.84266 10.0896 2.91223 8.60522L2.91224 19.395ZM2.91224 19.395C2.96311 20.4777 3.11078 21.2358 3.38767 21.949L3.38769 21.9491M2.91224 19.395L3.38769 21.9491M3.38769 21.9491C3.63712 22.5914 3.94331 23.069 4.43637 23.5621L4.43664 23.5624M3.38769 21.9491L4.43664 23.5624M4.43664 23.5624C4.93443 24.0595 5.41108 24.3661 6.04911 24.6124L4.43664 23.5624ZM19.4749 1.24622L19.4746 1.2462C18.0644 1.1801 17.6217 1.16675 14.0013 1.16675C10.3825 1.16675 9.93835 1.1834 8.52748 1.24623C7.15438 1.31074 6.24199 1.52496 5.44893 1.83285L5.44876 1.83292C4.63239 2.14953 3.94797 2.5694 3.2593 3.25807C3.2593 3.25807 3.2593 3.25807 3.2593 3.25807M19.4749 1.24622L2.90574 2.90452L3.2593 3.25807M19.4749 1.24622C20.8466 1.3096 21.7603 1.52483 22.5537 1.83285L22.5548 1.83326C23.3718 2.14835 24.0539 2.56881 24.743 3.25781C25.431 3.94686 25.852 4.63149 26.1685 5.44754C26.4754 6.23993 26.6907 7.15477 26.7552 8.52653C26.818 9.9372 26.8347 10.3815 26.8347 14.0001C26.8347 17.6205 26.8213 18.0632 26.7552 19.4733L26.7552 19.4737C26.6918 20.8451 26.4755 21.7589 26.1683 22.553L26.1681 22.5535C25.8531 23.3705 25.4315 24.0528 24.743 24.7424C24.0544 25.4298 23.3689 25.8507 22.554 26.1672C21.7603 26.4743 20.8464 26.6895 19.4748 26.754C18.0642 26.8168 17.6198 26.8334 14.0013 26.8334C10.3809 26.8334 9.93816 26.8201 8.52805 26.754L8.52773 26.7539C7.15642 26.6905 6.24355 26.4744 5.44822 26.167L5.44807 26.167C4.63194 25.8519 3.94851 25.4303 3.2592 24.742C2.5707 24.0534 2.15076 23.368 1.83407 22.5525C1.52619 21.7594 1.31196 20.846 1.24745 19.4739C1.18462 18.063 1.16797 17.619 1.16797 14.0001C1.16797 10.3797 1.18132 9.93695 1.24742 8.52683L1.24744 8.52647C1.31081 7.15364 1.52603 6.24114 1.83407 5.44771L1.83441 5.44683C2.14961 4.6304 2.57025 3.94713 3.2593 3.25807M19.4749 1.24622L3.2593 3.25807M21.0013 5.83342L21.002 5.83341C21.6432 5.8326 22.168 6.3562 22.168 6.99895C22.168 7.64272 21.6443 8.16564 21.0013 8.16564C20.3576 8.16564 19.8347 7.64204 19.8347 6.99895C19.8347 6.35652 20.358 5.83341 21.0013 5.83342ZM8.6061 25.0891C8.6062 25.0891 8.60629 25.0891 8.60639 25.0891L8.62949 24.5897L8.6061 25.0891ZM14.0013 9.50008C11.5153 9.50008 9.5013 11.5148 9.5013 14.0001C9.5013 16.486 11.516 18.5001 14.0013 18.5001C16.4872 18.5001 18.5013 16.4854 18.5013 14.0001C18.5013 11.5142 16.4866 9.50008 14.0013 9.50008ZM14.0013 7.83341C17.4059 7.83341 20.168 10.5925 20.168 14.0001C20.168 17.4048 17.4089 20.1667 14.0013 20.1667C10.5967 20.1667 7.83464 17.4076 7.83464 14.0001C7.83464 10.5954 10.5937 7.83341 14.0013 7.83341Z" stroke="#F05075"/>
</svg>
