<svg width="126" height="125" viewBox="0 0 126 125" fill="none" xmlns="http://www.w3.org/2000/svg">
<g clip-path="url(#clip0_201_1617)">
<path d="M117.196 35.3127C116.932 34.298 116.63 33.2952 116.281 32.2925C111.248 17.7834 98.6873 8.34821 84.2003 4.56689C69.34 0.701003 51.2403 1.57083 37.5481 9.06098C35.2239 10.3295 33.3574 11.9121 31.8521 13.7121C27.0833 14.6061 22.459 16.6115 19.0992 19.0398C8.50189 26.7112 2.19168 39.4927 0.806806 52.3589C-0.325178 62.8693 1.44505 76.5207 10.0072 83.5276C10.1999 86.2941 10.8742 88.8794 11.9701 91.2231C13.7403 108.607 30.8044 116.569 46.1223 120.592C62.5722 124.917 80.8044 122.066 95.2071 113.005C117.811 98.7857 137.091 58.1577 117.196 35.3248V35.3127Z" fill="#60CBE8"/>
<path d="M115.378 50.4985C114.198 49.2421 112.668 48.5534 111.055 48.5534C110.97 48.5534 110.886 48.5776 110.79 48.5776C112.03 47.6474 113.126 46.4393 113.981 45.0379C115.161 43.0808 115.799 40.7129 115.811 38.2001C115.811 37.8135 115.811 37.439 115.775 37.1128C115.33 30.1301 112.849 24.0413 110.224 18.4841C108.465 14.7632 106.683 12.0208 104.6 9.87044C102.697 7.88917 100.385 6.83813 97.9283 6.83813C97.3985 6.83813 96.8566 6.88646 96.3267 6.99519C94.2072 7.40594 92.2925 8.89189 90.7751 11.296C89.2819 13.6759 88.5232 16.4424 87.8488 18.8828C87.7284 19.3177 87.608 19.7526 87.4876 20.1875C86.8734 22.35 86.3315 24.5729 85.8739 26.8441C85.332 26.2521 84.7419 25.7085 84.1037 25.2132V25.1769C84.5252 23.5339 84.6335 21.8426 84.4168 20.1271C84.0073 16.829 82.49 13.6638 80.2621 11.441C77.6249 8.8194 74.3614 7.53883 70.3031 7.53883C69.7251 7.53883 69.135 7.56299 68.5569 7.61131C65.6909 7.82877 60.898 8.20328 58.2968 13.3618C57.2853 15.3552 56.7674 17.7593 56.4784 20.2238C55.1176 17.3002 53.7448 15.0048 52.2275 13.1444C49.7949 10.1241 47.0974 9.48385 45.267 9.48385C44.7251 9.48385 44.1832 9.54425 43.6533 9.65298C41.6783 10.0517 39.9442 11.4047 38.463 13.6518C38.2583 13.4101 38.0536 13.1685 37.8368 12.9511C36.1509 11.2477 34.0555 10.3053 31.912 10.3053C31.6952 10.3053 31.4905 10.3053 31.2737 10.3295C29.6841 10.4745 28.1427 11.0906 26.818 12.1296C26.0714 12.7215 25.4572 13.4343 24.9394 14.2437C23.3137 12.1054 20.8089 10.8248 18.2318 10.8248C16.4495 10.8248 14.7877 11.4168 13.4269 12.5282C10.1393 15.2223 9.34452 20.0909 9.69375 23.7393C10.0912 27.9072 11.741 31.7972 13.2944 35.0349C13.74 35.9652 14.2458 36.8591 14.7516 37.729C15.6909 39.372 16.582 40.9304 16.7988 42.3076C16.8831 42.8996 16.8831 43.6728 16.871 44.4339C16.871 45.3037 16.8228 46.2218 16.7867 47.1641C16.6543 50.3535 16.4977 53.9536 17.425 57.1309C17.714 58.1094 18.0993 58.9792 18.569 59.7766C16.6904 60.9363 15.0526 62.3861 13.9688 63.9203C12.885 65.4425 12.3069 67.0734 12.2227 68.7768C12.1143 70.9997 12.8609 74.2737 16.871 77.3543C12.6201 79.5047 10.332 84.8203 11.0666 91.4164C11.3556 93.9897 12.5117 96.575 14.2939 98.665C12.5598 99.8368 11.3074 101.758 10.8257 104.162C10.5367 105.611 10.5367 107.206 10.8257 108.753C11.5844 112.763 14.2337 116.206 18.1114 118.176C20.1947 119.239 22.5791 119.794 25.0117 119.794C29.0459 119.794 32.8753 118.284 35.621 115.699C37.03 117.439 39.029 118.635 41.305 118.985C41.7867 119.058 42.2805 119.094 42.7742 119.094C45.3392 119.094 47.6875 118.176 49.253 116.605C49.9274 117.257 50.662 117.704 51.3243 118.006C52.4924 118.55 53.8171 118.816 55.2381 118.816C56.6591 118.816 58.1644 118.538 59.5131 118.006C60.4283 117.644 61.2352 117.125 61.9216 116.496C62.8489 117.427 63.8845 118.284 65.0285 119.021C67.5333 120.628 70.4115 121.631 73.3378 121.909H73.7472C73.9158 121.921 74.4818 121.909 74.4818 121.909C75.951 121.824 77.4322 121.462 78.8773 120.845C79.4312 120.616 79.9611 120.326 80.503 120.012L81.0449 122.416C82.1046 122.416 87.1383 120.858 91.1244 116.943C91.2689 117.004 91.4134 117.064 91.5699 117.112C93.1595 117.656 94.7853 117.765 95.8691 117.765C97.0974 117.765 99.4577 117.608 101.469 116.557C103.624 115.421 105.021 113.452 105.286 111.169C105.322 110.867 105.346 110.565 105.358 110.275C105.395 110.275 105.431 110.263 105.467 110.251C107.345 109.912 108.899 109.381 110.236 108.632C113.403 106.844 115.366 104.258 115.739 101.335C116.088 98.665 115.089 96.0313 112.909 93.9172C112.343 93.3615 111.705 92.8661 111.03 92.4312C111.235 91.8755 111.404 91.2473 111.572 90.5104C112.211 87.5264 112.102 84.627 111.994 81.8242C111.97 81.196 111.946 80.5678 111.934 79.9396C111.91 78.659 112.102 77.5596 112.62 76.0254C113.017 74.8535 113.439 73.6817 113.872 72.4857C114.92 69.5863 116.004 66.5902 116.847 63.28C117.232 61.7941 117.63 60.0182 117.738 58.1457C117.919 55.065 117.064 52.2743 115.378 50.4864V50.4985ZM54.2988 60.1269C54.5155 60.1269 54.7202 60.1148 54.949 60.1028C54.8527 60.3323 54.7805 60.5498 54.7082 60.7551C54.5757 60.5377 54.4312 60.3323 54.2867 60.1269H54.2988ZM67.449 58.0853C67.5454 58.1094 67.6417 58.1215 67.7501 58.1457C67.714 58.194 67.6778 58.2302 67.6417 58.2786C67.5815 58.2181 67.5093 58.1457 67.449 58.0853ZM104.094 50.9938C104.491 50.9938 104.901 50.9575 105.322 50.8971C105.684 50.8367 106.033 50.7642 106.37 50.6676C106.069 50.9575 105.78 51.2596 105.515 51.5978C105.262 51.9119 105.021 52.2502 104.805 52.6126C103.769 51.9119 102.553 51.5133 101.252 51.5133C101.095 51.5133 100.939 51.5253 100.782 51.5374C101.12 51.2112 101.409 50.873 101.661 50.5105C102.42 50.8246 103.239 50.9817 104.106 50.9817L104.094 50.9938ZM94.9779 88.9398C95.1827 88.6982 95.3874 88.4445 95.5801 88.1908C95.5801 88.4083 95.5801 88.6378 95.6041 88.8553C95.3874 88.8794 95.1947 88.9157 94.9779 88.9398ZM38.2222 61.2021C38.3065 61.2142 38.3908 61.2263 38.4751 61.2384C38.2944 61.5283 38.1138 61.8062 37.9572 62.0719C37.7646 61.6974 37.5237 61.3229 37.2588 60.9726C37.5719 61.0572 37.897 61.1417 38.2222 61.2021ZM92.5815 54.5456C92.726 54.5456 93.0391 54.5456 93.0391 54.5456C93.9543 54.5456 94.8455 54.4368 95.7005 54.2435C95.0381 55.0046 94.4962 55.8503 94.0627 56.7322C93.0391 55.9349 91.9192 55.3067 90.6788 54.8838C88.8484 54.2677 87.1383 53.9778 85.4645 53.9778C85.1514 53.9778 84.8382 53.9898 84.5251 54.014C85.2597 53.3375 85.9582 52.5885 86.5844 51.779C88.0897 53.4462 90.173 54.4489 92.5695 54.5335L92.5815 54.5456ZM33.8869 80.9302C34.2843 81.4255 34.7419 81.8725 35.2718 82.2953C35.0791 82.537 34.9105 82.8028 34.7419 83.0565C34.2964 82.3799 33.7906 81.7517 33.2727 81.1718C33.4895 81.0993 33.6942 81.0148 33.899 80.9302H33.8869Z" fill="#252F6C"/>
<path d="M34.8625 75.023C33.5017 77.2459 30.7801 78.0553 27.5287 77.4755C24.4578 76.9318 21.7122 75.8204 19.6168 74.2982C17.2685 72.5827 16.2088 70.7464 16.2931 68.9705C16.3413 68.0644 16.6785 67.1705 17.2926 66.3006C18.4487 64.6818 20.8933 62.7851 23.8076 61.8065C26.782 60.8159 30.2141 60.5985 32.5503 62.0965C33.8509 62.9301 34.8745 64.271 34.7059 65.7207C34.5975 66.6268 34.0075 67.4966 33.0441 67.9557C32.2734 68.3181 30.9487 68.4631 30.1659 68.0161C29.3952 67.5812 29.1182 66.8926 28.1187 66.5906C24.2772 65.4308 22.0132 69.2484 24.8793 70.9639C25.9872 71.6283 27.5287 71.8699 28.757 71.4471C29.4554 71.2055 30.0094 70.7826 30.5995 70.4081C31.2016 70.0336 31.9241 69.6833 32.743 69.6954C36.3196 69.7195 35.8018 73.5008 34.8745 75.023H34.8625ZM23.9882 63.2442C24.7107 63.0026 24.4097 62.2898 23.6751 62.5435C21.652 63.2442 19.954 64.3919 19.0629 65.5999C18.9304 65.7812 18.9786 65.9744 19.2676 66.0469C19.5205 66.1073 19.9419 66.0349 20.0744 65.8536C20.8331 64.8026 22.23 63.8241 23.9882 63.2442ZM25.8548 62.7851C26.3605 62.616 26.8422 62.5435 27.348 62.5918C28.0946 62.6522 28.4198 61.8065 27.6732 61.7582C26.9627 61.7099 26.2401 61.8186 25.5417 62.0482C24.8191 62.3019 25.1202 63.0267 25.8548 62.7851Z" fill="#F05075"/>
<path d="M55.5995 79.3236C55.5995 79.5169 55.5754 79.6981 55.5513 79.8914C55.4068 80.9787 54.9853 81.9935 54.1063 82.525C53.191 83.0807 52.0109 83.1049 50.903 82.827C50.2888 82.67 49.6626 82.5129 49.0605 82.2713C48.2657 81.9451 47.6154 81.5102 47.1698 80.7491C46.7845 80.0847 46.8567 79.239 46.8447 78.5625C46.8327 78.1517 46.7845 77.6685 46.4232 77.3302C46.1583 77.0765 45.6525 77.0645 45.3755 77.2094C44.9902 77.4148 44.942 78.0309 44.9179 78.4296C44.8577 79.4565 44.6409 80.4954 43.509 80.7129C42.2686 80.9424 40.691 80.5075 39.4266 79.988C38.2103 79.4927 37.0422 78.6591 36.5966 77.5719C35.7416 75.4577 37.0061 73.2107 37.7286 71.3502C38.5234 69.3206 39.5591 67.3031 40.8235 65.2735C41.6665 63.9325 42.4131 62.4466 43.7137 61.2506C44.3519 60.6586 45.2431 60.0304 46.1944 59.9096C47.5793 59.7284 48.7715 60.1271 49.6747 60.9969C51.1318 62.3862 52.1313 64.2708 52.902 66.1796C54.4916 70.1421 55.8163 74.8416 55.5995 79.3115V79.3236ZM45.9776 62.3499C46.074 62.3137 46.1583 62.2654 46.2426 62.205C46.6038 61.915 46.2185 61.3351 45.785 61.3955C44.8336 61.5164 44.1713 62.217 43.6053 62.8453C43.0513 63.4735 42.6419 64.1741 42.377 64.899C42.1361 65.5514 43.3042 65.8655 43.5451 65.201C43.7498 64.6574 44.0268 64.15 44.4121 63.6668C44.5807 63.4493 44.7734 63.2439 44.9902 63.0385C45.2912 62.7607 45.5923 62.5191 45.9897 62.3379L45.9776 62.3499ZM47.2662 73.0898C47.23 72.5945 47.0253 71.7368 46.2787 71.6039C46.0258 71.5556 45.785 71.6643 45.6164 71.8214C45.2551 72.1596 45.0142 72.667 45.0745 73.1503C45.1467 73.6697 45.8211 73.9113 46.3871 73.9113C46.5075 73.9113 46.6279 73.9113 46.7363 73.8751C47.1939 73.7905 47.2903 73.4523 47.2662 73.0778V73.0898ZM48.0008 61.3351C47.6515 61.2143 47.1578 61.2143 47.0374 61.6251C46.9772 61.8425 47.0374 62.1204 47.2662 62.217C47.3264 62.2412 47.3866 62.2654 47.4468 62.2895C47.5552 62.3379 47.6636 62.3862 47.7479 62.4466C48.0489 62.6761 48.2898 63.1594 48.7715 62.8815C49.6867 62.362 48.5427 61.5164 48.0008 61.3231V61.3351Z" fill="#F05075"/>
<path d="M75.5658 77.6203C75.048 80.8459 74.0003 87.7078 70.6525 87.0192C69.0389 86.6809 68.0514 85.9561 67.1362 84.2043C66.3052 82.6097 65.8115 80.8217 65.3298 79.1062C64.8481 77.3787 64.3544 75.6632 64.1256 73.9114C64.0653 75.5786 64.1737 77.2699 64.1256 78.9492C64.0894 80.4351 64.0051 82.4526 63.2826 83.6728C62.6564 84.7359 61.404 85.2071 60.3081 85.0138C59.2123 84.8205 58.297 83.9748 57.719 82.8634C57.0326 81.5707 56.9965 80.2297 56.8881 78.8404C56.5991 75.3732 56.8881 71.9785 57.3096 68.5958C57.5504 66.6508 57.8394 64.6816 58.3934 62.7608C58.851 61.1903 59.4049 59.7768 61.1511 59.4748C63.4632 59.0761 65.2335 61.6614 66.4257 63.4735C67.088 64.4883 67.666 65.6119 68.1598 66.7958C68.5933 67.871 69.1713 69.224 69.2917 70.4684C69.087 68.3421 69.2074 66.1797 69.641 64.0655C69.8457 63.0749 70.1227 62.0722 70.6284 61.1903C71.339 59.958 72.5071 59.2573 73.6752 59.0761C74.8794 58.8949 75.7705 59.3298 76.3245 60.6225C76.7099 61.5285 76.8303 62.6279 76.8905 63.7152C77.1313 68.2334 76.3004 73.102 75.5779 77.6082L75.5658 77.6203ZM61.8375 60.9849C60.3563 60.5137 59.4411 62.3742 59.1039 63.546C58.7547 64.7662 58.4777 66.0589 58.4295 67.3153C58.4054 68.1247 59.6217 68.2093 59.6458 67.3878C59.6819 66.4575 59.8626 65.5031 60.0793 64.585C60.2118 64.0534 60.3322 63.4494 60.5851 62.9541C60.7296 62.6762 61.0427 62.1084 61.404 62.2292C62.1506 62.4708 62.5721 61.2144 61.8255 60.9728L61.8375 60.9849ZM64.6193 62.9057C64.3664 62.3863 63.969 61.9393 63.4873 61.6614C63.2103 61.5044 62.8129 61.5768 62.6203 61.903C62.4517 62.2051 62.4878 62.6279 62.7768 62.797C62.8491 62.8453 62.9213 62.8816 62.9936 62.942C63.0297 62.9661 63.0658 63.0024 63.102 63.0266C63.102 63.0266 63.1501 63.0749 63.1622 63.087C63.3308 63.2682 63.4151 63.3769 63.4994 63.5702C63.6439 63.8843 64.0172 64.0051 64.3182 63.8239C64.6193 63.6427 64.7518 63.2198 64.6073 62.9178L64.6193 62.9057Z" fill="#F05075"/>
<path d="M95.0264 79.674C93.1117 87.5991 87.9455 90.5106 82.4421 89.8582C80.5755 89.6407 77.9864 88.7709 77.3963 86.2098C77.023 84.603 77.0351 82.9842 77.011 81.3774C76.9869 78.9371 77.0471 76.4726 77.2037 74.0081C77.3963 70.9516 77.7456 67.8951 78.3236 64.8991C78.8776 61.9634 79.9252 59.3419 82.6709 58.5204C85.0794 57.7955 87.2831 58.0975 89.4026 58.8103C92.4614 59.8251 94.34 62.6279 95.5081 66.7354C96.604 70.6133 96.062 75.4699 95.0384 79.674H95.0264ZM83.4055 59.6076C80.7562 60.4533 78.8535 63.8118 79.2147 67.0374C79.3231 67.9918 80.5153 67.5931 80.4069 66.6266C80.13 64.1259 81.6112 61.7218 83.5861 61.1057C84.3568 60.8641 84.1762 59.3539 83.3934 59.5956L83.4055 59.6076ZM86.3438 61.0211C86.6329 61.1298 87.0062 60.8037 87.1266 60.3808C87.247 59.9217 87.0905 59.5231 86.7894 59.4143C86.3559 59.2573 85.8742 59.209 85.3925 59.2815C84.6218 59.3902 84.4773 60.9969 85.26 60.9003C85.6454 60.852 85.9946 60.9003 86.3438 61.0211ZM87.1386 67.9072C87.1386 67.1703 86.9941 65.938 86.2716 65.8897C86.0187 65.8776 85.7658 66.083 85.5852 66.3488C85.1998 66.9287 84.9108 67.7381 84.9349 68.4388C84.959 69.1999 85.6333 69.4173 86.1993 69.3086C86.3197 69.2844 86.4402 69.2482 86.5486 69.1878C87.0062 68.9583 87.1386 68.4388 87.1386 67.8951V67.9072Z" fill="#F05075"/>
<path d="M113.644 57.9279C113.56 59.3897 113.235 60.8757 112.873 62.2771C111.729 66.7349 110.092 70.7216 108.743 74.7204C108.129 76.5204 107.803 78.1151 107.84 80.048C107.912 83.2374 108.237 86.5476 107.563 89.6524C107.442 90.2322 107.286 90.8 107.069 91.3074C106.395 92.9263 105.154 93.6995 103.89 93.6995C103.035 93.6995 102.156 93.3612 101.433 92.7209C100.554 91.9356 100 90.6067 99.7712 89.2416C99.2775 86.2576 100.096 82.7783 100.409 79.8064C100.494 79.0453 100.578 78.2722 100.542 77.5111C100.434 74.9378 99.0487 72.5337 98.3261 70.4075C97.5313 68.0759 96.7124 65.3819 96.7727 62.6878C96.8088 60.5495 97.5915 58.0125 99.0968 56.5749C100.47 55.2581 102.3 55.2943 103.167 56.7198C104.046 58.1575 104.347 60.3804 104.504 62.4945C104.66 64.6932 104.672 66.9886 105.01 69.1632C105.479 66.7591 105.732 64.2946 106.178 61.818C106.599 59.4622 107.286 55.9346 108.707 54.1708C109.212 53.5426 109.79 53.0593 110.344 52.8177C112.235 51.9841 113.837 54.5936 113.644 57.9159V57.9279ZM99.8073 66.445C99.2052 65.3819 98.6392 64.0167 98.7235 62.3858C98.7837 61.0448 99.2654 59.7038 100.072 58.9911C100.373 58.7253 100.47 58.0246 100.349 57.6501C100.217 57.2031 99.8796 57.2272 99.5906 57.4809C98.4466 58.4837 97.712 60.5253 97.5675 62.3737C97.4109 64.5483 98.0732 66.4087 98.8921 67.8584C99.3618 68.6799 100.265 67.2544 99.7953 66.4329L99.8073 66.445ZM102.601 57.4809C102.24 56.9735 101.794 56.7682 101.277 56.8407C100.975 56.889 100.686 57.4326 100.65 57.9279C100.614 58.4595 100.867 58.7857 101.168 58.7494C101.216 58.7494 101.24 58.7494 101.228 58.7494C101.264 58.7494 101.301 58.7494 101.325 58.7615C101.385 58.7615 101.433 58.7857 101.493 58.8219C101.493 58.8219 101.59 58.9065 101.59 58.8944C101.662 58.9548 101.674 58.9669 101.722 59.0394C101.927 59.3414 102.276 59.2931 102.529 58.8582C102.758 58.4474 102.818 57.783 102.601 57.4809Z" fill="#F05075"/>
<path d="M19.9418 114.515C17.5695 113.307 15.4019 111.048 14.8238 107.992C14.6312 106.953 14.6312 105.902 14.8238 104.983C15.1851 103.171 16.2689 101.794 17.9549 101.552C18.9664 101.42 20.0743 101.42 20.9293 102.169C22.1817 103.28 22.3503 105.346 23.8797 106.107C24.2771 106.3 24.7106 106.421 25.1321 106.373C25.9269 106.276 26.6133 105.563 26.7699 104.645C27.2034 102.253 24.4698 100.55 22.9284 99.8249C21.2183 99.0155 19.4963 98.1215 18.0271 96.696C16.5579 95.2704 15.3657 93.2167 15.1128 90.9575C14.5709 86.1252 16.0883 81.3653 20.0021 80.5438C22.6032 80.0002 25.7944 80.6646 28.3474 82.2714C29.8648 83.2258 31.3219 85.05 32.1649 86.7775C33.1764 88.8555 33.2969 92.2623 31.1533 92.9871C30.7198 93.1321 30.226 93.1079 29.7564 93.0113C28.3836 92.7093 27.6249 91.5495 26.5531 90.5468C26.1678 90.1723 25.7583 89.7978 25.2887 89.6166C23.4703 88.8917 23.4462 91.3441 24.518 92.4676C25.4211 93.41 26.6856 93.9536 27.7814 94.3643C29.1302 94.8597 30.5753 95.6932 31.7193 96.7201C33.5016 98.3148 34.8624 100.55 35.4163 102.942C37.8128 113.235 26.9746 118.115 19.9298 114.527L19.9418 114.515ZM20.9293 81.8848C18.1716 82.0902 16.2689 85.0258 16.5098 88.5414C16.5941 89.7253 18.0632 89.8702 17.9789 88.6863C17.7983 85.944 19.2193 83.854 21.3628 83.6727C22.2901 83.6003 21.8445 81.8244 20.9293 81.8848ZM23.1572 83.4553C23.6148 83.4553 24.0603 83.5399 24.518 83.7332C24.9033 83.8902 25.3128 83.709 25.4091 83.2499C25.4934 82.8271 25.2525 82.2593 24.8672 82.0902C24.2891 81.8485 23.6991 81.7036 23.121 81.6794C22.7236 81.6794 22.3985 81.9452 22.4105 82.4647C22.4226 82.9117 22.7718 83.4553 23.1692 83.4553H23.1572Z" fill="white"/>
<path d="M59.9225 95.2343C60.2717 99.1002 60.2958 102.93 60.356 106.772C60.3801 108.366 60.3079 109.961 60.1513 111.543C60.0309 112.739 59.1879 113.73 58.0078 114.201C56.5265 114.781 54.5155 114.987 53.0222 114.298C51.7578 113.718 51.2038 112.667 50.987 111.35C50.8666 110.625 50.8305 109.888 50.6258 109.164C50.3488 108.149 49.0001 108.016 48.1812 108.39C48.145 108.402 48.1089 108.427 48.0728 108.451C47.3743 108.886 47.3021 110.094 47.2539 110.867C47.2057 111.737 47.1576 112.655 46.6518 113.356C45.6402 114.757 43.4846 115.18 41.9071 114.938C40.185 114.672 38.6436 113.537 37.9692 111.713C37.5237 110.517 37.3791 109.236 37.2467 107.968C36.6807 102.918 36.5362 97.6988 36.6205 92.6731C36.6446 91.1026 36.7048 89.5079 37.042 88.0461C37.3671 86.5723 37.9933 85.2071 39.0169 84.3132C39.9683 83.4917 40.9557 83.54 42.2443 83.7937C44.6407 84.2648 46.2183 85.9682 46.6277 88.4207C47.0492 90.9576 46.8324 93.5309 46.8445 96.0316C46.8445 96.5753 46.8445 97.1068 46.9047 97.6505C47.0371 98.9431 47.5911 99.7284 48.8917 99.6921C49.9032 99.6559 50.2284 99.3418 50.3247 98.3149C50.5054 96.5269 50.2886 94.6906 50.1682 92.8664C50.0718 91.2597 49.9032 89.4234 50.5054 88.0461C51.4447 85.8837 54.5998 85.6421 56.7794 87.5025C59.3445 89.6891 59.6937 92.6127 59.9225 95.2343ZM40.1248 85.2192C38.0776 85.9441 37.7645 89.3146 38.0174 91.5858C38.1258 92.6369 39.5949 92.8181 39.4866 91.7671C39.3661 90.6919 39.4023 89.6167 39.6311 88.626C39.8238 87.8045 40.1609 86.983 40.9076 86.7172C41.7385 86.4152 40.9557 84.9172 40.1248 85.2071V85.2192ZM44.1831 85.787C43.6653 85.2917 42.9668 84.9051 42.3286 84.8689C41.9312 84.8447 41.606 85.0742 41.6301 85.5333C41.6422 85.932 41.9914 86.4394 42.3888 86.4515C42.4731 86.4515 42.5574 86.4756 42.6417 86.4756C42.6537 86.4756 42.6778 86.4756 42.6898 86.4756C42.7501 86.4998 42.8103 86.524 42.8584 86.5481C43.0872 86.6568 43.2799 86.8018 43.4846 86.9951C43.8098 87.2971 44.3035 87.1763 44.4721 86.8743C44.6768 86.5119 44.4962 86.077 44.1711 85.7629L44.1831 85.787Z" fill="white"/>
<path d="M108.224 105.068C107.225 105.624 106.021 105.998 104.732 106.228C103.42 106.469 101.999 106.409 100.638 106.433C100.614 106.433 100.59 106.433 100.578 106.433C100.565 106.433 100.578 106.469 100.578 106.481C100.626 106.59 100.674 106.699 100.722 106.808C101.276 108.076 101.36 109.417 101.204 110.698C101.107 111.519 100.602 112.377 99.5539 112.92C97.8439 113.814 94.7851 113.875 92.8704 113.222C91.8949 112.884 91.2447 112.063 90.9315 111.398C90.6425 110.782 90.5582 110.154 90.486 109.514C90.1608 106.493 89.9802 103.401 90.0404 100.393C90.0645 99.3657 90.0765 98.2905 90.2813 97.2999C90.486 96.3696 90.9075 95.4998 91.5216 94.7387C92.1237 94.0018 92.8824 93.5669 93.9903 93.2648C96.0857 92.697 98.6628 92.8058 101.083 93.1803C104.66 93.736 108.212 95.077 110.055 96.865C112.776 99.5107 112.102 102.869 108.224 105.044V105.068ZM96.6035 93.8689C93.7736 93.9051 91.8347 95.5481 92.0876 97.6381C92.1719 98.3388 93.6652 98.4717 93.5809 97.771C93.3882 96.1522 94.8453 94.9803 97.0491 94.932C98.0004 94.9079 97.5549 93.8689 96.6035 93.881V93.8689ZM98.8916 94.8354C99.3612 94.8474 99.8309 94.9079 100.288 95.0166C100.686 95.1132 101.107 95.0166 101.204 94.7508C101.3 94.5092 101.047 94.1709 100.65 94.0743C100.048 93.9293 99.4455 93.8327 98.8434 93.8085C98.434 93.7964 98.0968 93.9535 98.1088 94.2434C98.1088 94.5092 98.4821 94.8233 98.8916 94.8354ZM101.553 99.6436C101.469 99.1845 101.119 98.3992 100.192 98.2905C99.879 98.2543 99.578 98.3509 99.3853 98.508C98.9759 98.8341 98.7109 99.3415 98.8434 99.7885C98.9759 100.284 99.8429 100.477 100.553 100.453C100.71 100.453 100.854 100.429 100.975 100.405C101.529 100.296 101.613 99.9818 101.553 99.6556V99.6436Z" fill="white"/>
<path d="M36.9218 20.7674C36.9098 22.2171 36.5365 23.6426 36.127 25.0077C34.8265 29.3206 32.8515 33.2711 31.3944 37.596C30.7321 39.5531 30.4551 41.3169 30.6959 43.3949C31.0933 46.8258 31.8159 50.2568 31.2499 53.7844C31.1415 54.4368 31.009 55.0892 30.7802 55.7174C30.0818 57.6624 28.5885 58.955 27.011 59.4745C25.9392 59.8249 24.8192 59.8128 23.8438 59.3779C22.6637 58.8463 21.8086 57.5295 21.351 55.9831C20.3636 52.6247 20.9296 48.1427 20.9657 44.4942C20.9657 43.5519 20.9777 42.6096 20.8453 41.7035C20.3756 38.635 18.2441 35.8926 16.9917 33.2832C15.6189 30.4079 14.1136 26.9044 13.7764 23.3647C13.4994 20.5499 14.1617 17.2639 16.0283 15.7296C17.7383 14.3282 20.3274 14.896 21.7364 16.8048C23.1574 18.7257 23.8438 21.3714 24.3135 23.848C24.7952 26.4212 25.0721 29.0669 25.7826 31.5435C26.1439 28.8011 26.2282 26.0346 26.5654 23.3164C26.8905 20.7069 27.4806 16.8894 29.3713 15.3914C30.0456 14.8598 30.8404 14.5336 31.6473 14.4611C34.3689 14.2195 36.9821 17.4814 36.9459 20.7915L36.9218 20.7674ZM18.3886 28.2575C17.4252 26.9286 16.4739 25.1648 16.3534 23.099C16.2451 21.3956 16.7027 19.7284 17.7142 18.9794C18.0875 18.7015 18.1357 17.8438 17.919 17.3485C17.6661 16.7565 17.2085 16.7203 16.8472 16.986C15.4141 18.0371 14.7157 20.6103 14.812 23.0144C14.9204 25.8292 16.0885 28.2454 17.3891 30.0455C18.1237 31.0603 19.1352 29.2723 18.4007 28.2575H18.3886ZM21.0138 17.578C20.4479 16.8894 19.7976 16.527 19.075 16.5149C18.6535 16.5149 18.3284 17.1189 18.3525 17.7351C18.3886 18.3995 18.7619 18.8344 19.1834 18.8586C19.2557 18.8586 19.2797 18.8586 19.2677 18.8586C19.3159 18.8586 19.364 18.8827 19.4122 18.8948C19.4845 18.919 19.5688 18.9431 19.6531 18.9915C19.6531 18.9915 19.8096 19.1002 19.7976 19.1002C19.918 19.1968 19.93 19.2089 20.0023 19.2935C20.3274 19.6922 20.8091 19.7042 21.0981 19.221C21.3631 18.774 21.351 17.9767 21.0259 17.578H21.0138Z" fill="#97C93D"/>
<path d="M60.1998 47.5026C60.2239 47.8408 60.248 48.167 60.248 48.5053C60.2841 50.4382 59.9469 52.3953 58.8872 53.7726C57.7913 55.1981 56.2258 55.8988 54.6964 55.9954C53.8535 56.0558 52.9864 56.1162 52.1434 55.9834C51.0115 55.8142 50.0842 55.3672 49.3496 54.1471C48.7114 53.0839 48.6752 51.4168 48.5307 50.112C48.4464 49.3147 48.2899 48.4086 47.76 47.9133C47.3626 47.5388 46.6882 47.7321 46.3511 48.1549C45.8694 48.7348 45.9175 49.9912 45.9537 50.7765C46.05 52.8423 45.9416 55.0169 44.4604 56.1162C42.8588 57.3123 40.6791 57.4451 38.9209 57.1431C37.235 56.8532 35.5731 55.7901 34.8385 53.5913C33.4055 49.3268 34.7542 43.4434 35.4286 39.0459C36.1632 34.2378 37.1988 29.5383 38.5235 25.0442C39.3906 22.0723 40.1251 18.895 41.5823 16.4184C42.3048 15.1983 43.3164 13.9298 44.4845 13.6882C46.1945 13.3378 47.76 14.1231 49.0606 15.7419C51.1439 18.3272 52.7576 21.6978 54.1063 25.0563C56.8881 31.9907 59.5616 39.6983 60.2118 47.5026H60.1998ZM44.629 18.5688C44.7374 18.4843 44.8458 18.3997 44.9301 18.2668C45.3395 17.6749 44.7494 16.5513 44.2196 16.6721C43.0394 16.95 42.3048 18.3755 41.7027 19.7165C41.1006 21.0333 40.6911 22.5314 40.4623 24.0898C40.2576 25.4791 41.799 25.9623 42.0038 24.5851C42.1723 23.4374 42.4614 22.3622 42.8588 21.3595C43.0394 20.9005 43.2562 20.4655 43.485 20.0548C43.8222 19.4628 44.1593 18.9675 44.629 18.5809V18.5688ZM48.1213 39.3601C47.9888 38.4057 47.5673 36.811 46.5919 36.7868C46.2547 36.7868 45.9537 37.0647 45.761 37.4392C45.3515 38.2245 45.1227 39.3238 45.2793 40.254C45.4599 41.2688 46.3872 41.4742 47.1218 41.2688C47.2783 41.2326 47.4349 41.1601 47.5673 41.0876C48.1454 40.7494 48.2056 40.0607 48.1092 39.3601H48.1213ZM47.0013 16.4668C46.5437 16.2493 45.9296 16.2493 45.8453 17.0708C45.7971 17.4936 45.9296 18.0373 46.2306 18.2306C46.3149 18.2789 46.3872 18.3272 46.4715 18.3756C46.616 18.4601 46.7605 18.5447 46.8809 18.6655C47.3024 19.0883 47.6878 19.9944 48.2537 19.4266C49.3135 18.3514 47.7239 16.805 47.0134 16.4668H47.0013Z" fill="#97C93D"/>
<path d="M77.2517 53.5062C75.2045 54.0377 73.1573 54.5089 71.0137 54.4726C69.3037 54.4485 67.5214 54.0257 65.98 53.0471C64.3422 52.0081 63.1862 50.039 62.4877 47.9127C60.6813 42.4401 60.4285 35.3607 60.308 29.5618C60.2237 25.2006 60.0792 18.9307 61.9458 15.2339C63.4872 12.1654 66.269 11.9237 68.8702 11.7305C71.8326 11.5009 74.8432 11.8513 77.3841 14.3883C78.9376 15.9346 80.0575 18.2421 80.3586 20.6582C80.5031 21.8663 80.4309 23.0502 80.1418 24.1859C79.6361 26.155 78.7088 26.6745 80.5754 27.786C81.9 28.5833 83.0441 29.6223 83.9593 31.0599C84.3446 31.6639 84.6939 32.2921 84.9829 32.9083C88.8244 41.1474 84.8504 51.5491 77.2637 53.5062H77.2517ZM66.847 15.7292C67.8104 15.4393 67.2324 13.3976 66.2811 13.6876C63.415 14.5574 61.5845 18.3991 62.0301 22.5066C62.1866 23.8838 63.7522 23.7993 63.5956 22.41C63.2343 19.1844 64.6072 16.4178 66.847 15.7292ZM70.1467 15.0889C70.5681 15.1977 70.9776 14.8715 71.0378 14.2916C71.098 13.748 70.809 13.1077 70.3875 13.011C69.7734 12.854 69.1471 12.8177 68.533 12.9265C68.1235 12.9989 67.7984 13.4218 67.8466 14.0379C67.8947 14.5695 68.2921 15.1493 68.7136 15.0648C69.1953 14.9681 69.665 14.9681 70.1587 15.0889H70.1467ZM73.5426 24.6449C73.3981 23.7147 72.9405 22.1321 71.9651 22.1079C71.6399 22.1079 71.3389 22.3737 71.1582 22.7361C70.7729 23.5093 70.5681 24.5966 70.7488 25.5027C70.9535 26.5054 71.8687 26.7228 72.5913 26.5175C72.7478 26.4691 72.8923 26.4087 73.0248 26.3363C73.5787 25.998 73.6269 25.3335 73.5185 24.6328L73.5426 24.6449ZM74.5783 37.2695C74.4338 36.3392 73.9641 34.7687 73.0007 34.7687C72.6756 34.7687 72.3745 35.0466 72.1939 35.4211C71.8085 36.1943 71.6038 37.2936 71.7844 38.2118C71.9892 39.2024 72.9164 39.4078 73.639 39.1903C73.7955 39.142 73.94 39.0816 74.0725 38.997C74.6385 38.6467 74.6866 37.9701 74.5783 37.2815V37.2695Z" fill="#97C93D"/>
<path d="M111.693 37.3906C111.705 37.6443 111.717 37.9101 111.717 38.188C111.717 39.7464 111.38 41.4377 110.477 42.9237C109.537 44.47 108.225 45.5815 106.912 46.1251C106.19 46.4271 105.443 46.7292 104.708 46.8379C103.721 46.9949 102.902 46.8379 102.24 45.9318C101.662 45.1466 101.601 43.6848 101.445 42.5733C101.349 41.8968 101.204 41.1236 100.722 40.7854C100.349 40.5317 99.7469 40.8216 99.4338 41.2444C99.0123 41.8364 99.0725 42.9479 99.1207 43.6485C99.2532 45.4607 99.1929 47.4299 97.8683 48.6863C96.4232 50.0514 94.4242 50.5105 92.7503 50.438C91.1486 50.3776 89.5109 49.5319 88.7281 47.5628C87.1987 43.7452 88.3066 38.2605 88.8245 34.2134C89.3904 29.7797 90.2695 25.4547 91.4497 21.3351C92.2324 18.6169 92.8707 15.7296 94.2676 13.4946C94.954 12.3953 95.9535 11.2718 97.1217 11.0422C98.8196 10.716 100.397 11.3926 101.686 12.7456C103.757 14.896 105.31 17.6263 106.551 20.2599C109.128 25.7205 111.332 31.2898 111.717 37.3786L111.693 37.3906ZM97.3264 15.3309C97.4348 15.2464 97.5431 15.1739 97.6154 15.0531C98.0128 14.5215 97.4107 13.555 96.8929 13.6759C95.7368 13.9416 95.0263 15.2343 94.4482 16.4424C93.8823 17.6384 93.5089 18.9915 93.3163 20.3928C93.1477 21.6492 94.665 21.9996 94.8336 20.7553C94.9781 19.7284 95.231 18.7498 95.6164 17.8438C95.797 17.433 95.9897 17.0343 96.2064 16.6598C96.5316 16.1283 96.8567 15.6813 97.3143 15.3189L97.3264 15.3309ZM100.939 33.2227C100.807 32.4133 100.397 31.0723 99.4699 31.1811C99.1568 31.2173 98.8799 31.5073 98.6992 31.8576C98.3259 32.5945 98.1332 33.6093 98.3018 34.4067C98.4824 35.2765 99.3615 35.3369 100.048 35.047C100.192 34.9865 100.337 34.902 100.457 34.8174C100.987 34.4308 101.035 33.8268 100.939 33.2227ZM99.6506 13.4222C99.1929 13.2409 98.5788 13.2651 98.5065 13.9779C98.4704 14.3524 98.6029 14.8235 98.9039 14.9806C98.9882 15.0168 99.0605 15.0531 99.1448 15.0893C99.2893 15.1497 99.4218 15.2222 99.5542 15.3309C99.9637 15.6813 100.361 16.4424 100.903 15.935C101.939 14.9564 100.373 13.7 99.6626 13.4222H99.6506Z" fill="#97C93D"/>
<path d="M88.9448 104.271C89.2459 110.311 83.2969 115.361 75.6741 115.554C68.0513 115.748 61.5966 109.828 61.2473 102.338C60.9101 94.8356 66.7868 89.9186 74.4458 91.1992C82.1047 92.4798 88.6438 98.2424 88.9448 104.271Z" fill="white"/>
<path d="M82.249 111.072C82.4779 110.348 82.6585 109.562 82.7669 108.789L82.8271 108.173V108.016L82.8391 107.98V107.956V107.883V107.581C82.8391 107.17 82.8512 106.76 82.8632 106.349C82.8753 105.938 82.815 105.527 82.803 105.117L82.7669 104.5C82.7428 104.295 82.7067 104.102 82.6705 103.896C82.6344 103.703 82.5983 103.498 82.5742 103.304C82.5501 103.111 82.514 102.906 82.4538 102.725C82.3454 102.35 82.2491 101.963 82.1407 101.601C81.9962 101.251 81.8637 100.9 81.7192 100.562C81.5506 100.236 81.382 99.9218 81.2134 99.6077C81.0207 99.3177 80.8281 99.0399 80.6354 98.762C80.4307 98.5083 80.2139 98.2667 80.0212 98.0372C79.8044 97.8197 79.5877 97.6264 79.383 97.4331C79.1662 97.264 78.9494 97.0948 78.7568 96.9378C78.552 96.8049 78.3473 96.6599 78.1667 96.5512C77.974 96.4425 77.8054 96.3458 77.6368 96.2613C77.3117 96.1042 77.0467 95.9834 76.8661 95.923C76.6855 95.8626 76.5771 95.8263 76.5771 95.8263C76.5771 95.8263 76.6855 95.8384 76.8781 95.8867C77.0708 95.9351 77.3478 96.0076 77.697 96.1405C77.8656 96.2129 78.0583 96.2975 78.263 96.3821C78.4677 96.4787 78.6725 96.5995 78.9013 96.7203C79.118 96.8653 79.3468 97.0103 79.5997 97.1673C79.8285 97.3485 80.0694 97.5418 80.3102 97.7593C80.527 97.9888 80.7799 98.2304 81.0087 98.4841C81.2254 98.762 81.4422 99.0399 81.659 99.3419C81.8517 99.656 82.0443 99.9822 82.237 100.32C82.3936 100.671 82.5501 101.045 82.7187 101.408C82.8512 101.782 82.9595 102.181 83.092 102.58C83.1643 102.773 83.2004 102.978 83.2365 103.184C83.2727 103.389 83.3088 103.594 83.3449 103.8C83.381 104.005 83.4292 104.21 83.4533 104.428L83.5015 105.068C83.5255 105.491 83.5858 105.914 83.5737 106.349C83.5737 106.772 83.5496 107.207 83.5376 107.629V107.943V108.028V108.076V108.113V108.27L83.4533 108.886C83.3329 109.744 83.1161 110.541 82.8512 111.302C82.6705 111.821 82.4417 112.317 82.2009 112.776C82.249 112.703 82.2972 112.631 82.3454 112.546C82.4176 112.425 82.4779 112.305 82.5381 112.196C82.6705 111.954 82.815 111.725 82.9355 111.459C83.4412 110.456 83.8507 109.321 84.1277 108.125C84.4046 106.917 84.5612 105.624 84.5251 104.307C84.5251 104.138 84.5251 103.969 84.513 103.812C84.501 103.643 84.4769 103.486 84.4649 103.316C84.4528 103.147 84.4408 102.978 84.4046 102.821C84.3806 102.652 84.3444 102.495 84.3203 102.326C84.2722 101.988 84.1758 101.673 84.0915 101.347C84.0072 100.997 83.8868 100.731 83.7905 100.429L83.7182 100.212L83.5978 99.9459C83.5135 99.7768 83.4292 99.5956 83.3449 99.4144L83.2967 99.3056C83.2967 99.3056 83.2967 99.3056 83.2967 99.2936V99.2815L83.2726 99.2332L83.1402 99.0157C83.0559 98.8707 82.9596 98.7258 82.8632 98.5808C82.4779 98.0009 82.0202 97.4573 81.5024 96.974C80.9846 96.4908 80.4066 96.0438 79.7804 95.6814C79.4793 95.5002 79.1301 95.3189 78.829 95.1981L78.7086 95.1498L78.5641 95.0894L78.2751 94.9807L78.0463 94.8961C77.962 94.872 77.8777 94.8478 77.7813 94.8236C76.3844 94.4129 74.8069 94.3646 73.3377 94.6666C71.8203 94.9807 70.4355 95.7055 69.2192 96.7082C68.0029 97.723 67.0516 99.064 66.4133 100.526L66.2086 101.082L66.1002 101.359L66.028 101.649L65.8714 102.229L65.7751 102.821C65.6908 103.208 65.7028 103.606 65.6667 104.005C65.6667 104.198 65.6787 104.38 65.6908 104.561C65.6908 104.742 65.6908 104.923 65.7389 105.153L65.8353 105.829V105.902C65.8353 105.902 65.8353 105.902 65.8473 105.926L65.8834 106.071C65.9075 106.168 65.9196 106.264 65.9557 106.349C66.052 106.723 66.1965 107.086 66.3531 107.436C66.6782 108.137 67.1118 108.789 67.6416 109.357C68.7014 110.505 70.1344 111.326 71.6758 111.797C72.0612 111.918 72.4465 112.015 72.8439 112.099L73.133 112.148L73.4581 112.196C73.6267 112.208 73.8314 112.244 74.0241 112.256C74.4095 112.293 74.7828 112.281 75.1561 112.256C75.5294 112.22 75.9027 112.16 76.2519 112.063C76.9384 111.87 77.5766 111.568 78.1306 111.145C78.263 110.988 78.3955 110.819 78.5039 110.65C78.829 110.178 79.0578 109.647 79.2144 109.127C79.2987 108.862 79.3228 108.596 79.383 108.33C79.407 108.064 79.4311 107.811 79.4432 107.557C79.4311 107.303 79.4432 107.049 79.407 106.82C79.3709 106.578 79.3589 106.349 79.2987 106.131C79.118 105.249 78.8411 104.549 78.6243 104.078C78.4075 103.594 78.2389 103.341 78.2389 103.341C78.2389 103.341 78.4196 103.582 78.6845 104.041C78.9374 104.512 79.2746 105.189 79.4913 106.083C79.5636 106.3 79.5756 106.542 79.6359 106.784C79.684 107.025 79.684 107.291 79.7081 107.545C79.7081 107.811 79.7081 108.076 79.684 108.366C79.6359 108.644 79.6118 108.922 79.5275 109.212C79.4311 109.562 79.2987 109.913 79.1301 110.251L79.2023 110.166L79.2866 110.058C79.2866 110.058 79.2987 110.033 79.2987 110.046L79.3227 110.021L79.3589 109.961C79.4793 109.816 79.5756 109.671 79.684 109.514C80.4909 108.282 80.9003 106.796 80.816 105.406C80.7919 105.237 80.7919 105.044 80.7678 104.899L80.7317 104.657L80.6595 104.368C80.6354 104.223 80.5631 104.041 80.5149 103.872C80.4547 103.703 80.3945 103.546 80.3343 103.377C80.0694 102.725 79.6961 102.12 79.2746 101.601C78.4075 100.55 77.2755 99.801 76.0713 99.5714C74.8911 99.3177 73.723 99.6801 72.8921 100.381C71.9769 101.13 71.447 102.133 71.3386 103.123C71.2182 104.102 71.5554 105.129 72.0732 105.89C72.3382 106.264 72.6513 106.59 72.9885 106.832C73.0728 106.892 73.1691 106.941 73.2534 107.001C73.3497 107.049 73.4099 107.086 73.5063 107.122L73.6749 107.182H73.723C73.723 107.182 73.723 107.207 73.723 107.194L73.7953 107.219C73.8916 107.255 73.988 107.267 74.0843 107.303C74.8671 107.484 75.5655 107.315 75.9268 106.892L75.9991 106.808L76.0472 106.735C76.0472 106.735 76.1315 106.602 76.1676 106.518C76.2279 106.409 76.276 106.252 76.3242 106.107C76.4085 105.817 76.4326 105.527 76.4446 105.262C76.4446 104.73 76.3122 104.283 76.1074 103.993C75.6619 103.401 75.0718 103.377 75.1079 103.353C75.1079 103.353 75.2163 103.329 75.4451 103.304C75.6739 103.304 76.0593 103.341 76.4446 103.643C76.6373 103.788 76.83 104.005 76.9624 104.271C77.119 104.537 77.2153 104.851 77.2755 105.189C77.3358 105.527 77.3358 105.914 77.2755 106.313C77.2394 106.518 77.2033 106.699 77.1069 106.941C77.0588 107.086 76.9143 107.388 76.7698 107.569C76.4687 107.98 75.9991 108.306 75.4812 108.475C74.9634 108.644 74.4095 108.668 73.8555 108.596C73.723 108.572 73.5785 108.56 73.4461 108.523L73.3377 108.499H73.3136L73.2654 108.475H73.2173L73.0366 108.403C72.9162 108.354 72.7356 108.294 72.6031 108.233C72.4706 108.173 72.3382 108.101 72.2057 108.016C71.6879 107.714 71.2182 107.279 70.8208 106.784C70.4234 106.288 70.1224 105.696 69.9056 105.056C69.7009 104.416 69.5925 103.691 69.6407 102.966C69.7009 102.108 70.0019 101.251 70.4716 100.49C70.3993 100.538 70.3271 100.586 70.2548 100.647C69.9658 100.864 69.7129 101.142 69.4721 101.432C69.2433 101.734 69.0506 102.06 68.9061 102.423C68.8338 102.592 68.7736 102.785 68.7134 102.954C68.6652 103.147 68.605 103.341 68.5809 103.522C68.5087 103.884 68.4846 104.271 68.4966 104.633C68.5087 105.358 68.6652 106.035 68.87 106.59C69.0747 107.146 69.2914 107.593 69.4721 107.883C69.6407 108.185 69.7611 108.354 69.7611 108.354C69.7611 108.354 69.725 108.318 69.6648 108.245C69.6045 108.173 69.5202 108.064 69.4119 107.931C69.3155 107.786 69.1951 107.617 69.0626 107.4C68.9302 107.194 68.7977 106.941 68.6893 106.663C68.5689 106.385 68.4605 106.071 68.3642 105.733C68.2799 105.394 68.2076 105.032 68.1956 104.645C68.1835 104.259 68.1956 103.86 68.2558 103.461C68.2799 103.256 68.3401 103.063 68.3762 102.87C68.4364 102.664 68.4966 102.471 68.5809 102.278C68.7375 101.891 68.9663 101.541 69.2071 101.214C69.4721 100.9 69.7491 100.61 70.0622 100.393C70.2067 100.272 70.3753 100.175 70.5318 100.079C70.6402 100.03 70.7486 99.9701 70.857 99.9218C71.1098 99.6077 71.3868 99.3177 71.6879 99.0519C72.302 98.5083 73.0246 98.1096 73.8314 97.8801C74.6383 97.6506 75.5294 97.6143 76.3603 97.7714C78.0463 98.0613 79.5756 99.064 80.6835 100.381C81.2375 101.045 81.7071 101.806 82.0684 102.616C82.249 103.027 82.3936 103.437 82.514 103.908L82.5862 104.198L82.6465 104.561C82.6946 104.815 82.7067 105.032 82.7307 105.262C82.8753 107.122 82.3695 109.019 81.3459 110.625C81.2134 110.831 81.0809 111.024 80.9364 111.217L80.804 111.387L80.7076 111.507L80.5029 111.749C80.3343 111.93 80.1537 112.136 79.973 112.293C79.7924 112.462 79.6118 112.631 79.4191 112.776C78.6484 113.392 77.7332 113.851 76.7698 114.141C76.2881 114.286 75.7943 114.371 75.3006 114.431C74.8069 114.467 74.3131 114.491 73.8194 114.455C73.5665 114.455 73.3377 114.419 73.0728 114.383L72.7356 114.334L72.3743 114.274C72.2539 114.25 72.1455 114.226 72.0251 114.201C71.7601 114.201 71.5072 114.177 71.2664 114.153C70.3632 114.068 69.6286 113.851 69.1228 113.694C68.9181 113.621 68.7616 113.561 68.6412 113.513C68.5809 113.489 68.5207 113.452 68.4726 113.428C68.605 113.477 68.8338 113.549 69.1469 113.621C69.5925 113.742 70.2067 113.863 70.9412 113.924C69.0988 113.38 67.3165 112.413 65.9075 110.952C65.197 110.215 64.6069 109.369 64.1614 108.439C63.9446 107.968 63.7519 107.496 63.6195 107.001C63.5833 106.88 63.5472 106.76 63.5231 106.627L63.475 106.445C63.475 106.445 63.475 106.482 63.4509 106.337V106.288L63.4268 106.204L63.3064 105.539C63.2582 105.334 63.2462 105.056 63.2341 104.79C63.2221 104.525 63.198 104.259 63.186 103.993C63.2221 103.486 63.198 102.978 63.2943 102.483C63.3305 102.229 63.3666 101.988 63.4027 101.734L63.5833 100.997L63.6797 100.635L63.8001 100.284L64.053 99.5714C64.1614 99.3177 64.2698 99.0761 64.3902 98.8345C64.2216 99.0761 64.065 99.3298 63.9085 99.5714C63.7158 99.8734 63.5834 100.2 63.4027 100.502C63.2462 100.828 63.1257 101.166 62.9933 101.492C62.8969 101.818 62.7765 102.205 62.6802 102.555C62.5236 103.244 62.4032 103.957 62.4032 104.682V105.213C62.4032 105.394 62.4273 105.564 62.4393 105.745C62.4393 106.095 62.5236 106.433 62.5718 106.772C62.644 107.11 62.7283 107.436 62.8126 107.75C62.921 108.064 62.9933 108.378 63.1257 108.668C63.2462 108.958 63.3545 109.248 63.487 109.514C63.6074 109.792 63.7399 110.046 63.8844 110.275C64.1493 110.758 64.4263 111.193 64.6912 111.556C64.8117 111.749 64.9441 111.906 65.0646 112.063C65.185 112.22 65.2934 112.365 65.4018 112.486C65.6065 112.74 65.7751 112.933 65.9075 113.054C66.028 113.187 66.0882 113.247 66.0882 113.247C66.0882 113.247 66.0159 113.187 65.8834 113.078C65.751 112.969 65.5463 112.8 65.3054 112.57C65.185 112.462 65.0525 112.329 64.9201 112.184C64.7876 112.039 64.631 111.882 64.4865 111.713C64.1855 111.362 63.8483 110.964 63.5472 110.48C63.4991 110.396 63.4388 110.311 63.3907 110.227C63.3305 110.106 63.2702 109.985 63.21 109.852C62.8367 109.055 62.4995 108.161 62.2587 107.182C62.0178 106.204 61.8733 105.153 61.8372 104.066C61.8372 103.836 61.8372 103.594 61.8372 103.353C61.8854 103.014 61.9456 102.688 62.0178 102.35C62.1262 101.976 62.2226 101.649 62.355 101.251C62.5116 100.9 62.644 100.538 62.8126 100.188C63.1619 99.511 63.5593 98.8707 64.0048 98.3029C64.2336 98.0251 64.4504 97.7351 64.6912 97.4935C64.8117 97.3727 64.9321 97.2398 65.0405 97.119C65.1609 97.0103 65.2813 96.8895 65.4138 96.7807C65.6306 96.5754 65.8473 96.3941 66.0641 96.225C66.4976 95.6935 66.9793 95.1981 67.4971 94.7511C67.8825 94.437 68.2558 94.1109 68.6773 93.8451C68.882 93.7122 69.0747 93.5551 69.2914 93.4464L69.9417 93.0961C70.1585 92.9632 70.3873 92.8786 70.6161 92.782C70.8449 92.6853 71.0617 92.5887 71.3025 92.5041L72.001 92.2866L72.3502 92.1779L72.6874 92.0933C74.6142 91.6705 76.5771 91.7068 78.4316 92.2262C78.54 92.2625 78.6604 92.2866 78.7688 92.3229L79.1421 92.4437L79.4432 92.5524L79.5877 92.6128L79.7683 92.6853C80.25 92.8786 80.6354 93.084 81.0569 93.3135C81.8637 93.7726 82.6103 94.3283 83.2847 94.9444C83.947 95.5726 84.5491 96.2613 85.0549 96.9982C85.1754 97.1915 85.3078 97.3727 85.4162 97.566L85.5848 97.8559L85.633 97.9284V97.9405C85.633 97.9405 85.633 97.9405 85.6811 98.0251V98.0613L85.7654 98.1942C85.8497 98.3633 85.934 98.5445 86.0304 98.7137L86.1628 98.9795L86.2832 99.3056C86.4518 99.7285 86.6325 100.163 86.7288 100.562C86.8492 100.973 86.9697 101.384 87.0299 101.794C87.066 102 87.1021 102.205 87.1503 102.41C87.1864 102.616 87.1985 102.821 87.2226 103.014L87.2828 103.619C87.2948 103.824 87.2948 104.017 87.3068 104.223C87.3671 105.817 87.1985 107.352 86.8733 108.789C86.5482 110.215 86.0785 111.556 85.4885 112.764C85.356 113.078 85.1753 113.356 85.0308 113.646C84.9586 113.791 84.8743 113.936 84.79 114.081C84.7298 114.177 84.6696 114.274 84.6094 114.358C85.6209 113.477 86.5361 112.425 87.2948 111.229C91.6421 104.452 89.6792 95.4156 82.9234 91.0665C76.1676 86.7174 67.1599 88.6745 62.8247 95.4518C58.4774 102.229 60.4403 111.266 67.1961 115.615C69.2192 116.92 71.435 117.657 73.6749 117.862C73.8194 117.862 73.988 117.862 74.1927 117.85C74.9032 117.801 75.975 117.644 77.2394 117.101C77.8656 116.835 78.54 116.473 79.2264 115.977C79.395 115.844 79.5756 115.724 79.7322 115.591C79.7804 115.554 79.8285 115.506 79.8767 115.458C80.0212 115.264 80.1778 115.071 80.3343 114.854C80.6835 114.346 81.0448 113.779 81.37 113.15C81.6831 112.522 81.9841 111.834 82.225 111.109L82.249 111.072ZM76.3001 100.333C76.2038 100.333 76.1074 100.32 75.9991 100.308C75.7943 100.308 75.5655 100.333 75.3367 100.393C75.1079 100.441 74.8791 100.55 74.6503 100.659C74.5419 100.719 74.4215 100.792 74.3131 100.864C74.2047 100.949 74.0964 101.021 73.988 101.106C73.7832 101.275 73.5785 101.468 73.4099 101.686C73.2293 101.891 73.0848 102.133 72.9764 102.35C72.9162 102.459 72.868 102.616 72.8078 102.749C72.7717 102.833 72.7356 102.99 72.7115 103.111C72.6031 103.619 72.6031 104.126 72.6513 104.561C72.6753 104.778 72.7115 104.972 72.7596 105.141C72.8078 105.31 72.868 105.455 72.9403 105.564C73.0607 105.793 73.1811 105.902 73.1811 105.902C73.1811 105.902 73.145 105.878 73.0848 105.853C73.0246 105.817 72.9282 105.757 72.8319 105.66C72.7356 105.564 72.6151 105.431 72.5188 105.262C72.4225 105.092 72.3261 104.887 72.2659 104.657C72.1214 104.198 72.0371 103.643 72.1094 103.027C72.1334 102.87 72.1575 102.737 72.2057 102.543C72.2539 102.398 72.278 102.265 72.3622 102.12C72.5068 101.806 72.6754 101.516 72.8801 101.263C73.0848 101.009 73.3256 100.78 73.5785 100.586C73.699 100.49 73.8435 100.405 73.9759 100.32C74.1204 100.248 74.2529 100.175 74.3974 100.115C74.6864 100.006 74.9754 99.9338 75.2645 99.8976C75.5414 99.8614 75.8184 99.8976 76.0593 99.9338C76.1797 99.9701 76.2881 99.9942 76.3964 100.03C76.4928 100.079 76.5891 100.127 76.6855 100.163C76.8541 100.248 76.9865 100.369 77.0949 100.441C77.2876 100.635 77.396 100.743 77.396 100.743C77.396 100.743 77.2515 100.671 77.0227 100.55C76.9022 100.514 76.7577 100.453 76.5891 100.405C76.5048 100.393 76.4085 100.369 76.3242 100.357L76.3001 100.333ZM76.1917 95.4398C76.0472 95.4398 75.8907 95.4398 75.7341 95.4277C75.421 95.4035 75.1079 95.4277 74.7828 95.4398H74.5419L74.3011 95.4881C74.1325 95.5122 73.9639 95.5364 73.7953 95.5606C73.4581 95.633 73.1209 95.7297 72.7837 95.8263C72.6151 95.8868 72.4586 95.9592 72.29 96.0317C72.1214 96.1042 71.9528 96.1525 71.7963 96.2613C71.6397 96.3458 71.4832 96.4425 71.3146 96.527C71.2303 96.5754 71.146 96.6116 71.0737 96.6599L70.8449 96.8291C70.5438 97.0465 70.2307 97.2519 69.9779 97.5297C69.7129 97.7955 69.4359 98.013 69.1951 98.3392L68.8218 98.7862L68.6291 99.0157L68.4846 99.2332C68.2799 99.5593 68.0511 99.8614 67.8825 100.188C67.7982 100.357 67.7139 100.526 67.6296 100.683C67.5573 100.852 67.449 101.009 67.4008 101.178C67.3406 101.347 67.2804 101.516 67.2201 101.686C67.1599 101.855 67.0877 102.024 67.0636 102.193C66.895 102.882 66.7987 103.57 66.8228 104.223C66.8228 104.392 66.8228 104.549 66.8228 104.706C66.8468 104.863 66.8589 105.02 66.883 105.177C66.907 105.491 66.9793 105.781 67.0395 106.059C67.172 106.627 67.3526 107.122 67.5212 107.569C67.6175 107.786 67.7139 107.992 67.7982 108.173C67.8945 108.354 67.9909 108.523 68.0631 108.668C68.2438 108.958 68.3762 109.188 68.4846 109.345C68.593 109.49 68.6532 109.574 68.6532 109.574C68.6532 109.574 68.5809 109.502 68.4605 109.369C68.3401 109.236 68.1595 109.031 67.9547 108.741C67.8584 108.596 67.75 108.439 67.6296 108.27C67.5212 108.088 67.4008 107.895 67.2804 107.678C67.0516 107.243 66.8107 106.747 66.6421 106.168C66.5578 105.878 66.4615 105.576 66.4133 105.249C66.3892 105.092 66.3531 104.923 66.317 104.754C66.3049 104.585 66.2929 104.416 66.2808 104.235C66.2206 103.534 66.2808 102.785 66.4494 102.036C66.4735 101.843 66.5458 101.661 66.606 101.48C66.6662 101.299 66.7264 101.106 66.7866 100.924C66.9191 100.55 67.1118 100.2 67.2804 99.8372C67.461 99.4748 67.7018 99.1607 67.9186 98.8103C67.9788 98.7137 68.0149 98.6533 68.0992 98.5445L68.2919 98.315L68.6652 97.8559C68.894 97.5418 69.2192 97.2761 69.5202 96.9861C69.8093 96.6841 70.1585 96.4666 70.4836 96.2371C70.7967 95.9834 71.1821 95.8263 71.5193 95.6451C71.6879 95.5485 71.8806 95.4881 72.0612 95.4156C72.2418 95.3431 72.4225 95.2827 72.6031 95.2223C72.9764 95.1257 73.3377 95.029 73.699 94.9807C73.8796 94.9565 74.0602 94.9444 74.2409 94.9203L74.5058 94.8961H74.7707C75.12 94.8961 75.4571 94.8961 75.7823 94.9444C75.9388 94.9686 76.1074 94.9807 76.264 94.9928C76.4205 95.029 76.565 95.0532 76.7216 95.0894C77.3117 95.1981 77.8415 95.3794 78.2871 95.5606C78.7327 95.7418 79.118 95.9351 79.4191 96.1042C79.5756 96.1888 79.6961 96.2733 79.8165 96.3458C79.9249 96.4183 80.0212 96.4787 80.0935 96.5512C80.238 96.672 80.3102 96.7324 80.3102 96.7324C80.3102 96.7324 80.2259 96.6841 80.0694 96.5874C79.9128 96.4908 79.672 96.37 79.3589 96.2371C79.0458 96.0921 78.6604 95.9472 78.2028 95.8263C77.974 95.7659 77.7332 95.6935 77.4682 95.6451C77.2033 95.5968 76.9384 95.5364 76.6493 95.5002C76.5048 95.476 76.3603 95.4639 76.2158 95.4398H76.1917Z" fill="#F05075"/>
<path d="M71.7724 88.2757C71.7724 88.2152 54.8769 90.3052 60.5128 108.523L60.5489 108.644C60.5489 108.644 60.5128 108.523 60.4526 108.294C59.8143 105.926 56.9001 92.3952 71.7724 88.2757Z" fill="#F05075"/>
<path d="M89.6189 96.2609L89.5587 96.1401C89.5587 96.1401 89.6189 96.2609 89.7152 96.4663C90.7388 98.6892 94.9657 111.676 81.0206 118.309C81.0206 118.369 98.2894 113.235 89.6189 96.2489V96.2609Z" fill="#F05075"/>
</g>
<defs>
<clipPath id="clip0_201_1617">
<rect width="125" height="125" fill="white" transform="translate(0.5)"/>
</clipPath>
</defs>
</svg>
