<svg width="34" height="27" viewBox="0 0 34 27" fill="none" xmlns="http://www.w3.org/2000/svg">
<g clip-path="url(#clip0_186_1343)">
<path d="M33.2468 26.0615V26.1279H33.3087C33.3203 26.1281 33.3317 26.1252 33.3419 26.1194C33.35 26.1136 33.3548 26.104 33.3543 26.094C33.3548 26.0842 33.35 26.0748 33.3419 26.0693C33.3319 26.0633 33.3203 26.0603 33.3087 26.0608H33.2468V26.0615ZM33.3093 26.0145C33.3359 26.0129 33.3621 26.0205 33.3837 26.0361C33.4013 26.0504 33.4109 26.0723 33.4097 26.0949C33.4105 26.1143 33.4029 26.133 33.3888 26.1465C33.3722 26.1609 33.3513 26.1695 33.3294 26.1712L33.4124 26.2658H33.3485L33.2722 26.1719H33.2474V26.2658H33.194V26.0147H33.3102H33.3093V26.0145ZM33.2927 26.3525C33.3208 26.3528 33.3485 26.3472 33.3742 26.3359C33.3989 26.3252 33.4215 26.31 33.4406 26.2909C33.4597 26.2718 33.4749 26.2494 33.4855 26.2245C33.5073 26.1719 33.5073 26.1128 33.4855 26.0602C33.4748 26.0354 33.4595 26.0129 33.4406 25.9938C33.4215 25.9747 33.3989 25.9594 33.3742 25.9488C33.3483 25.9382 33.3206 25.9329 33.2927 25.9332C33.2644 25.9329 33.2362 25.9382 33.2098 25.9488C33.1844 25.9592 33.1615 25.9745 33.1419 25.9938C33.0819 26.0553 33.0644 26.1468 33.0976 26.2262C33.1077 26.251 33.1228 26.2736 33.1419 26.2925C33.1615 26.3118 33.1844 26.3271 33.2098 26.3375C33.236 26.3486 33.2642 26.3545 33.2927 26.3541M33.2927 25.8728C33.3656 25.8728 33.4358 25.9013 33.4877 25.9524C33.5127 25.977 33.5327 26.0062 33.5464 26.0386C33.5751 26.1056 33.5751 26.1815 33.5464 26.2486C33.5325 26.2808 33.5124 26.31 33.4877 26.3347C33.4623 26.3591 33.4326 26.3789 33.4003 26.3928C33.3662 26.4072 33.3297 26.4145 33.2927 26.4144C33.2554 26.4147 33.2184 26.4072 33.1839 26.3928C33.1512 26.3792 33.1213 26.3594 33.0958 26.3347C33.0711 26.309 33.0513 26.2788 33.0379 26.2457C33.0092 26.1787 33.0092 26.1028 33.0379 26.0358C33.0517 26.0034 33.0716 25.9742 33.0966 25.9496C33.1217 25.9246 33.1517 25.9046 33.1847 25.8915C33.2192 25.8771 33.2562 25.8696 33.2936 25.8699M7.88757 24.9029C7.88757 24.424 8.20115 24.0306 8.71367 24.0306C9.22619 24.0306 9.53396 24.4071 9.53396 24.9029C9.53396 25.3987 9.20346 25.7752 8.71367 25.7752C8.22388 25.7752 7.88757 25.3818 7.88757 24.9029ZM10.0923 24.9029V23.5401H9.50012V23.8721C9.3123 23.6268 9.02742 23.4729 8.64 23.4729C7.87679 23.4729 7.27783 24.0718 7.27783 24.9036C7.27783 25.7353 7.87645 26.3342 8.64 26.3342C9.02725 26.3342 9.3123 26.1802 9.50012 25.935V26.2658H10.0916V24.9029H10.0923ZM30.1005 24.9029C30.1005 24.424 30.4141 24.0306 30.9268 24.0306C31.4395 24.0306 31.7471 24.4071 31.7471 24.9029C31.7471 25.3987 31.4171 25.7752 30.9268 25.7752C30.4365 25.7752 30.1005 25.3818 30.1005 24.9029ZM32.3059 24.9029V22.4463H31.7132V23.8721C31.5254 23.6268 31.2405 23.4729 30.8531 23.4729C30.0899 23.4729 29.4909 24.0718 29.4909 24.9036C29.4909 25.7353 30.0896 26.3342 30.8531 26.3342C31.2405 26.3342 31.5254 26.1802 31.7132 25.935V26.2658H32.3059V24.9029ZM17.4417 24.0026C17.8233 24.0026 18.0684 24.2419 18.1309 24.6634H16.718C16.7812 24.27 17.02 24.0026 17.4419 24.0026M17.4537 23.4714C16.6556 23.4714 16.0973 24.0524 16.0973 24.9021C16.0973 25.7518 16.678 26.3327 17.4933 26.3327C17.9035 26.3327 18.2791 26.2303 18.6096 25.9509L18.3194 25.5119C18.0911 25.6945 17.8004 25.7969 17.5272 25.7969C17.1456 25.7969 16.7981 25.6201 16.7127 25.1296H18.7347C18.7405 25.0559 18.7465 24.9816 18.7465 24.9019C18.7405 24.0525 18.2156 23.4713 17.4533 23.4713M24.6027 24.9019C24.6027 24.423 24.9163 24.0296 25.4288 24.0296C25.9413 24.0296 26.2491 24.4061 26.2491 24.9019C26.2491 25.3977 25.9186 25.7742 25.4288 25.7742C24.939 25.7742 24.6025 25.3808 24.6025 24.9019M26.8072 24.9019V23.5401H26.2154V23.8721C26.0269 23.6268 25.7427 23.4729 25.3553 23.4729C24.5921 23.4729 23.9931 24.0718 23.9931 24.9036C23.9931 25.7353 24.5917 26.3342 25.3553 26.3342C25.7427 26.3342 26.0269 26.1802 26.2154 25.935V26.2658H26.8074V24.9019H26.8072ZM21.2586 24.9019C21.2586 25.7284 21.8337 26.3325 22.7114 26.3325C23.1215 26.3325 23.3948 26.2413 23.6903 26.0077L23.4059 25.5288C23.1836 25.6887 22.9502 25.7742 22.6925 25.7742C22.2198 25.7684 21.8722 25.4264 21.8722 24.9019C21.8722 24.3774 22.2198 24.0356 22.6925 24.0296C22.9495 24.0296 23.1829 24.1151 23.4059 24.275L23.6903 23.7961C23.3943 23.5626 23.1211 23.4713 22.7114 23.4713C21.8337 23.4713 21.2586 24.0753 21.2586 24.9019ZM28.8925 23.4713C28.5508 23.4713 28.3283 23.6311 28.1745 23.8705V23.5401H27.5877V26.2643H28.1805V24.7372C28.1805 24.2864 28.3741 24.0359 28.7612 24.0359C28.888 24.0341 29.0139 24.0574 29.1315 24.1045L29.3141 23.5461C29.183 23.4945 29.0121 23.4718 28.8921 23.4718M13.0199 23.7568C12.735 23.5689 12.3424 23.4718 11.9094 23.4718C11.2195 23.4718 10.7754 23.8026 10.7754 24.3439C10.7754 24.788 11.106 25.0621 11.7149 25.1476L11.9947 25.1874C12.3194 25.233 12.4727 25.3185 12.4727 25.4724C12.4727 25.683 12.257 25.8032 11.852 25.8032C11.447 25.8032 11.1458 25.6721 10.9462 25.5182L10.668 25.9802C10.9927 26.2195 11.4028 26.3337 11.847 26.3337C12.6335 26.3337 13.0892 25.9632 13.0892 25.4445C13.0892 24.9656 12.7305 24.7152 12.1379 24.6297L11.8588 24.5892C11.6024 24.556 11.397 24.5044 11.397 24.3218C11.397 24.1226 11.5907 24.0028 11.9155 24.0028C12.2631 24.0028 12.5996 24.1339 12.7645 24.2363L13.0209 23.7574L13.0199 23.7568ZM20.6605 23.4723C20.3189 23.4723 20.0964 23.6321 19.9432 23.8715V23.5401H19.3564V26.2643H19.9486V24.7372C19.9486 24.2864 20.1422 24.0359 20.5293 24.0359C20.656 24.0341 20.782 24.0574 20.8996 24.1045L21.0821 23.5461C20.951 23.4945 20.7801 23.4718 20.6602 23.4718M15.6073 23.5401H14.6391V22.7137H14.0404V23.5401H13.4881V24.0816H14.0404V25.3243C14.0404 25.9564 14.2857 26.3329 14.9862 26.3329C15.2432 26.3329 15.5392 26.2532 15.727 26.1222L15.5559 25.615C15.3792 25.7174 15.1856 25.769 15.0316 25.769C14.7356 25.769 14.6391 25.5864 14.6391 25.3131V24.0821H15.6073V23.5401ZM6.75419 26.265V24.5553C6.75419 23.9115 6.34405 23.4782 5.68287 23.4724C5.33527 23.4666 4.97673 23.5748 4.7257 23.9571C4.53788 23.655 4.24188 23.4724 3.82576 23.4724C3.53491 23.4724 3.2507 23.5579 3.0282 23.8769V23.5401H2.43555V26.2643H3.03285V24.7538C3.03285 24.2809 3.295 24.0296 3.69983 24.0296C4.10467 24.0296 4.29199 24.2861 4.29199 24.7479V26.264H4.89062V24.7535C4.89062 24.2806 5.16388 24.0293 5.55694 24.0293C5.95 24.0293 6.15424 24.2858 6.15424 24.7475V26.2637L6.75419 26.265Z" fill="#231F20"/>
<path d="M33.5869 17.2035V16.8052H33.4832L33.3633 17.0786L33.244 16.8052H33.1399V17.2035H33.2136V16.9034L33.3258 17.1624H33.4021L33.5142 16.9028V17.2035H33.5872H33.5869ZM32.9291 17.2035V16.8734H33.0618V16.8062H32.7227V16.8734H32.8554V17.2035H32.9291Z" fill="#F79410"/>
<path d="M21.798 18.9118H12.8242V2.77783H21.7982V18.9118H21.798Z" fill="#FF5F00"/>
<path d="M13.3948 10.8458C13.3948 7.57304 14.9265 4.65763 17.3118 2.77883C15.5062 1.35465 13.2732 0.581652 10.9739 0.584972C5.31 0.584972 0.71875 5.17883 0.71875 10.8458C0.71875 16.5128 5.31 21.1066 10.9739 21.1066C13.2732 21.1101 15.5064 20.3371 17.3119 18.9128C14.9269 17.0343 13.3948 14.1187 13.3948 10.8458Z" fill="#EB001B"/>
<path d="M33.9065 10.8458C33.9065 16.5128 29.3153 21.1066 23.6514 21.1066C21.3517 21.11 19.1183 20.337 17.3125 18.9128C19.6984 17.034 21.2301 14.1187 21.2301 10.8458C21.2301 7.57287 19.6984 4.65763 17.3125 2.77883C19.1183 1.35465 21.3517 0.581652 23.6512 0.584972C29.3151 0.584972 33.9063 5.17883 33.9063 10.8458" fill="#F79E1B"/>
</g>
<defs>
<clipPath id="clip0_186_1343">
<rect width="33.1875" height="25.8303" fill="white" transform="translate(0.71875 0.584961)"/>
</clipPath>
</defs>
</svg>
