<svg width="45" height="35" viewBox="0 0 45 35" fill="none" xmlns="http://www.w3.org/2000/svg">
<g clip-path="url(#clip0_128_2193)">
<path d="M43.7457 34.2485V34.337H43.8282C43.8437 34.3372 43.859 34.3335 43.8725 34.3257C43.8833 34.318 43.8897 34.3051 43.8891 34.2919C43.8897 34.2788 43.8833 34.2662 43.8725 34.2589C43.8592 34.2509 43.8437 34.2469 43.8282 34.2476H43.7457V34.2485ZM43.8291 34.1859C43.8645 34.1836 43.8995 34.1938 43.9282 34.2146C43.9517 34.2337 43.9645 34.2629 43.963 34.293C43.9641 34.3189 43.9539 34.3439 43.9351 34.3618C43.913 34.3811 43.8851 34.3926 43.8559 34.3948L43.9665 34.5209H43.8813L43.7796 34.3957H43.7466V34.5209H43.6754V34.1861H43.8302H43.8291V34.1859ZM43.807 34.6365C43.8444 34.6369 43.8813 34.6294 43.9156 34.6143C43.9486 34.6002 43.9787 34.5798 44.0041 34.5544C44.0295 34.5289 44.0499 34.499 44.0641 34.4658C44.093 34.3957 44.093 34.3169 44.0641 34.2467C44.0497 34.2137 44.0293 34.1836 44.0041 34.1582C43.9787 34.1327 43.9486 34.1124 43.9156 34.0982C43.8811 34.0841 43.8442 34.077 43.807 34.0774C43.7692 34.077 43.7316 34.0841 43.6964 34.0982C43.6625 34.1122 43.632 34.1325 43.6059 34.1582C43.5258 34.2403 43.5026 34.3622 43.5468 34.468C43.5603 34.5012 43.5805 34.5313 43.6059 34.5566C43.632 34.5822 43.6625 34.6026 43.6964 34.6165C43.7313 34.6314 43.7689 34.6391 43.807 34.6387M43.807 33.9969C43.9041 33.9969 43.9977 34.0349 44.0669 34.1031C44.1003 34.1358 44.1269 34.1748 44.1452 34.218C44.1835 34.3074 44.1835 34.4085 44.1452 34.4979C44.1267 34.5409 44.0999 34.5798 44.0669 34.6128C44.0331 34.6453 43.9935 34.6716 43.9503 34.6902C43.905 34.7095 43.8563 34.7192 43.807 34.719C43.7572 34.7195 43.7079 34.7095 43.6619 34.6902C43.6183 34.6721 43.5785 34.6458 43.5444 34.6128C43.5114 34.5785 43.4851 34.5382 43.4672 34.4942C43.4289 34.4047 43.4289 34.3036 43.4672 34.2142C43.4856 34.171 43.5121 34.1321 43.5455 34.0993C43.5789 34.0659 43.619 34.0393 43.663 34.0219C43.709 34.0026 43.7583 33.9927 43.8081 33.9931M9.93343 32.7037C9.93343 32.0652 10.3515 31.5407 11.0349 31.5407C11.7183 31.5407 12.1286 32.0426 12.1286 32.7037C12.1286 33.3648 11.6879 33.8667 11.0349 33.8667C10.3818 33.8667 9.93343 33.3422 9.93343 32.7037ZM12.873 32.7037V30.8867H12.0835V31.3293C11.8331 31.0022 11.4532 30.7971 10.9367 30.7971C9.91905 30.7971 9.12044 31.5956 9.12044 32.7046C9.12044 33.8136 9.91861 34.6121 10.9367 34.6121C11.453 34.6121 11.8331 34.4067 12.0835 34.0799V34.5209H12.8721V32.7037H12.873ZM39.5507 32.7037C39.5507 32.0652 39.9688 31.5407 40.6524 31.5407C41.3359 31.5407 41.7461 32.0426 41.7461 32.7037C41.7461 33.3648 41.3061 33.8667 40.6524 33.8667C39.9986 33.8667 39.5507 33.3422 39.5507 32.7037ZM42.4912 32.7037V29.4282H41.701V31.3293C41.4505 31.0022 41.0707 30.7971 40.5541 30.7971C39.5365 30.7971 38.7379 31.5956 38.7379 32.7046C38.7379 33.8136 39.5361 34.6121 40.5541 34.6121C41.0707 34.6121 41.4505 34.4067 41.701 34.0799V34.5209H42.4912V32.7037ZM22.6723 31.5033C23.1811 31.5033 23.5079 31.8224 23.5913 32.3843H21.7073C21.7916 31.8598 22.1099 31.5033 22.6725 31.5033M22.6882 30.7951C21.6241 30.7951 20.8797 31.5697 20.8797 32.7026C20.8797 33.8355 21.654 34.6101 22.7411 34.6101C23.288 34.6101 23.7888 34.4736 24.2295 34.1011L23.8426 33.5157C23.5382 33.7592 23.1506 33.8957 22.7862 33.8957C22.2774 33.8957 21.8142 33.66 21.7002 33.006H24.3963C24.404 32.9078 24.412 32.8086 24.412 32.7024C24.404 31.5699 23.7041 30.7949 22.6878 30.7949M32.2203 32.7024C32.2203 32.0639 32.6384 31.5394 33.3217 31.5394C34.0051 31.5394 34.4154 32.0413 34.4154 32.7024C34.4154 33.3634 33.9748 33.8654 33.3217 33.8654C32.6687 33.8654 32.22 33.3409 32.22 32.7024M35.1596 32.7024V30.8867H34.3705V31.3293C34.1192 31.0022 33.7403 30.7971 33.2237 30.7971C32.2061 30.7971 31.4075 31.5956 31.4075 32.7046C31.4075 33.8136 32.2056 34.6121 33.2237 34.6121C33.7403 34.6121 34.1192 34.4067 34.3705 34.0799V34.5209H35.1599V32.7024H35.1596ZM27.7615 32.7024C27.7615 33.8043 28.5283 34.6099 29.6985 34.6099C30.2454 34.6099 30.6098 34.4882 31.0038 34.1768L30.6246 33.5383C30.3281 33.7514 30.0169 33.8654 29.6733 33.8654C29.0431 33.8576 28.5796 33.4017 28.5796 32.7024C28.5796 32.003 29.0431 31.5473 29.6733 31.5394C30.016 31.5394 30.3273 31.6533 30.6246 31.8665L31.0038 31.228C30.6091 30.9166 30.2447 30.7949 29.6985 30.7949C28.5283 30.7949 27.7615 31.6002 27.7615 32.7024ZM37.94 30.7949C37.4845 30.7949 37.1878 31.008 36.9827 31.3271V30.8867H36.2003V34.5189H36.9907V32.4828C36.9907 31.8817 37.2489 31.5478 37.765 31.5478C37.934 31.5453 38.1019 31.5763 38.2587 31.6392L38.5021 30.8947C38.3273 30.8258 38.0995 30.7955 37.9395 30.7955M16.7765 31.1755C16.3967 30.925 15.8732 30.7955 15.2959 30.7955C14.376 30.7955 13.7838 31.2366 13.7838 31.9583C13.7838 32.5506 14.2247 32.9159 15.0366 33.0299L15.4096 33.083C15.8425 33.1439 16.0469 33.2579 16.0469 33.463C16.0469 33.7439 15.7593 33.9041 15.2193 33.9041C14.6793 33.9041 14.2778 33.7293 14.0117 33.5241L13.6407 34.14C14.0736 34.4592 14.6205 34.6115 15.2127 34.6115C16.2613 34.6115 16.869 34.1175 16.869 33.4259C16.869 32.7874 16.3907 32.4534 15.6005 32.3394L15.2284 32.2854C14.8866 32.2412 14.6127 32.1723 14.6127 31.9289C14.6127 31.6633 14.8709 31.5035 15.304 31.5035C15.7675 31.5035 16.2161 31.6783 16.436 31.8149L16.7778 31.1764L16.7765 31.1755ZM26.964 30.7962C26.5085 30.7962 26.2119 31.0093 26.0077 31.3284V30.8867H25.2252V34.5189H26.0147V32.4828C26.0147 31.8817 26.2729 31.5478 26.789 31.5478C26.958 31.5453 27.1259 31.5763 27.2828 31.6392L27.5261 30.8947C27.3514 30.8258 27.1235 30.7955 26.9636 30.7955M20.2265 30.8867H18.9354V29.7848H18.1372V30.8867H17.4008V31.6086H18.1372V33.2656C18.1372 34.1084 18.4642 34.6103 19.3982 34.6103C19.7409 34.6103 20.1355 34.5041 20.386 34.3295L20.1579 33.6532C19.9223 33.7897 19.6641 33.8585 19.4588 33.8585C19.0642 33.8585 18.9354 33.6151 18.9354 33.2506V31.6093H20.2265V30.8867ZM8.42226 34.5198V32.2403C8.42226 31.3818 7.8754 30.8041 6.99383 30.7964C6.53037 30.7887 6.0523 30.933 5.71759 31.4426C5.46717 31.0398 5.07251 30.7964 4.51768 30.7964C4.12988 30.7964 3.75093 30.9104 3.45427 31.3357V30.8867H2.66406V34.5189H3.46046V32.505C3.46046 31.8744 3.80999 31.5394 4.34978 31.5394C4.88956 31.5394 5.13932 31.8813 5.13932 32.497V34.5185H5.93749V32.5045C5.93749 31.874 6.30184 31.5389 6.82592 31.5389C7.34999 31.5389 7.62232 31.8809 7.62232 32.4966V34.5181L8.42226 34.5198Z" fill="white"/>
<path d="M44.1992 22.4379V21.9067H44.061L43.901 22.2712L43.742 21.9067H43.6032V22.4379H43.7015V22.0378L43.851 22.383H43.9528L44.1023 22.0369V22.4379H44.1997H44.1992ZM43.3221 22.4379V21.9977H43.4991V21.9081H43.0469V21.9977H43.2239V22.4379H43.3221Z" fill="#F79410"/>
<path d="M28.4807 24.7156H16.5156V3.20361H28.4809V24.7156H28.4807Z" fill="#FF5F00"/>
<path d="M17.2764 13.9609C17.2764 9.59722 19.3187 5.71002 22.499 3.20494C20.0917 1.30604 17.1142 0.275373 14.0485 0.279799C6.49667 0.279799 0.375 6.40495 0.375 13.9609C0.375 21.5169 6.49667 27.642 14.0485 27.642C17.1142 27.6467 20.0919 26.616 22.4992 24.7169C19.3192 22.2122 17.2764 18.3248 17.2764 13.9609Z" fill="#EB001B"/>
<path d="M44.6253 13.9609C44.6253 21.5169 38.5037 27.642 30.9518 27.642C27.8857 27.6464 24.9078 26.6158 22.5 24.7169C25.6812 22.2118 27.7235 18.3248 27.7235 13.9609C27.7235 9.597 25.6812 5.71002 22.5 3.20494C24.9078 1.30604 27.8857 0.275373 30.9516 0.279799C38.5034 0.279799 44.6251 6.40495 44.6251 13.9609" fill="#F79E1B"/>
</g>
<defs>
<clipPath id="clip0_128_2193">
<rect width="44.25" height="34.4404" fill="white" transform="translate(0.375 0.279785)"/>
</clipPath>
</defs>
</svg>
