<svg width="102" height="79" viewBox="0 0 102 79" fill="none" xmlns="http://www.w3.org/2000/svg">
<g opacity="0.3">
<path d="M84.6418 45.9398L79.9142 46.9409L78.7181 47.1944C75.1988 47.9389 72.5949 50.9219 72.3343 54.5099L71.8928 60.5563L67.6799 57.9497C64.1377 55.7586 59.508 56.6184 56.9912 59.9384L54.0123 63.8661L51.6388 59.9528C49.395 56.2528 44.6353 54.9775 40.8421 57.0598L36.8299 59.2621L36.214 54.3712C35.6926 50.2371 32.1149 47.1779 27.9517 47.3046L22.9999 47.4555L25.6408 41.9984C27.2075 38.7604 26.4455 34.8755 23.77 32.4711L19.2672 28.4227L20.5096 28.1606L25.1907 27.1697C28.71 26.4252 31.3138 23.4423 31.5749 19.8527L32.0164 13.8062L36.2289 16.4143C39.7711 18.6054 44.4008 17.7456 46.9176 14.4256L49.8965 10.4979L52.27 14.4113C54.5138 18.1112 59.2735 19.3866 63.0667 17.3043L67.0789 15.1019L67.6948 19.9929C68.2162 24.1269 71.7939 27.1862 75.9571 27.0595L80.9089 26.9086L78.2684 32.3641C76.7013 35.6036 77.4633 39.4886 80.1388 41.893L84.6418 45.9398Z" fill="#00DCED"/>
<path d="M79.9142 46.9409L78.7182 47.1943C75.1988 47.9388 72.595 50.9219 72.3343 54.5098L71.8929 60.5562L67.68 57.9497C64.1378 55.7586 59.5081 56.6184 56.9913 59.9384L54.0123 63.8661L51.6389 59.9527C49.3951 56.2528 44.6353 54.9774 40.8422 57.0597L36.83 59.2621L36.214 54.3711C35.6927 50.2371 32.1149 47.1778 27.9517 47.3045L22.9999 47.4554L25.6408 41.9983C27.2076 38.7604 26.4456 34.8754 23.77 32.471L19.2673 28.4227L20.5097 28.1605C25.0739 32.2773 31.077 36.4479 37.3668 37.3644C37.3668 37.3644 46.4913 45.8001 59.859 42.957C59.8586 42.9569 62.9369 48.8393 79.9142 46.9409Z" fill="#55C1C9"/>
<path d="M86.9401 46.5512L79.313 47.9681L78.9669 48.0325L78.9237 48.0406L78.902 48.0445C78.8689 48.0521 78.9409 48.0352 78.9315 48.0374L78.9261 48.0385L78.9155 48.0409L78.8295 48.0606L78.6579 48.0999L78.3146 48.1785C78.2086 48.2066 78.1236 48.239 78.0268 48.2683L77.7429 48.357L77.4508 48.4765C77.3542 48.518 77.2535 48.5513 77.1594 48.5989L76.877 48.7418C76.4994 48.9311 76.1445 49.1649 75.8047 49.419C75.632 49.5426 75.4795 49.6916 75.3143 49.8261C75.1585 49.9707 75.0124 50.126 74.8599 50.2755C74.7243 50.4397 74.5795 50.5977 74.4485 50.7665C74.3277 50.9425 74.1895 51.1079 74.0802 51.2923C73.8526 51.6548 73.6452 52.0334 73.4847 52.4327L73.3626 52.7319C73.3232 52.8321 73.2965 52.9369 73.2624 53.0391L73.1646 53.348L73.0933 53.6643C73.0707 53.77 73.0415 53.8749 73.0242 53.9817L72.979 54.3036C72.945 54.511 72.9233 54.7484 72.9009 54.9827L72.351 60.5905L72.2801 61.3144L71.6517 60.9476L69.2968 59.573L68.1194 58.8857L67.5307 58.5421L67.3836 58.4561L67.3744 58.4506C67.3514 58.437 67.4006 58.466 67.3938 58.4621L67.3891 58.4596L67.3702 58.4497L67.3324 58.4301L67.2569 58.3906L66.9547 58.2329C66.8558 58.1844 66.7496 58.1188 66.6562 58.0841L66.3749 57.9728L66.0958 57.8597L65.7953 57.7692C65.5948 57.7093 65.3965 57.6434 65.1891 57.611C64.9834 57.5751 64.7824 57.5164 64.5732 57.5046C64.3653 57.4888 64.1604 57.4485 63.9518 57.4508C63.7438 57.452 63.5363 57.4375 63.3292 57.4492C63.1222 57.4672 62.9152 57.4783 62.7096 57.4999L62.0979 57.603L61.4991 57.7597C61.3025 57.8204 61.1112 57.8985 60.9173 57.9654C60.538 58.1232 60.1673 58.2999 59.8204 58.5166C59.6391 58.6113 59.4802 58.7421 59.3128 58.8581C59.2315 58.9193 59.1438 58.9719 59.0672 59.0394L58.8371 59.2401L58.6064 59.4391L58.3959 59.6597C58.2562 59.8068 58.1106 59.9479 57.992 60.1136L57.8038 60.3522L57.7094 60.4709L57.6103 60.608L57.2126 61.1616L56.4169 62.2687L54.8257 64.483L53.9187 65.7448L53.1396 64.3954L51.7959 62.0681L51.124 60.9045L50.956 60.6135L50.8721 60.4682L50.851 60.4317C50.8448 60.4219 50.8955 60.5009 50.8728 60.4654L50.8701 60.4609L50.8643 60.4522L50.853 60.4346L50.8075 60.364L50.4435 59.7994L50.0945 59.3612C50.0423 59.2862 49.9688 59.2155 49.8998 59.144L49.6927 58.9283C49.561 58.7769 49.4018 58.6558 49.2514 58.524L49.0236 58.3285L48.7776 58.1564C48.6138 58.0409 48.4532 57.9198 48.2741 57.828L48.0124 57.6783L47.8814 57.6029L47.7438 57.5412C47.559 57.462 47.3795 57.368 47.1906 57.298L46.6177 57.1L46.0278 56.9565C45.8299 56.913 45.6277 56.895 45.4274 56.8614L45.2768 56.8387L45.1248 56.8314L44.8205 56.8157C44.6172 56.7959 44.4143 56.8109 44.211 56.8197L43.9055 56.8317L43.6027 56.8734C43.4011 56.9033 43.1964 56.9201 42.9998 56.9771C42.8028 57.03 42.5985 57.0603 42.4057 57.1296L41.8239 57.33L41.2633 57.5873C41.0767 57.6704 40.8696 57.7887 40.6736 57.8876L39.4822 58.5087L37.0991 59.7508L36.3727 60.1294L36.2779 59.3319L35.956 56.6249L35.795 55.2714L35.7146 54.5948L35.6977 54.4502L35.6696 54.2823L35.6134 53.9462C35.5832 53.7112 35.5227 53.5218 35.47 53.3232L35.3904 53.0251L35.2793 52.726L35.1691 52.4264C35.1328 52.3263 35.0793 52.2336 35.0355 52.1366C34.9408 51.9461 34.8607 51.7476 34.7429 51.5695C34.5345 51.1975 34.2852 50.8502 34.0188 50.5174C33.876 50.359 33.7409 50.193 33.5926 50.0397L33.1275 49.5989L32.6247 49.2009C32.4494 49.079 32.2677 48.9659 32.0897 48.847C31.9085 48.7336 31.7139 48.6432 31.5269 48.5391C31.34 48.434 31.1349 48.368 30.94 48.2796C30.746 48.187 30.5357 48.1397 30.3331 48.0704C30.1311 47.9972 29.92 47.9581 29.7105 47.9128L29.3961 47.8457L29.0766 47.8081L28.757 47.7695C28.6506 47.7552 28.5427 47.7615 28.4354 47.7564C28.0164 47.7368 27.5532 47.7546 27.0997 47.765L25.7372 47.7972L23.0121 47.8614L22.3459 47.8771L22.6345 47.279L25.0822 42.2057L25.2351 41.8885L25.2659 41.8247L25.3008 41.7439L25.3707 41.5823L25.5107 41.2591C25.5538 41.1526 25.5813 41.0525 25.6179 40.9489L25.7221 40.6412L25.8027 40.3172C25.828 40.209 25.8605 40.102 25.8801 39.9925L25.9341 39.663C26.0079 39.2241 26.03 38.7777 26.0249 38.3329C26.0278 38.1103 25.9958 37.8889 25.9838 37.6669C25.9594 37.4459 25.9172 37.2269 25.8854 37.0067C25.8317 36.7907 25.7861 36.5726 25.7259 36.3586C25.6529 36.1485 25.5973 35.9321 25.5111 35.7268C25.3467 35.3138 25.1571 34.9095 24.9225 34.5316L24.7473 34.2477C24.6887 34.1532 24.6171 34.0675 24.5528 33.9768L24.3553 33.7081L24.1364 33.4564C24.0625 33.3735 23.9926 33.2866 23.9157 33.2064L23.6765 32.9738C23.5235 32.819 23.347 32.6621 23.1711 32.5053L18.9773 28.7449L18.3617 28.1928L19.1775 27.9979L24.6578 26.6877L25.0003 26.6059L25.0432 26.5956L25.0647 26.5905C25.0877 26.585 25.0395 26.5965 25.0462 26.5946L25.0515 26.593L25.0621 26.59L25.1468 26.5661L25.3162 26.5181L25.655 26.4223C25.7616 26.3878 25.8521 26.3476 25.9513 26.3113L26.2428 26.201L26.5362 26.0617C26.633 26.0137 26.7337 25.9737 26.8274 25.9198L27.1079 25.7578C27.4821 25.5431 27.8291 25.2853 28.1577 25.0097C28.3247 24.875 28.4707 24.716 28.6288 24.5717C28.7774 24.4175 28.9153 24.2533 29.0591 24.0957C29.1859 23.9234 29.3211 23.7579 29.4422 23.5827C29.553 23.4003 29.6807 23.2291 29.7786 23.04C29.984 22.6681 30.1671 22.2839 30.3028 21.8831L30.4058 21.5834C30.4389 21.4833 30.4592 21.3791 30.4867 21.2773L30.5652 20.9713L30.6172 20.6595C30.6332 20.5556 30.6559 20.4527 30.667 20.3483L30.6932 20.0341C30.701 19.9256 30.714 19.8336 30.7183 19.7121L30.7347 19.3603L30.9984 13.7316L31.0814 11.9563L32.5534 12.9381L34.8224 14.4512L35.9569 15.2079L36.5243 15.5862L36.6661 15.6808L36.6749 15.6866C36.7076 15.7058 36.6354 15.6637 36.6447 15.669L36.6492 15.6718L36.6674 15.6827L36.704 15.7046L36.777 15.7485L37.0694 15.924C37.1641 15.9779 37.2701 16.0512 37.3556 16.0892L37.6162 16.2128L37.8767 16.3401L38.1635 16.4473C38.3555 16.5187 38.5465 16.5967 38.7473 16.6415C38.9467 16.6896 39.1425 16.7616 39.3476 16.7861C39.5513 16.815 39.7533 16.8689 39.9601 16.88C40.1663 16.8924 40.373 16.9204 40.5807 16.9223C40.7879 16.9178 40.9966 16.9202 41.2048 16.9122L41.828 16.8486L42.4447 16.7296C42.6485 16.6811 42.848 16.6147 43.0512 16.559C43.4488 16.4236 43.842 16.2668 44.2149 16.0663C44.4094 15.9798 44.582 15.8563 44.7638 15.747C44.8526 15.6889 44.9477 15.6395 45.0318 15.5747L45.2855 15.3814L45.5406 15.1883L45.7763 14.9721C45.9331 14.8273 46.0962 14.6874 46.2328 14.5219C46.3754 14.3573 46.5205 14.2145 46.6637 14.0315L47.094 13.5026L47.9546 12.4448L49.6759 10.3291L49.9267 10.0209L50.1347 10.3529L51.5609 12.63L52.2741 13.7687L52.4523 14.0533L52.5415 14.1957L52.5637 14.2313C52.5666 14.236 52.5483 14.2072 52.5575 14.2215L52.5605 14.2258L52.5666 14.2344L52.5786 14.2517L52.6266 14.3207L53.0107 14.8719L53.4195 15.3482C53.5528 15.5081 53.7224 15.6475 53.8712 15.7981C54.0186 15.9533 54.1935 16.0773 54.3593 16.2112L54.6101 16.4092L54.8787 16.5824C55.0574 16.6983 55.2328 16.819 55.4261 16.9097L55.7091 17.0571L55.8502 17.1309L55.998 17.1907C56.1963 17.2672 56.389 17.3578 56.5906 17.4239L57.1998 17.608L57.8229 17.7341C58.0311 17.7713 58.2434 17.7826 58.4531 17.8091L58.6107 17.8263L58.7693 17.828L59.0859 17.8322C59.2972 17.844 59.5074 17.8206 59.7176 17.8035L60.0326 17.7785L60.3438 17.7235C60.5506 17.6845 60.7601 17.6588 60.9605 17.5925C61.1614 17.5304 61.3689 17.4907 61.564 17.412L62.1509 17.1838L62.7125 16.8994C62.899 16.8073 63.0996 16.6833 63.2924 16.5769L64.4606 15.9135L66.7973 14.5867L67.5604 14.1535L67.6616 15.0276L67.9747 17.7355L68.1314 19.0895L68.2096 19.7664L68.226 19.9103L68.2535 20.0784L68.3085 20.4146C68.3382 20.6499 68.3977 20.8388 68.4495 21.0372L68.5278 21.335L68.6378 21.634L68.7468 21.9337C68.7826 22.0339 68.8358 22.1268 68.8791 22.2237C68.9731 22.4144 69.0525 22.6132 69.1697 22.7916C69.3768 23.1642 69.6247 23.5122 69.8901 23.8462C70.0325 24.0051 70.1671 24.1715 70.315 24.3254L70.7789 24.768L71.2809 25.1681C71.4559 25.2908 71.6376 25.4046 71.8153 25.5243C71.9963 25.6384 72.1909 25.7297 72.3779 25.8345C72.5649 25.9405 72.77 26.0073 72.9649 26.0966C73.1589 26.1901 73.3694 26.2381 73.5722 26.3082C73.7745 26.3821 73.9859 26.4221 74.1958 26.4681L74.5109 26.5363L74.831 26.5753L75.1514 26.615C75.2582 26.6297 75.3664 26.6237 75.4739 26.6293C75.8948 26.6503 76.3576 26.6341 76.8111 26.6251L78.1739 26.5974L80.8994 26.5419L81.4795 26.5302L81.2393 27.0659L78.9328 32.2074L78.7887 32.5288L78.7708 32.569L78.7617 32.589L78.7571 32.5992C78.7749 32.5604 78.7608 32.5913 78.7644 32.584L78.7624 32.589L78.7296 32.6708L78.6642 32.8343L78.5335 33.1614C78.4936 33.2685 78.4709 33.3653 78.4385 33.4672L78.3468 33.7681L78.2777 34.0875C78.2563 34.1942 78.2272 34.2991 78.2116 34.4066L78.1687 34.7296C78.1096 35.1593 78.1016 35.5943 78.1194 36.0251C78.1228 36.2409 78.161 36.4547 78.1787 36.6687C78.209 36.8818 78.2565 37.0922 78.2931 37.3034C78.3517 37.5104 78.4017 37.7189 78.4657 37.9229C78.5429 38.123 78.6017 38.3291 78.6908 38.5233C78.8609 38.9147 79.054 39.2959 79.2892 39.6493L79.4645 39.9147C79.5229 40.0031 79.5941 40.0824 79.6577 40.1667L79.853 40.4163L80.0686 40.6489C80.1413 40.7254 80.2098 40.8056 80.285 40.8793L80.5189 41.0924C80.5998 41.1648 80.6666 41.2321 80.7583 41.3088L81.0269 41.5366L86.9401 46.5512ZM82.5772 45.3826L79.8796 42.8121L79.6245 42.5692C79.5406 42.4904 79.4451 42.3876 79.3562 42.298L79.0862 42.0193C78.9994 41.9238 78.9198 41.8211 78.8367 41.7221L78.5916 41.4223L78.3701 41.1045C78.2982 40.9974 78.2194 40.8951 78.1542 40.784L77.9599 40.4501C77.7015 40.0051 77.4946 39.5326 77.3195 39.0518C77.2278 38.8128 77.1685 38.5626 77.0933 38.319C77.031 38.0714 76.9846 37.82 76.9317 37.571C76.9008 37.3177 76.8609 37.0662 76.8402 36.8128C76.8319 36.5584 76.8051 36.3053 76.8145 36.0514C76.8224 35.5443 76.8629 35.0378 76.9601 34.5418L77.0325 34.1702C77.0584 34.0468 77.0979 33.9264 77.13 33.8048L77.2322 33.4414L77.3669 33.0755C77.4128 32.9561 77.4561 32.8273 77.5049 32.717L77.6546 32.3981L77.7293 32.2387L77.7666 32.159L77.7857 32.1189L77.7958 32.0993L77.8162 32.0603L77.9788 31.7478L80.5803 26.7491L80.92 27.2729L78.1963 27.3838L76.8345 27.4392C76.3798 27.4569 75.9346 27.4836 75.4467 27.4711C75.3274 27.4675 75.2074 27.4752 75.0886 27.4619L74.7317 27.4258L74.3747 27.389L74.0222 27.321C73.7873 27.2748 73.5508 27.2334 73.3233 27.1567C73.0953 27.084 72.8595 27.0322 72.6401 26.934C72.4198 26.84 72.1895 26.7671 71.9775 26.6542C71.7654 26.5425 71.5459 26.4429 71.3403 26.3194C71.1379 26.1905 70.932 26.066 70.7327 25.932L70.1598 25.4938L69.6274 25.0067C69.4573 24.8369 69.3007 24.653 69.1374 24.4762C68.8298 24.1061 68.5417 23.7176 68.2981 23.3003C68.1627 23.0997 68.0658 22.8776 67.9553 22.6628C67.9036 22.5536 67.8423 22.4487 67.7988 22.3359L67.667 21.9981L67.536 21.6598L67.4326 21.3009C67.365 21.0612 67.291 20.8147 67.2603 20.5987L67.1983 20.2636L67.1674 20.0961L67.1401 19.9022L67.048 19.2268L66.864 17.8762L66.4959 15.1752L67.36 15.616L64.9862 16.8752L63.7992 17.5047C63.597 17.6088 63.4134 17.7161 63.1961 17.8178L62.5499 18.1213L61.8776 18.3611C61.6542 18.4422 61.4183 18.4835 61.1893 18.5457C60.9608 18.6122 60.7236 18.6367 60.4891 18.6736L60.1371 18.7244L59.7819 18.7435C59.5451 18.7561 59.3089 18.7737 59.072 18.7552L58.7175 18.7401L58.5404 18.7323L58.3646 18.7086C58.1308 18.6736 57.8949 18.6523 57.6639 18.6046L56.9745 18.4437L56.3036 18.2201C56.0823 18.1402 55.8706 18.0348 55.6541 17.943L55.4929 17.8715L55.3386 17.7859L55.0304 17.614C54.8206 17.5068 54.6297 17.369 54.4364 17.2356L54.1467 17.0356L53.8761 16.8101C53.6977 16.6577 53.5111 16.515 53.3531 16.3408C53.1918 16.1692 53.0179 16.0164 52.8686 15.8287L52.4207 15.2701L52.0527 14.7082L52.0067 14.6379L51.9747 14.5885L51.9534 14.5522L51.8684 14.4073L51.6985 14.1177L51.0184 12.9591L49.6581 10.6419L50.117 10.6657L48.5439 12.8936L47.7572 14.0076L47.3639 14.5647C47.2394 14.749 47.0759 14.9412 46.9326 15.1292C46.791 15.3245 46.6208 15.4944 46.4552 15.6696L46.205 15.9312L45.9326 16.1698L45.659 16.4082C45.5678 16.4881 45.465 16.5526 45.3684 16.6257C45.1705 16.765 44.98 16.918 44.7662 17.0334C44.3541 17.2918 43.9146 17.5045 43.464 17.6923C43.2343 17.7743 43.0067 17.8658 42.7733 17.9386L42.0623 18.1266L41.3357 18.2518C41.0914 18.2791 40.8454 18.2941 40.5993 18.3148C40.353 18.329 40.1058 18.3154 39.8582 18.3158C39.6102 18.3173 39.3651 18.2744 39.1176 18.2542C38.8688 18.2382 38.6282 18.1733 38.383 18.1299C38.1364 18.09 37.8991 18.0146 37.6596 17.9437L37.3002 17.8351L36.9364 17.6894L36.5725 17.5402C36.4486 17.4899 36.364 17.4371 36.2577 17.3856L35.9542 17.2303L35.8783 17.1915L35.8404 17.1721L35.8215 17.1623L35.7681 17.1316L35.6202 17.0467L35.0286 16.7079L33.8451 16.0303L31.4783 14.675L33.0333 13.8812L32.4771 19.4885C32.4542 19.7211 32.4338 19.9502 32.3938 20.2172L32.34 20.6024C32.3192 20.7301 32.2861 20.8561 32.2596 20.9828L32.1743 21.3616L32.0596 21.7326C32.0195 21.8556 31.9862 21.9807 31.94 22.1011L31.7957 22.4607C31.6038 22.9396 31.358 23.3951 31.0858 23.8305C30.9544 24.0511 30.7923 24.252 30.6461 24.462C30.4899 24.665 30.3182 24.8561 30.1546 25.0522C29.9741 25.2335 29.7984 25.4196 29.6116 25.5933C29.4156 25.7573 29.231 25.934 29.025 26.0844C28.6186 26.3916 28.1926 26.6729 27.7398 26.903L27.4005 27.0752C27.2872 27.132 27.1671 27.1744 27.051 27.2245L26.6996 27.3681L26.3257 27.4884C26.2022 27.5262 26.0733 27.5705 25.9549 27.6016L25.6115 27.6797L25.4399 27.7188L25.354 27.7384L25.3088 27.7488L25.2871 27.7527L25.2437 27.7608L24.8974 27.8247L19.3561 28.8478L19.5563 28.1008L23.7408 31.8715C23.915 32.0275 24.089 32.1827 24.2666 32.3615L24.5312 32.6208C24.6165 32.7099 24.6945 32.8062 24.7762 32.8985L25.0181 33.1792L25.2375 33.4779C25.3088 33.5788 25.3872 33.6747 25.4522 33.7797L25.6465 34.0953C25.9055 34.5161 26.1158 34.9651 26.2966 35.4243C26.391 35.6525 26.4538 35.8923 26.533 36.1261C26.5994 36.3636 26.6502 36.6058 26.7078 36.8456C26.7437 37.0898 26.7889 37.333 26.8154 37.5782C26.8294 37.8244 26.8626 38.0701 26.8594 38.3171C26.8643 38.8103 26.8378 39.3055 26.7553 39.7922L26.6941 40.1573C26.672 40.2787 26.6363 40.3973 26.6079 40.5172L26.5171 40.876L26.3949 41.235C26.353 41.3526 26.3146 41.4784 26.2692 41.5891L26.1285 41.9119L26.0582 42.0731L26.0231 42.1539L25.978 42.2487L25.8243 42.5654L23.3639 47.6325L22.9861 47.05L25.7102 46.948L27.0723 46.8969C27.527 46.8806 27.9719 46.8554 28.4614 46.8693C28.5811 46.8733 28.7013 46.8659 28.8205 46.8797L29.1781 46.9169L29.536 46.9551L29.8891 47.0242C30.1244 47.0715 30.3611 47.1136 30.5889 47.1909C30.8173 47.2643 31.0532 47.3171 31.2726 47.4163C31.4932 47.511 31.7235 47.5848 31.9353 47.6986C32.1473 47.8113 32.3668 47.9116 32.5723 48.0357C32.7747 48.1655 32.9803 48.2906 33.1792 48.4255L33.7511 48.8657L34.2823 49.3548C34.452 49.5252 34.608 49.7094 34.771 49.8868C35.0776 50.258 35.3644 50.6473 35.6066 51.065C35.7415 51.2659 35.8377 51.4883 35.9474 51.7031C35.9988 51.8124 36.0597 51.9175 36.1028 52.0301L36.2333 52.368L36.3631 52.7065L36.4652 53.0651C36.532 53.3046 36.6051 53.5506 36.6352 53.7671L36.6961 54.1023L36.7265 54.27L36.7531 54.4632L36.843 55.1387L37.0227 56.4898L37.3821 59.192L36.5609 58.773L38.8882 57.4294L40.052 56.7577C40.2511 56.646 40.4283 56.5331 40.6455 56.4225L41.2927 56.092L41.9701 55.8243C42.196 55.7339 42.4351 55.6832 42.6679 55.6118C42.9003 55.5362 43.1421 55.5025 43.3817 55.4568L43.7422 55.3927L44.1068 55.3606C44.3503 55.3394 44.5939 55.3136 44.8386 55.3242L45.2058 55.3276L45.3895 55.3298L45.5722 55.3479C45.8152 55.3759 46.0611 55.3901 46.3026 55.4319L47.0251 55.5754L47.7322 55.785C47.9662 55.8609 48.1911 55.9629 48.421 56.0521L48.5924 56.1217L48.7572 56.2057L49.0866 56.3751C49.3107 56.481 49.5163 56.6184 49.7245 56.7523L50.0368 56.9535L50.3304 57.1815C50.5243 57.3359 50.7266 57.4816 50.9002 57.6598L51.1699 57.9171C51.2597 58.0035 51.3506 58.0853 51.4346 58.189L51.942 58.7857L52.33 59.3343L52.3786 59.403L52.3907 59.4201L52.4273 59.4756L52.4498 59.511L52.54 59.6527L52.7204 59.9361L53.4419 61.0699L54.8847 63.337L53.1986 63.2496L54.9017 61.1203L55.7533 60.0557L56.179 59.5233L56.2864 59.3896L56.4104 59.2469L56.6593 58.9626C56.8186 58.7675 57.0065 58.5985 57.1893 58.4259L57.4645 58.1686L57.7612 57.9359L58.0584 57.7049C58.1572 57.6278 58.2673 57.5662 58.3713 57.4965C58.5838 57.3636 58.788 57.218 59.015 57.1108C59.453 56.8688 59.915 56.6758 60.384 56.5103C60.6227 56.4394 60.8585 56.3595 61.0991 56.299L61.8281 56.1485L62.5662 56.0628C62.8131 56.049 63.0608 56.0475 63.3074 56.0405C63.5543 56.0399 63.8007 56.0672 64.0465 56.0802C64.2926 56.0924 64.5346 56.1487 64.7781 56.1819C65.0228 56.2109 65.2583 56.2888 65.4971 56.3447C65.7374 56.397 65.9673 56.4844 66.1983 56.5669L66.5442 56.6922L66.8894 56.8522L67.2325 57.0139C67.3485 57.0677 67.4332 57.1282 67.5353 57.185L67.8289 57.358L67.9994 57.4591L68.1419 57.5524L68.7122 57.9259L69.8528 58.6729L72.1337 60.1669L71.4342 60.524L71.7039 54.8959C71.7149 54.6619 71.7235 54.431 71.7508 54.1727L71.7856 53.7952C71.8 53.6697 71.8265 53.5458 71.8468 53.4208L71.9128 53.0465L72.0082 52.6782C72.0419 52.556 72.0688 52.4313 72.1087 52.3108L72.2341 51.9509C72.4009 51.4703 72.6225 51.0093 72.8724 50.5644C72.9928 50.3392 73.1444 50.1327 73.2803 49.916C73.4266 49.7065 73.5885 49.5078 73.7436 49.3037C73.9154 49.1142 74.0831 48.9192 74.2625 48.7359C74.4512 48.5626 74.6292 48.3752 74.8297 48.2141C75.2249 47.8854 75.6433 47.58 76.0924 47.3246L76.4297 47.1331C76.5425 47.0697 76.6624 47.0207 76.7789 46.9643L77.1314 46.8008L77.5127 46.6588C77.6384 46.6139 77.7731 46.5619 77.8923 46.5246L78.2313 46.429L78.4007 46.3813L78.4855 46.3574L78.606 46.3282L78.9486 46.2467L82.5772 45.3826Z" fill="#231F20"/>
<path d="M96.9764 29.6683L81.0622 32.4798L81.0138 32.2851L96.3881 27.3056L96.9764 29.6683Z" fill="black"/>
<path d="M91.8125 26.8328L80.8311 31.3793L80.7373 31.2019L90.6739 24.6807L91.8125 26.8328Z" fill="black"/>
<path d="M87.8027 74.2922L75.9299 62.0209L75.7776 62.2138L85.9549 76.63L87.8027 74.2922Z" fill="black"/>
<path d="M81.8095 74.5514L75.1056 63.1343L74.9247 63.2815L79.6159 76.3366L81.8095 74.5514Z" fill="black"/>
<path d="M12.4748 8.44704L24.8512 18.8389L24.9905 18.6945L14.1657 6.69499L12.4748 8.44704Z" fill="black"/>
<path d="M18.3647 8.57341L25.6016 18.0015L25.7716 17.8948L20.4268 7.27899L18.3647 8.57341Z" fill="black"/>
<path d="M40.0883 22.2792C39.0104 21.9904 38.0286 21.8845 37.1688 21.9633C36.463 22.0282 35.8261 22.2215 35.264 22.5322C35.2383 22.5457 35.2144 22.5615 35.1891 22.5754C35.1635 22.5889 35.1396 22.6045 35.1143 22.6184C35.0887 22.6319 35.0645 22.6477 35.0392 22.6618C35.0137 22.6754 34.9896 22.6909 34.9645 22.7051C34.9389 22.7186 34.9149 22.7344 34.8897 22.7483C34.864 22.7618 34.8401 22.7774 34.8148 22.7915C34.7892 22.805 34.765 22.8208 34.7397 22.8349C34.7143 22.8482 34.6901 22.864 34.6651 22.8779C34.6394 22.8915 34.6155 22.9073 34.5902 22.9212C34.5646 22.9347 34.5406 22.9505 34.5154 22.9644C34.4897 22.9779 34.4658 22.9935 34.4407 23.0077C34.4151 23.0212 34.3909 23.037 34.3656 23.051C34.3402 23.0644 34.316 23.0802 34.2909 23.0943C34.2653 23.1079 34.2413 23.1237 34.2161 23.1376C34.1906 23.1511 34.1665 23.1667 34.1414 23.1808C34.1158 23.1944 34.0916 23.2101 34.0663 23.2242C34.0409 23.2376 34.0167 23.2534 33.9917 23.2673C33.966 23.2808 33.9421 23.2966 33.9168 23.3105C33.8912 23.324 33.8672 23.3399 33.842 23.3537C33.8163 23.3672 33.7924 23.3829 33.7671 23.3969C33.5768 23.4973 33.3942 23.6097 33.2214 23.737C32.5836 24.2066 32.0448 24.8228 31.6205 25.5681C31.2179 26.2755 30.8742 27.1535 30.5998 28.1775L28.829 34.7861C28.5565 35.803 28.4152 36.7327 28.4099 37.55C28.4035 38.4103 28.5608 39.2163 28.8767 39.9458C29.2065 40.7071 29.7518 41.3626 30.496 41.8942C31.2008 42.3972 32.1049 42.7989 33.1839 43.088C35.107 43.6033 36.7059 43.5239 37.9504 42.8606C37.9761 42.8475 37.9998 42.8309 38.0252 42.8174C38.051 42.8043 38.0747 42.7877 38.1001 42.7741C38.1258 42.7611 38.1495 42.7445 38.175 42.7309C38.2007 42.7179 38.2244 42.7013 38.25 42.6877C38.2758 42.6747 38.2993 42.6581 38.3246 42.6447C38.3504 42.6317 38.3741 42.6151 38.3995 42.6015C38.4252 42.5884 38.4489 42.5718 38.4744 42.5582C38.5001 42.5452 38.5238 42.5286 38.5494 42.5151C38.5752 42.502 38.5986 42.4856 38.624 42.472C38.6498 42.459 38.6734 42.4424 38.6991 42.4289C38.7248 42.4158 38.7485 42.3992 38.774 42.3856C38.7997 42.3726 38.8234 42.356 38.8488 42.3424C38.8746 42.3294 38.8983 42.3128 38.9237 42.2992C38.9494 42.2861 38.9729 42.2695 38.9983 42.2561C39.024 42.2431 39.0477 42.2265 39.0734 42.213C39.0991 42.1999 39.1228 42.1833 39.1482 42.1697C39.174 42.1567 39.1976 42.1401 39.2231 42.1265C39.2488 42.1135 39.2722 42.097 39.2977 42.0834C39.3234 42.0704 39.3471 42.0538 39.3725 42.0402C39.3983 42.0272 39.422 42.0106 39.4474 41.997C39.6272 41.9056 39.8003 41.803 39.9654 41.6875C41.2194 40.8112 42.143 39.2942 42.7102 37.1776L44.481 30.569C45.0482 28.4519 45.0057 26.6788 44.3547 25.2988C43.6813 23.8729 42.246 22.8574 40.0883 22.2792Z" fill="black"/>
<path d="M34.7558 42.1801C33.6771 41.891 32.7727 41.4892 32.0679 40.9863C31.3237 40.4547 30.7784 39.7991 30.4486 39.0378C30.1327 38.3083 29.9755 37.5024 29.9818 36.642C29.9873 35.8248 30.1284 34.8951 30.4009 33.8782L32.1717 27.2696C32.4461 26.2453 32.7898 25.3675 33.1924 24.6602C33.6167 23.9148 34.1555 23.2986 34.7933 22.8291C35.4593 22.3386 36.2585 22.0472 37.1688 21.9633C38.0286 21.8842 39.0103 21.9904 40.0882 22.2792C42.246 22.8574 43.6813 23.8729 44.3549 25.2977C45.0058 26.6777 45.0485 28.4508 44.4812 30.5679L42.7104 37.1765C42.1433 39.2929 41.2197 40.8099 39.9657 41.6864C38.6675 42.5924 36.9144 42.7585 34.7558 42.1801ZM38.9368 26.5763C38.7859 26.5358 38.6944 26.5391 38.6442 26.5491C38.5387 26.5698 38.4962 26.5968 38.4858 26.6047C38.4812 26.6079 38.43 26.6468 38.3541 26.7857C38.271 26.9359 38.2088 27.072 38.1682 27.1923C38.1171 27.3423 38.0605 27.5336 37.9982 27.7661L35.6979 36.3508C35.6355 36.5837 35.5888 36.7798 35.5565 36.939C35.5307 37.0665 35.516 37.2174 35.5129 37.3872C35.5096 37.5425 35.5317 37.6087 35.5386 37.6254C35.5462 37.6437 35.5712 37.6914 35.651 37.7631C35.6881 37.7969 35.7623 37.8441 35.9072 37.883C36.0288 37.9155 36.134 37.9252 36.2114 37.9105C36.3085 37.8922 36.3461 37.8671 36.3548 37.8597C36.3846 37.8366 36.4427 37.7798 36.5196 37.6468C36.6031 37.5015 36.6691 37.3623 36.7151 37.2339C36.7701 37.0799 36.8274 36.891 36.8868 36.6693L39.187 28.0847C39.2446 27.8699 39.2884 27.6814 39.3183 27.5186C39.3419 27.3874 39.354 27.2365 39.3535 27.0725C39.3527 26.923 39.3292 26.8509 39.3194 26.8267C39.3094 26.8018 39.277 26.7583 39.2148 26.705C39.1545 26.6532 39.0584 26.6089 38.9368 26.5763Z" fill="black"/>
<path d="M34.9569 41.4298C33.9634 41.1636 33.151 40.805 32.5196 40.3542C31.888 39.9033 31.4354 39.3615 31.1613 38.7288C30.8872 38.096 30.7529 37.4022 30.7584 36.6475C30.7638 35.8928 30.8949 35.0367 31.1514 34.0792L32.9222 27.4706C33.1807 26.5061 33.4957 25.6973 33.8674 25.0445C34.239 24.3919 34.7012 23.8618 35.254 23.4544C35.8069 23.0469 36.469 22.8077 37.2402 22.7367C38.0114 22.6656 38.894 22.763 39.8873 23.0292C41.8238 23.5481 43.0788 24.4147 43.6523 25.6293C44.2258 26.8439 44.2521 28.4231 43.7313 30.3667L41.9605 36.9753C41.4397 38.9189 40.6264 40.277 39.5205 41.0493C38.4147 41.8216 36.8934 41.9487 34.9569 41.4298ZM35.1309 38.34C35.2769 38.4716 35.4688 38.5694 35.7063 38.633C35.9438 38.6966 36.1601 38.7103 36.3551 38.6738C36.5501 38.6373 36.7112 38.5687 36.8385 38.4677C36.9659 38.3667 37.0835 38.2227 37.1914 38.0356C37.2994 37.8485 37.3843 37.6686 37.4458 37.4962C37.5073 37.3235 37.5711 37.1151 37.6367 36.8703L39.9369 28.2856C40.0005 28.0481 40.0489 27.8392 40.0817 27.6589C40.1144 27.4787 40.1304 27.2823 40.1296 27.0699C40.1285 26.8576 40.0977 26.6776 40.0371 26.5301C39.9763 26.3826 39.8705 26.2444 39.7201 26.1153C39.5695 25.9862 39.3753 25.8899 39.1379 25.8263C38.9002 25.7626 38.6858 25.7494 38.4945 25.7869C38.3032 25.8244 38.1447 25.89 38.0194 25.9837C37.894 26.0773 37.7786 26.22 37.6732 26.4118C37.5678 26.6035 37.4876 26.7807 37.4325 26.9432C37.3773 27.106 37.316 27.3132 37.2484 27.5652L34.9482 36.1499C34.8807 36.4018 34.8296 36.6139 34.7951 36.786C34.7606 36.958 34.7409 37.1534 34.7364 37.372C34.7319 37.5905 34.7599 37.7737 34.8208 37.9212C34.8814 38.0687 34.985 38.2081 35.1309 38.34Z" fill="#FA5856"/>
<path d="M59.6725 27.7929L54.2294 26.3344L54.2015 26.3902L54.1546 26.3776L54.1266 26.4334L54.0797 26.4208L54.0518 26.4766L54.0048 26.464L53.9769 26.5198L53.93 26.5073L53.902 26.5631L53.8551 26.5505L53.8272 26.6063L53.7802 26.5937L53.7523 26.6495L53.7054 26.6369L53.6775 26.6927L53.6305 26.6802L53.6026 26.736L53.5557 26.7234L53.5277 26.7792L53.4808 26.7666L53.4529 26.8224L53.4059 26.8098L53.378 26.8656L53.3311 26.853L53.3031 26.9088L53.2562 26.8963L53.2283 26.9521L53.1814 26.9395L53.1534 26.9953L53.1065 26.9827L53.0786 27.0385L53.0316 27.0259L53.0037 27.0817L52.9568 27.0692L52.9288 27.125L52.8819 27.1124L52.854 27.1682L52.807 27.1556L52.7791 27.2114L52.7322 27.1988L52.7042 27.2546L52.6573 27.242L50.9598 30.6413L51.3381 25.5597L45.7462 24.0613L45.7293 24.1201L45.6713 24.1045L45.6544 24.1633L45.5964 24.1477L45.5795 24.2065L45.5216 24.191L45.5047 24.2497L45.4467 24.2342L45.4298 24.2929L45.3719 24.2774L45.355 24.3362L45.297 24.3206L45.2801 24.3794L45.2221 24.3639L45.2052 24.4226L45.1473 24.4071L45.1304 24.4658L45.0724 24.4503L45.0555 24.509L44.9975 24.4935L44.9806 24.5523L44.9227 24.5367L44.9058 24.5955L44.8478 24.58L44.8309 24.6387L44.773 24.6232L44.7561 24.6819L44.6981 24.6664L44.6812 24.7252L44.6232 24.7096L44.6063 24.7684L44.5484 24.7528L44.5315 24.8116L44.4735 24.7961L44.4566 24.8548L44.3986 24.8393L44.3817 24.898L44.3238 24.8825L44.3069 24.9413L44.2489 24.9257L44.232 24.9845L44.1741 24.969L38.6588 44.2884L43.016 45.4559L43.0333 45.3973L43.0909 45.4127L43.1082 45.3541L43.1657 45.3695L43.183 45.3108L43.2406 45.3263L43.2579 45.2676L43.3154 45.283L43.3328 45.2244L43.3903 45.2398L43.4076 45.1812L43.4652 45.1966L43.4825 45.1379L43.54 45.1534L43.5574 45.0947L43.6149 45.1101L43.6322 45.0515L43.6898 45.0669L43.7071 45.0083L43.7646 45.0237L43.7819 44.9651L43.8395 44.9805L43.8568 44.9218L43.9143 44.9373L43.9317 44.8786L43.9892 44.894L44.0065 44.8354L44.0641 44.8508L44.0814 44.7922L44.1389 44.8076L44.1563 44.7489L44.2103 44.7634L44.1311 45.7547L47.8574 46.7532L47.8839 46.697L47.9323 46.71L47.9587 46.6538L48.0072 46.6667L48.0336 46.6105L48.082 46.6235L48.1085 46.5673L48.1569 46.5803L48.1833 46.5241L48.2318 46.5371L48.258 46.4808L48.3066 46.4938L48.333 46.4376L48.3815 46.4506L48.4079 46.3944L48.4564 46.4074L48.4828 46.3512L48.5312 46.3642L48.5574 46.3079L48.6061 46.321L48.6325 46.2648L48.6809 46.2777L48.7074 46.2215L48.7558 46.2345L48.7822 46.1783L48.8307 46.1913L48.8569 46.135L48.9055 46.1481L48.9319 46.0919L48.9804 46.1049L49.0068 46.0486L49.0552 46.0616L49.0817 46.0054L49.1301 46.0184L49.1468 45.9828L48.8934 47.0308L53.2171 48.1893L53.2318 48.13L53.292 48.1461L53.3069 48.0868L53.3668 48.1029L53.3818 48.0436L53.4417 48.0596L53.4564 48.0003L53.5165 48.0164L53.5313 47.9571L53.5914 47.9732L53.6064 47.9139L53.6663 47.93L53.6812 47.8707L53.7411 47.8867L53.7559 47.8274L53.816 47.8435L53.8307 47.7842L53.8909 47.8003L53.9056 47.741L53.9657 47.7571L53.9807 47.6978L54.0406 47.7139L54.0555 47.6546L54.1154 47.6706L54.1302 47.6113L54.1903 47.6274L54.205 47.5681L54.2652 47.5842L54.2799 47.5249L54.34 47.541L54.3548 47.4816L54.4149 47.4977L54.4296 47.4384L54.4898 47.4545L54.5045 47.3952L54.5646 47.4113L54.5794 47.352L54.6395 47.3681L54.6542 47.3087L54.7143 47.3249L54.7293 47.2656L54.7892 47.2816L59.6725 27.7929Z" fill="black"/>
<path d="M50.4655 46.1231L51.7152 40.9548L49.4295 45.8455L45.7032 44.847L46.1553 39.1862L44.5881 44.5482L40.2306 43.3807L45.7461 24.0613L51.338 25.5596L50.7638 33.2747L54.2294 26.3344L59.6725 27.7928L54.7892 47.2816L50.4655 46.1231Z" fill="black"/>
<path d="M41.1943 42.8347L46.2831 25.009L50.516 26.1432L49.6962 37.1501L54.6409 27.2485L58.7337 28.3451L54.2279 46.3271L51.3986 45.569L54.2899 33.6126L49.0014 44.9267L46.5286 44.2641L47.5316 31.7092L44.0557 43.6015L41.1943 42.8347Z" fill="#FA5856"/>
<path d="M81.868 27.2205L75.092 25.4049L75.0775 25.4831L74.9949 25.4609L74.9805 25.5391L74.8978 25.517L74.8834 25.5952L74.8008 25.573L74.786 25.6514L74.7036 25.6293L74.689 25.7074L74.6066 25.6853L74.5919 25.7635L74.5093 25.7413L74.4948 25.8195L74.4122 25.7974L74.3977 25.8756L74.3151 25.8534L74.3006 25.9318L74.218 25.9097L74.2033 25.9878L74.1209 25.9657L74.1062 26.0439L74.0238 26.0218L74.0092 26.0999L73.9266 26.0778L73.9121 26.1559L73.8295 26.1338L73.815 26.212L73.7324 26.1899L73.7179 26.268L73.6353 26.2459L73.6206 26.3242L73.538 26.3021L73.5235 26.3803L73.4409 26.3582L73.4264 26.4363L73.3438 26.4142L73.3294 26.4924L73.2468 26.4702L73.2323 26.5484L73.1497 26.5263L73.1352 26.6045L73.0526 26.5823L69.7237 44.4605L69.657 44.4427L69.6365 44.5192L69.56 44.4987L69.5395 44.5753L69.4629 44.5548L69.4424 44.6313L69.3658 44.6108L69.3453 44.6874L69.2687 44.6669L69.2482 44.7436L69.1714 44.7231L69.1509 44.7996L69.0743 44.7791L69.0538 44.8557L68.9773 44.8352L68.9567 44.9117L68.8802 44.8912L68.8597 44.9678L68.7831 44.9472L68.7626 45.0238L68.686 45.0033L68.6655 45.0801L68.5887 45.0595L68.5682 45.1361L68.4916 45.1155L68.4711 45.1921L68.3945 45.1716L68.374 45.2482L68.2975 45.2276L68.2769 45.3042L68.2004 45.2837L68.1799 45.3602L68.1033 45.3397L68.0827 45.4165L68.006 45.3959L66.317 51.6994L72.676 53.4033L72.6965 53.3267L72.7731 53.3472L72.7936 53.2707L72.8704 53.2912L72.8909 53.2147L72.9674 53.2352L72.988 53.1584L73.0646 53.1789L73.0851 53.1024L73.1616 53.1229L73.1821 53.0463L73.2587 53.0668L73.2792 52.9903L73.3558 53.0108L73.3763 52.9342L73.4531 52.9548L73.4736 52.878L73.5502 52.8986L73.5707 52.822L73.6473 52.8425L73.6678 52.7659L73.7444 52.7865L73.7649 52.7099L73.8414 52.7304L73.8619 52.6539L73.9385 52.6744L73.959 52.5978L74.0358 52.6184L74.0564 52.5416L74.1329 52.5621L74.1534 52.4856L74.23 52.5061L74.2505 52.4295L74.3271 52.45L74.3476 52.3735L74.4241 52.394L74.4447 52.3174L74.5214 52.338L74.542 52.2614L74.6185 52.2819L74.6391 52.2052L74.7156 52.2257L76.4046 45.9222L74.9954 45.5446L81.868 27.2205Z" fill="black"/>
<path d="M68.3566 50.5218L70.0456 44.2183L71.5156 44.6122L75.092 25.4049L81.868 27.2205L74.9954 45.5446L76.4047 45.9222L74.7157 52.2257L68.3566 50.5218Z" fill="black"/>
<path d="M69.5905 49.8093L70.7579 45.4523L75.1709 46.6347L74.0035 50.9918L69.5905 49.8093ZM72.5999 44.2943L75.8834 26.6601L80.5346 27.9063L74.225 44.7297L72.5999 44.2943Z" fill="#FA5856"/>
<path d="M67.1325 40.955L67.1915 40.9708L67.2073 40.9118L67.2664 40.9276L67.2822 40.8685L67.3412 40.8844L67.3571 40.8253L67.4161 40.8411L67.4319 40.7821L67.491 40.7979L67.5068 40.7389L67.5658 40.7547L67.5816 40.6957L67.6407 40.7115L67.6565 40.6524L67.7155 40.6682L67.7314 40.6092L67.7904 40.625L67.8062 40.566L67.8653 40.5818L67.8811 40.5228L67.9401 40.5386L67.956 40.4795L68.015 40.4954L68.0308 40.4363L68.0899 40.4521L68.1057 40.3931L68.1647 40.4089L68.1805 40.3499L68.2396 40.3657L68.2554 40.3067L68.3144 40.3225L68.3303 40.2634L68.3893 40.2793L68.8941 38.3953C69.0807 37.6989 69.1931 37.0415 69.2276 36.4411C69.2643 35.8121 69.2049 35.1956 69.0514 34.6081C68.8912 33.995 68.6134 33.4375 68.2268 32.9519C67.8489 32.4774 67.3359 32.0477 66.7029 31.6745C66.0916 31.3149 65.3549 31.018 64.5141 30.7927C63.636 30.5575 62.8165 30.4533 62.0777 30.483C61.3147 30.5138 60.6262 30.6705 60.0302 30.9492C59.8733 31.0226 59.7212 31.1065 59.5727 31.1981C59.5479 31.2128 59.5225 31.2262 59.4978 31.2414C59.473 31.256 59.4476 31.2694 59.4232 31.2844C59.3981 31.2993 59.3728 31.3126 59.3481 31.3278C59.3233 31.3425 59.2979 31.3559 59.2735 31.3709C59.2487 31.3856 59.2233 31.3989 59.1986 31.4141C59.1738 31.4288 59.1485 31.4421 59.124 31.4572C59.099 31.472 59.0736 31.4854 59.0489 31.5005C59.0241 31.5152 58.9987 31.5286 58.9743 31.5436C58.9495 31.5583 58.9241 31.5716 58.8995 31.5868C58.8747 31.6015 58.8493 31.6149 58.8246 31.63C58.7998 31.6447 58.7745 31.6579 58.75 31.6731C58.7249 31.6879 58.6996 31.7013 58.6749 31.7165C58.6501 31.7312 58.6247 31.7445 58.6003 31.7595C58.5755 31.7742 58.5501 31.7876 58.5254 31.8028C58.5006 31.8175 58.4753 31.8306 58.4508 31.8458C58.4258 31.8607 58.4004 31.874 58.3757 31.8892C58.3509 31.9039 58.3255 31.9173 58.3011 31.9323C58.2763 31.947 58.2509 31.9603 58.2262 31.9755C58.2014 31.9902 58.1761 32.0035 58.1514 32.0187C58.1266 32.0334 58.1012 32.0468 58.0768 32.0618C57.6294 32.3265 57.2187 32.6691 56.8535 33.0898C56.4113 33.5992 56.0312 34.1914 55.7236 34.8489C55.426 35.4829 55.1622 36.227 54.939 37.06L53.3447 43.0099C53.0723 44.0266 52.9193 44.9652 52.8891 45.8001C52.8587 46.6714 52.9718 47.4919 53.2246 48.2386C53.4945 49.0369 53.9753 49.7235 54.6527 50.2793C55.3025 50.812 56.1441 51.219 57.1541 51.4897C58.105 51.7445 58.9765 51.7188 59.7409 51.4214L59.6879 51.8909L63.7077 52.968L63.7236 52.909L63.7826 52.9248L63.7984 52.8658L63.8575 52.8816L63.8733 52.8225L63.9323 52.8384L63.9482 52.7793L64.0072 52.7951L64.023 52.7361L64.0821 52.7519L64.0979 52.6929L64.1569 52.7087L64.1727 52.6496L64.2318 52.6655L64.2476 52.6064L64.3066 52.6222L64.3225 52.5632L64.3815 52.579L64.3973 52.52L64.4564 52.5358L64.4722 52.4768L64.5312 52.4926L64.547 52.4335L64.6061 52.4494L64.6219 52.3903L64.681 52.4061L64.6968 52.3471L64.7558 52.3629L64.7716 52.3039L64.8307 52.3197L64.8465 52.2606L64.9055 52.2765L64.9214 52.2174L64.9804 52.2332L64.9962 52.1742L65.0553 52.19L65.0711 52.131L65.1301 52.1468L65.1459 52.0878L65.205 52.1036L65.2208 52.0445L65.2799 52.0604L68.176 41.2518L67.1288 40.9712L67.1331 40.9552L67.1325 40.955ZM60.4925 44.6657L60.1553 45.924C60.1303 46.0174 60.1047 46.1033 60.079 46.1854C60.0623 46.1508 60.0543 46.1185 60.0485 46.0915C59.9743 45.7492 60.0176 45.2615 60.1732 44.6808L60.1983 44.5869L60.4925 44.6657Z" fill="black"/>
<path d="M58.7251 50.5827C57.7151 50.312 56.8736 49.9048 56.2238 49.3723C55.5461 48.8164 55.0653 48.1299 54.7956 47.3316C54.543 46.585 54.4298 45.7644 54.4602 44.8931C54.4901 44.0581 54.6433 43.1196 54.9157 42.1029L56.51 36.153C56.7333 35.3198 56.9971 34.5757 57.2947 33.9417C57.6023 33.2842 57.9823 32.692 58.4246 32.1826C58.8917 31.6444 59.4317 31.2295 60.0303 30.9488C60.6262 30.6703 61.3148 30.5134 62.0778 30.4826C62.8164 30.4528 63.6361 30.5571 64.5142 30.7923C65.3553 31.0177 66.0917 31.3145 66.703 31.6741C67.3358 32.047 67.8488 32.477 68.227 32.9515C68.6135 33.4371 68.8913 33.9946 69.0516 34.6078C69.205 35.1952 69.2644 35.8117 69.2278 36.4407C69.193 37.0411 69.0808 37.6985 68.8942 38.3949L68.3894 40.2789L63.0235 38.8411L63.6093 36.6548C63.6775 36.4004 63.7284 36.1913 63.7615 36.028C63.7888 35.8934 63.8062 35.7342 63.8134 35.5549C63.8195 35.4049 63.7996 35.3486 63.7993 35.348C63.7983 35.3457 63.7785 35.3028 63.6948 35.2301C63.6405 35.1826 63.5411 35.1377 63.4165 35.1043C63.2915 35.0708 63.186 35.0622 63.1117 35.0794C63.0023 35.1043 62.9556 35.1366 62.9407 35.1492C62.915 35.1707 62.8489 35.2355 62.7583 35.4017C62.6677 35.5675 62.5985 35.7221 62.5523 35.8597C62.4971 36.0269 62.4358 36.2358 62.369 36.4849L61.566 39.482L68.1748 41.2529L65.2786 52.0615L61.2588 50.9843L61.3118 50.5148C60.5477 50.8119 59.676 50.8375 58.7251 50.5827ZM60.1732 44.6806C60.0177 45.2613 59.9744 45.749 60.0486 46.0913C60.0682 46.1826 60.1004 46.334 60.4843 46.4368C60.725 46.5013 61.289 46.6525 61.7275 45.0162L62.0646 43.7579L60.5306 43.3469L60.1732 44.6806Z" fill="black"/>
<path d="M58.9263 49.8327C58.0192 49.5896 57.2825 49.236 56.7164 48.7718C56.1502 48.3077 55.7552 47.7447 55.5313 47.0827C55.3074 46.421 55.2094 45.7003 55.2368 44.9206C55.2644 44.1411 55.4074 43.2689 55.6659 42.3043L57.2602 36.3545C57.4723 35.5627 57.7181 34.8685 57.9975 34.2721C58.277 33.6757 58.6149 33.1489 59.0111 32.6918C59.4076 32.2348 59.8571 31.8884 60.3602 31.653C60.863 31.4173 61.4462 31.2862 62.1091 31.2594C62.7721 31.2325 63.5068 31.3272 64.313 31.5432C65.0905 31.7515 65.7559 32.0186 66.3091 32.3442C66.8622 32.6699 67.299 33.0338 67.6194 33.4359C67.9398 33.8381 68.1669 34.2944 68.3002 34.8046C68.4335 35.3148 68.4842 35.8453 68.4523 36.3963C68.4203 36.9473 68.3177 37.5466 68.144 38.1946L67.8402 39.3285L63.9744 38.2926L64.3592 36.8564C64.4325 36.5828 64.4869 36.3581 64.5224 36.1825C64.5579 36.0068 64.5802 35.8083 64.5894 35.5871C64.5986 35.3659 64.5735 35.1855 64.5144 35.0461C64.4553 34.9067 64.3523 34.7732 64.2051 34.645C64.058 34.5168 63.8623 34.4201 63.6175 34.3545C63.3655 34.287 63.1389 34.2763 62.9373 34.3227C62.736 34.3691 62.5704 34.4462 62.4413 34.5544C62.312 34.6625 62.1905 34.821 62.0769 35.0295C61.963 35.2382 61.8761 35.4328 61.8163 35.6136C61.7565 35.7944 61.6906 36.0178 61.6192 36.2842L59.4231 44.4803C59.2321 45.1929 59.1874 45.7847 59.2888 46.2556C59.3903 46.7264 59.7217 47.0371 60.2832 47.1875C61.3198 47.4653 62.0513 46.8087 62.4776 45.2176L63.0158 43.2091L61.3959 42.775L62.0296 40.4101L67.2236 41.8018L64.7295 51.11L62.1055 50.4068L62.281 48.8452C61.4411 49.8776 60.3228 50.2069 58.9263 49.8327Z" fill="#FA5856"/>
<path d="M61.0909 44.3233L60.0885 44.0547L59.4939 46.2739L60.4963 46.5425L61.0909 44.3233Z" fill="black"/>
</g>
</svg>
