<svg width="66" height="19" viewBox="0 0 66 19" fill="none" xmlns="http://www.w3.org/2000/svg">
<path d="M62.9375 4.60638L61.3947 14.3054C61.374 14.4397 61.4644 14.5664 61.5988 14.5896C61.6117 14.5922 61.6272 14.5922 61.6402 14.5922H63.4673C63.6017 14.5922 63.7154 14.4966 63.7361 14.3648L65.2789 4.66582C65.2996 4.53143 65.2091 4.4048 65.0747 4.38154C65.0618 4.37896 65.0463 4.37896 65.0334 4.37896H63.2063C63.0719 4.37637 62.9556 4.47199 62.9375 4.60638ZM60.9863 7.43622H59.2523C59.1205 7.43363 59.0042 7.53184 58.9835 7.66364L58.9266 8.02027C58.9266 8.02027 57.5802 6.56013 55.1974 7.54734C53.8303 8.11331 53.1739 9.27884 52.8948 10.1343C52.8948 10.1343 52.0084 12.7341 54.0138 14.1632C54.0138 14.1632 55.8745 15.5381 57.9678 14.0779L57.9317 14.3054C57.9136 14.4165 57.973 14.5224 58.0738 14.569C58.1074 14.5845 58.1436 14.5922 58.1798 14.5922H59.9138C60.0482 14.5948 60.1619 14.4966 60.1826 14.3648L61.237 7.72308C61.2499 7.65072 61.2267 7.57835 61.1802 7.5215C61.1285 7.46723 61.0587 7.43622 60.9863 7.43622ZM58.4356 11.1085C58.3684 11.5737 58.1332 11.995 57.7766 12.2999C57.4174 12.6049 56.96 12.7677 56.4896 12.7625C56.3061 12.7651 56.12 12.7367 55.9443 12.6824C55.1949 12.4446 54.7684 11.7314 54.8925 10.9561C54.9597 10.4909 55.1949 10.0696 55.5541 9.76469C55.9133 9.45974 56.3707 9.29435 56.8411 9.29952C57.0246 9.29693 57.2106 9.32536 57.3864 9.37963C58.1358 9.61997 58.5597 10.3332 58.4356 11.1085ZM49.1785 11.292C50.1192 11.292 51.0289 10.9587 51.7422 10.3513C52.4555 9.7466 52.9258 8.90411 53.0731 7.98151C53.3755 6.06135 51.8637 4.38413 49.7213 4.38413H46.2686C46.1342 4.38413 46.0205 4.47975 45.9998 4.61155L44.4544 14.3105C44.4363 14.4217 44.4957 14.5276 44.5965 14.5741C44.6301 14.5896 44.6663 14.5974 44.7025 14.5974H46.5296C46.664 14.5974 46.7777 14.5018 46.7984 14.37L47.2506 11.522C47.2713 11.3902 47.385 11.292 47.5194 11.2946L49.1785 11.292ZM50.7059 7.89364C50.5922 8.60433 50.0391 9.12637 48.9821 9.12637H47.628L48.0389 6.54204H49.3672C50.463 6.54462 50.8196 7.18554 50.7059 7.89364Z" fill="#0070E0"/>
<path d="M42.3723 7.60196L40.2816 11.1063L39.2194 7.6278C39.1859 7.51409 39.0799 7.43656 38.961 7.43656H37.0745C36.9737 7.43398 36.8858 7.50892 36.8729 7.60712C36.8677 7.63814 36.8729 7.67173 36.8832 7.70274L38.7853 13.5614L37.0641 16.3215C37.0047 16.4145 37.0305 16.536 37.1236 16.5954C37.1261 16.598 37.1287 16.6006 37.1339 16.6006C37.1649 16.6187 37.2011 16.629 37.2373 16.6264H39.2711C39.39 16.6264 39.4986 16.5644 39.5606 16.4636L44.8714 7.74151C44.9101 7.67949 44.9127 7.60196 44.8765 7.53735C44.8404 7.47274 44.7706 7.43398 44.6982 7.43656H42.6669C42.5429 7.43914 42.4343 7.50117 42.3723 7.60196ZM36.0045 7.43656H34.2705C34.1361 7.43656 34.0224 7.53218 34.0017 7.66398L33.9448 8.02062C33.9448 8.02062 32.5984 6.56047 30.2131 7.54769C28.846 8.11365 28.1895 9.27918 27.9104 10.1346C27.9104 10.1346 27.024 12.7344 29.0269 14.1636C29.0269 14.1636 30.8876 15.5384 32.9809 14.0783L32.9447 14.3057C32.9266 14.4168 32.9861 14.5228 33.0868 14.5693C33.1204 14.5848 33.1566 14.5926 33.1928 14.5926H34.9269C35.0587 14.5926 35.175 14.4969 35.1957 14.3651L36.2501 7.72342C36.2681 7.61229 36.2087 7.50375 36.1079 7.45982C36.0743 7.44431 36.0381 7.43656 36.0045 7.43656ZM33.4512 11.1089C33.384 11.5715 33.1489 11.9953 32.7896 12.2977C32.4304 12.6026 31.973 12.768 31.5026 12.7629C31.3192 12.7654 31.1357 12.737 30.9574 12.6827C30.2105 12.445 29.7815 11.7317 29.9055 10.9564C29.9727 10.4912 30.2105 10.0674 30.5697 9.76504C30.9289 9.46009 31.3889 9.29727 31.8593 9.30244C32.0428 9.29986 32.2288 9.32829 32.4046 9.38256C33.154 9.62032 33.5779 10.3336 33.4512 11.1089ZM24.1942 11.2924C25.1323 11.2924 26.0394 10.959 26.7552 10.3491C27.4685 9.74436 27.9389 8.90446 28.0836 7.97927C28.3885 6.05911 26.8741 4.38189 24.7317 4.38189H21.2791C21.1447 4.3793 21.031 4.47751 21.0103 4.60931L19.47 14.3057C19.4519 14.4168 19.5114 14.5254 19.6122 14.5693C19.6458 14.5848 19.6819 14.5926 19.7181 14.5926H21.5452C21.6796 14.5926 21.7933 14.4969 21.814 14.3651L22.2663 11.5172C22.2869 11.3854 22.4006 11.2872 22.535 11.2898L24.1942 11.2924ZM25.7241 7.89398C25.6104 8.60467 25.0573 9.12671 24.0003 9.12671H22.6462L23.0571 6.54238H24.3854C25.4812 6.54497 25.8378 7.18588 25.7241 7.89398Z" fill="#003087"/>
<path d="M12.3826 4.88077C12.4239 2.73836 10.6562 1.09473 8.22696 1.09473H3.20303C2.96011 1.09473 2.75594 1.27046 2.71718 1.5108L0.703989 14.0913C0.670393 14.3084 0.817699 14.5125 1.03737 14.5487C1.05804 14.5513 1.07872 14.5539 1.09939 14.5539H4.07654L3.61136 17.4664C3.57776 17.6835 3.72507 17.8877 3.94473 17.9239C3.96541 17.9264 3.98608 17.929 4.00676 17.929H6.43086C6.54715 17.929 6.65311 17.8877 6.74098 17.8101C6.82884 17.7352 6.84435 17.6292 6.86244 17.513L7.57313 13.3238C7.59122 13.2075 7.65066 13.0576 7.73853 12.9826C7.82639 12.9077 7.90392 12.8637 8.0228 12.8637H9.5062C11.8864 12.8637 13.9047 11.1736 14.2717 8.81928C14.5353 7.15239 13.8194 5.6328 12.3826 4.88077Z" fill="#001C64"/>
<path d="M4.72079 9.91268L3.98167 14.6162L3.51649 17.5649C3.48289 17.782 3.6302 17.9861 3.84987 18.0223C3.87054 18.0249 3.89122 18.0275 3.91189 18.0275H6.47813C6.72105 18.0275 6.92522 17.8517 6.96398 17.6114L7.64107 13.324C7.67984 13.0862 7.884 12.9105 8.12693 12.9079H9.63876C12.0189 12.9079 14.0373 11.1713 14.4068 8.81952C14.6679 7.15004 13.828 5.63046 12.3911 4.87842C12.3885 5.05674 12.373 5.23247 12.3445 5.4082C11.975 7.75994 9.95663 9.49661 7.57905 9.49661H5.21439C4.9663 9.49919 4.75955 9.67493 4.72079 9.91268Z" fill="#0070E0"/>
<path d="M3.97663 14.6158H0.991736C0.772068 14.6158 0.59375 14.4375 0.59375 14.2178C0.59375 14.1971 0.596334 14.1765 0.598919 14.1558L2.61211 1.38922C2.65087 1.15146 2.85504 0.975729 3.09796 0.973145H8.23044C10.6597 0.973145 12.4274 2.74082 12.386 4.88323C11.7813 4.56536 11.0706 4.38446 10.2927 4.38446H6.0105C5.76757 4.38446 5.56341 4.56019 5.52465 4.80053L4.71834 9.9175L3.97663 14.6158Z" fill="#003087"/>
</svg>
