<svg width="63" height="23" viewBox="0 0 63 23" fill="none" xmlns="http://www.w3.org/2000/svg">
<path d="M58.9375 4.97517L56.8804 17.9071C56.8528 18.0863 56.9734 18.2552 57.1526 18.2862C57.1698 18.2896 57.1905 18.2896 57.2077 18.2896H59.6439C59.8231 18.2896 59.9747 18.1621 60.0022 17.9864L62.0594 5.05442C62.0869 4.87524 61.9663 4.7064 61.7871 4.67539C61.7699 4.67194 61.7493 4.67194 61.732 4.67194H59.2959C59.1167 4.6685 58.9616 4.79599 58.9375 4.97517ZM56.3359 8.74829H54.0238C53.8481 8.74484 53.693 8.87578 53.6655 9.05152L53.5897 9.52703C53.5897 9.52703 51.7944 7.58017 48.6174 8.89646C46.7946 9.65108 45.9194 11.2051 45.5472 12.3457C45.5472 12.3457 44.3653 15.8121 47.0393 17.7176C47.0393 17.7176 49.5202 19.5508 52.3113 17.6039L52.263 17.9071C52.2389 18.0553 52.3182 18.1966 52.4526 18.2586C52.4974 18.2793 52.5456 18.2896 52.5938 18.2896H54.906C55.0851 18.2931 55.2367 18.1621 55.2643 17.9864L56.6702 9.13077C56.6874 9.03429 56.6564 8.9378 56.5944 8.862C56.5255 8.78964 56.4324 8.74829 56.3359 8.74829ZM52.935 13.6447C52.8454 14.265 52.5318 14.8266 52.0563 15.2332C51.5773 15.6398 50.9674 15.8569 50.3403 15.85C50.0957 15.8535 49.8476 15.8156 49.6132 15.7432C48.614 15.4262 48.0454 14.4752 48.2108 13.4414C48.3004 12.8212 48.614 12.2595 49.0929 11.8529C49.5719 11.4463 50.1818 11.2258 50.8089 11.2327C51.0536 11.2292 51.3017 11.2671 51.536 11.3395C52.5353 11.66 53.1004 12.611 52.935 13.6447ZM40.5922 13.8894C41.8465 13.8894 43.0594 13.4449 44.0104 12.6351C44.9615 11.8288 45.5886 10.7055 45.785 9.47535C46.1882 6.91514 44.1724 4.67883 41.3158 4.67883H36.7123C36.5331 4.67883 36.3815 4.80633 36.3539 4.98206L34.2934 17.914C34.2692 18.0622 34.3485 18.2035 34.4829 18.2655C34.5277 18.2862 34.5759 18.2965 34.6242 18.2965H37.0603C37.2395 18.2965 37.3911 18.169 37.4187 17.9933L38.0217 14.196C38.0492 14.0203 38.2009 13.8894 38.38 13.8928L40.5922 13.8894ZM42.6287 9.35819C42.4771 10.3058 41.7397 11.0018 40.3303 11.0018H38.5248L39.0726 7.55605H40.8438C42.3048 7.5595 42.7803 8.41405 42.6287 9.35819Z" fill="white"/>
<path d="M31.5173 8.96927L28.7296 13.6417L27.3134 9.00373C27.2686 8.85212 27.1274 8.74875 26.9689 8.74875H24.4534C24.3191 8.7453 24.2019 8.84523 24.1847 8.97617C24.1778 9.01751 24.1847 9.06231 24.1985 9.10366L26.7345 16.9152L24.4397 20.5953C24.3604 20.7193 24.3949 20.8813 24.5189 20.9605C24.5224 20.964 24.5258 20.9674 24.5327 20.9674C24.574 20.9916 24.6223 21.0053 24.6705 21.0019H27.3823C27.5408 21.0019 27.6856 20.9192 27.7683 20.7848L34.8493 9.15535C34.901 9.07265 34.9045 8.96927 34.8562 8.88313C34.808 8.79699 34.7149 8.7453 34.6185 8.74875H31.9101C31.7447 8.75219 31.6 8.83489 31.5173 8.96927ZM23.0269 8.74875H20.7148C20.5356 8.74875 20.384 8.87624 20.3564 9.05197L20.2806 9.52749C20.2806 9.52749 18.4854 7.58063 15.3049 8.89691C13.4821 9.65154 12.6069 11.2056 12.2347 12.3461C12.2347 12.3461 11.0528 15.8126 13.7233 17.7181C13.7233 17.7181 16.2043 19.5512 18.9953 17.6044L18.9471 17.9076C18.923 18.0558 19.0022 18.197 19.1366 18.2591C19.1814 18.2797 19.2297 18.2901 19.2779 18.2901H21.59C21.7657 18.2901 21.9208 18.1626 21.9484 17.9869L23.3542 9.13123C23.3784 8.98306 23.2991 8.83833 23.1647 8.77976C23.1199 8.75908 23.0717 8.74875 23.0269 8.74875ZM19.6225 13.6452C19.5329 14.262 19.2193 14.8271 18.7404 15.2302C18.2614 15.6368 17.6515 15.8574 17.0244 15.8505C16.7797 15.8539 16.5351 15.816 16.2973 15.7437C15.3015 15.4266 14.7295 14.4756 14.8949 13.4419C14.9845 12.8216 15.3015 12.2565 15.7804 11.8534C16.2594 11.4468 16.8728 11.2297 17.4999 11.2366C17.7445 11.2331 17.9926 11.271 18.2269 11.3434C19.2262 11.6604 19.7913 12.6115 19.6225 13.6452ZM7.27973 13.8898C8.53054 13.8898 9.74001 13.4453 10.6945 12.6321C11.6455 11.8258 12.2726 10.7059 12.4656 9.47236C12.8722 6.91215 10.853 4.67585 7.99645 4.67585H3.3929C3.21372 4.6724 3.06211 4.80334 3.03454 4.97907L0.980863 17.9076C0.956743 18.0558 1.036 18.2005 1.17038 18.2591C1.21518 18.2797 1.26342 18.2901 1.31166 18.2901H3.74782C3.927 18.2901 4.07861 18.1626 4.10618 17.9869L4.70919 14.1896C4.73675 14.0139 4.88837 13.8829 5.06755 13.8864L7.27973 13.8898ZM9.31962 9.35865C9.16801 10.3062 8.43062 11.0023 7.0213 11.0023H5.21571L5.76359 7.55651H7.53472C8.99572 7.55996 9.47124 8.41451 9.31962 9.35865Z" fill="white"/>
</svg>
