<svg width="26" height="26" viewBox="0 0 26 26" fill="none" xmlns="http://www.w3.org/2000/svg">
<path d="M10.7302 1.44303C12.0382 0.328237 13.9623 0.328226 15.2705 1.44305L16.8431 2.78325C17.0299 2.94249 17.2622 3.03871 17.507 3.05824L19.5667 3.22261C21.28 3.35932 22.6405 4.71985 22.7773 6.43311L22.9417 8.49284C22.9611 8.73755 23.0573 8.96988 23.2165 9.15674L24.5568 10.7295C25.6717 12.0375 25.6717 13.9616 24.5568 15.2698L23.2165 16.8423C23.0574 17.0292 22.961 17.2616 22.9415 17.5064L22.7773 19.566C22.6405 21.2794 21.28 22.6399 19.5667 22.7765L17.507 22.9409C17.2622 22.9605 17.0299 23.0567 16.8431 23.216L15.2705 24.5561C13.9623 25.671 12.0382 25.6709 10.73 24.5561L9.15738 23.216C8.97053 23.0567 8.73824 22.9605 8.49354 22.941L6.43383 22.7765C4.72054 22.6397 3.36004 21.2793 3.22332 19.566L3.05892 17.5064C3.03939 17.2616 2.94315 17.0294 2.78394 16.8425L1.44372 15.2697C0.32891 13.9616 0.328899 12.0377 1.4437 10.7295L2.78392 9.15679C2.94315 8.96994 3.03942 8.73755 3.05893 8.49283L3.22331 6.4331C3.36002 4.71983 4.7205 3.35934 6.43379 3.22262L8.49352 3.05825C8.73824 3.03872 8.97057 2.94249 9.15744 2.78325L10.7302 1.44303ZM13.757 3.21896C13.321 2.84737 12.6795 2.84736 12.2436 3.21896L10.6709 4.55919C10.1103 5.0369 9.41331 5.3256 8.67912 5.38419L6.6194 5.54856C6.04831 5.59414 5.59481 6.04762 5.54924 6.61873L5.38486 8.6785C5.32627 9.41266 5.03758 10.1096 4.55987 10.6702L3.21965 12.2429C2.84806 12.6789 2.84805 13.3203 3.21965 13.7563L4.55987 15.3289C5.03759 15.8895 5.32627 16.5866 5.38489 17.3207L5.54925 19.3804C5.59481 19.9515 6.04831 20.4051 6.61943 20.4506L8.67911 20.615C9.41325 20.6736 10.1103 20.9623 10.6709 21.4401L12.2436 22.7802C12.6797 23.1518 13.321 23.1518 13.757 22.7802L15.3297 21.4399C15.8902 20.9623 16.5872 20.6736 17.3214 20.615L19.3811 20.4506C19.9522 20.405 20.4058 19.9515 20.4513 19.3804L20.6157 17.3207C20.6742 16.5865 20.9629 15.8895 21.4407 15.3291L22.7809 13.7563C23.1526 13.3203 23.1525 12.679 22.7809 12.2429L21.4406 10.6702C20.9629 10.1096 20.6742 9.41264 20.6157 8.67847L20.4513 6.61873C20.4058 6.04763 19.9522 5.59414 19.3811 5.54856L17.3214 5.3842C16.5873 5.32562 15.8902 5.03689 15.3296 4.55918L13.757 3.21896ZM15.5927 8.75707C15.9832 8.36655 16.6164 8.36655 17.0069 8.75708L17.2426 8.99278C17.6331 9.3833 17.6331 10.0165 17.2426 10.407L10.4073 17.2424C10.0167 17.6329 9.38356 17.6329 8.99304 17.2423L8.7573 17.0066C8.3668 16.6161 8.36681 15.9829 8.75733 15.5924L15.5927 8.75707ZM10.9376 10.9373C10.2542 11.6207 9.14613 11.6207 8.46271 10.9373C7.77929 10.2539 7.77929 9.14586 8.46271 8.46244C9.14613 7.77901 10.2542 7.77901 10.9376 8.46244C11.621 9.14586 11.621 10.2539 10.9376 10.9373ZM15.0623 17.537C15.7458 18.2204 16.8538 18.2204 17.5372 17.537C18.2206 16.8535 18.2206 15.7456 17.5372 15.0621C16.8538 14.3787 15.7458 14.3787 15.0623 15.0621C14.3789 15.7456 14.3789 16.8535 15.0623 17.537Z" stroke="white"/>
</svg>
