<svg width="20" height="26" viewBox="0 0 20 26" fill="none" xmlns="http://www.w3.org/2000/svg">
<path d="M4.36675 18.876C4.51474 18.5377 4.40216 18.1447 4.1157 17.9117C2.0112 16.2004 0.666687 13.5905 0.666687 10.6666C0.666687 5.51193 4.84536 1.33325 10 1.33325C15.1547 1.33325 19.3334 5.51193 19.3334 10.6666C19.3334 13.5905 17.9889 16.2004 15.8843 17.9117C15.5979 18.1447 15.4853 18.5378 15.6333 18.876L17.8092 23.8495C17.9384 24.1446 17.8037 24.4886 17.5086 24.6177C17.4348 24.6499 17.3553 24.6666 17.2748 24.6666H2.72528C2.40312 24.6666 2.14195 24.4054 2.14195 24.0833C2.14195 24.0028 2.1586 23.9232 2.19086 23.8495L4.36675 18.876ZM12.7329 18.068C12.5849 17.7297 12.6952 17.334 12.9968 17.121L14.0328 16.3891C15.8812 15.0834 17 12.971 17 10.6666C17 6.80059 13.866 3.66659 10 3.66659C6.13403 3.66659 3.00002 6.80059 3.00002 10.6666C3.00002 12.971 4.11887 15.0834 5.96726 16.3891L7.0033 17.121C7.30486 17.334 7.41509 17.7297 7.2671 18.068L5.87772 21.2437C5.6529 21.7576 6.02939 22.3333 6.59029 22.3333H13.4098C13.9707 22.3333 14.3472 21.7576 14.1223 21.2437L12.7329 18.068ZM5.72182 12.5336C5.54989 12.1402 5.8091 11.7143 6.2256 11.6102L6.98072 11.4214C7.39768 11.3172 7.81087 11.583 8.04621 11.9426C8.46286 12.5793 9.18234 12.9999 10 12.9999C10.8177 12.9999 11.5372 12.5793 11.9538 11.9426C12.1892 11.583 12.6024 11.3172 13.0193 11.4214L13.7744 11.6102C14.1909 11.7143 14.4502 12.1402 14.2782 12.5336C13.558 14.1816 11.9135 15.3333 10 15.3333C8.08652 15.3333 6.44202 14.1816 5.72182 12.5336Z" stroke="#60CBE8"/>
</svg>
