<svg width="32" height="32" viewBox="0 0 32 32" fill="none" xmlns="http://www.w3.org/2000/svg">
<path d="M25.5822 22.2084C25.2908 22.6264 25.3191 23.1978 25.6794 23.5581L30.7634 28.6421C31.154 29.0327 31.154 29.6658 30.7634 30.0564L30.0564 30.7634C29.6658 31.154 29.0327 31.154 28.6421 30.7634L23.5581 25.6794C23.1978 25.3191 22.6264 25.2908 22.2084 25.5822C20.0223 27.1061 17.3649 28 14.5 28C7.048 28 1 21.952 1 14.5C1 7.048 7.048 1 14.5 1C21.952 1 28 7.048 28 14.5C28 17.3649 27.1061 20.0223 25.5822 22.2084ZM22.0371 21.8122C23.8713 19.9219 25 17.3434 25 14.5C25 8.69875 20.3013 4 14.5 4C8.69875 4 4 8.69875 4 14.5C4 20.3013 8.69875 25 14.5 25C17.3434 25 19.9219 23.8713 21.8122 22.0371L22.0371 21.8122ZM14.5 8.5C15.1244 8.5 15.2681 9.40062 14.9414 9.93277C14.6615 10.3889 14.5 10.9256 14.5 11.5C14.5 13.1569 15.8431 14.5 17.5 14.5C18.0744 14.5 18.6111 14.3385 19.0673 14.0585C19.5994 13.7319 20.5 13.8757 20.5 14.5V14.5C20.5 17.8137 17.8137 20.5 14.5 20.5C11.1863 20.5 8.5 17.8137 8.5 14.5C8.5 11.1863 11.1863 8.5 14.5 8.5V8.5Z" stroke="#888888" stroke-width="1.5"/>
</svg>
