<svg width="22" height="22" viewBox="0 0 22 22" fill="none" xmlns="http://www.w3.org/2000/svg">
<path d="M17.3881 15.1391C17.1939 15.4178 17.2127 15.7988 17.4529 16.039L20.8423 19.4283C21.1026 19.6887 21.1026 20.1108 20.8423 20.3711L20.3709 20.8425C20.1106 21.1029 19.6884 21.1029 19.4281 20.8425L16.0387 17.4532C15.7985 17.213 15.4176 17.1941 15.1389 17.3884C13.6815 18.4043 11.9099 19.0002 10 19.0002C5.032 19.0002 1 14.9682 1 10.0002C1 5.03224 5.032 1.00024 10 1.00024C14.968 1.00024 19 5.03224 19 10.0002C19 11.9102 18.4041 13.6818 17.3881 15.1391ZM15.0247 14.875C16.2475 13.6148 17 11.8958 17 10.0002C17 6.13274 13.8675 3.00024 10 3.00024C6.1325 3.00024 3 6.13274 3 10.0002C3 13.8677 6.1325 17.0002 10 17.0002C11.8956 17.0002 13.6146 16.2477 14.8748 15.0249L15.0247 14.875ZM10 6.00024C10.4163 6.00024 10.5121 6.60066 10.2943 6.95543C10.1076 7.2595 10 7.6173 10 8.00024C10 9.10484 10.8954 10.0002 12 10.0002C12.3829 10.0002 12.7408 9.8926 13.0449 9.70593C13.3996 9.48818 14 9.58403 14 10.0002V10.0002C14 12.2093 12.2091 14.0002 10 14.0002C7.79086 14.0002 6 12.2093 6 10.0002C6 7.7911 7.79086 6.00024 10 6.00024V6.00024Z" stroke="white"/>
</svg>
