<svg width="26" height="27" viewBox="0 0 26 27" fill="none" xmlns="http://www.w3.org/2000/svg">
<path d="M4.67175 6.80862C4.67175 6.60235 4.58981 6.40451 4.44395 6.25865L1.43864 3.25335C1.1349 2.94961 1.1349 2.45715 1.43864 2.15341L1.98861 1.60344C2.29235 1.2997 2.78482 1.2997 3.08856 1.60344L6.09386 4.60874C6.23972 4.7546 6.43755 4.83655 6.64383 4.83655H24.1037C24.748 4.83655 25.2703 5.35889 25.2703 6.00321C25.2703 6.11675 25.2538 6.2297 25.2212 6.33846L22.4212 15.6718C22.2732 16.1653 21.8189 16.5033 21.3037 16.5033H7.78287C7.35331 16.5033 7.00509 16.8515 7.00509 17.2811V18.0588C7.00509 18.4884 7.35331 18.8366 7.78286 18.8366H19.0607C19.4902 18.8366 19.8385 19.1848 19.8385 19.6144V20.3922C19.8385 20.8217 19.4902 21.1699 19.0607 21.1699H5.83842C5.19408 21.1699 4.67175 20.6475 4.67175 20.0033V6.80862ZM7.78286 7.16988C7.35331 7.16988 7.00509 7.5181 7.00509 7.94766V13.3922C7.00509 13.8217 7.35331 14.1699 7.78286 14.1699H19.857C20.2005 14.1699 20.5033 13.9446 20.602 13.6157L22.2353 8.17115C22.385 7.67212 22.0113 7.16988 21.4903 7.16988H7.78286ZM6.42175 25.8366C5.45525 25.8366 4.67175 25.0531 4.67175 24.0866C4.67175 23.12 5.45525 22.3366 6.42175 22.3366C7.38826 22.3366 8.17175 23.12 8.17175 24.0866C8.17175 25.0531 7.38826 25.8366 6.42175 25.8366ZM20.4218 25.8366C19.4552 25.8366 18.6718 25.0531 18.6718 24.0866C18.6718 23.12 19.4552 22.3366 20.4218 22.3366C21.3883 22.3366 22.1718 23.12 22.1718 24.0866C22.1718 25.0531 21.3883 25.8366 20.4218 25.8366Z" stroke="#97C93D"/>
</svg>
