<?xml version="1.0" encoding="utf-8"?>
<!-- Generator: Adobe Illustrator 24.1.2, SVG Export Plug-In . SVG Version: 6.00 Build 0)  -->
<svg version="1.1" id="Layer_1" xmlns="http://www.w3.org/2000/svg" xmlns:xlink="http://www.w3.org/1999/xlink" x="0px" y="0px"
	 viewBox="0 0 24 24" style="enable-background:new 0 0 24 24;" xml:space="preserve">
<style type="text/css">
	.st0{clip-path:url(#SVGID_2_);}
	.st1{fill:#252C32;}
</style>
<g>
	<defs>
		<rect id="SVGID_1_" width="24" height="24"/>
	</defs>
	<clipPath id="SVGID_2_">
		<use xlink:href="#SVGID_1_"  style="overflow:visible;"/>
	</clipPath>
	<g class="st0">
		<path class="st1" d="M11.3,12.7H4.5c-0.4,0-0.8-0.3-0.8-0.8s0.3-0.8,0.8-0.8h6.8c0.4,0,0.8,0.3,0.8,0.8S11.7,12.7,11.3,12.7z"/>
		<path class="st1" d="M17.3,6.7H4.5C4.1,6.7,3.8,6.4,3.8,6s0.3-0.8,0.8-0.8h12.7C17.7,5.2,18,5.6,18,6S17.7,6.7,17.3,6.7z"/>
		<path class="st1" d="M9.8,18.7H4.5c-0.4,0-0.8-0.3-0.8-0.8s0.3-0.8,0.8-0.8h5.3c0.4,0,0.8,0.3,0.8,0.8S10.2,18.7,9.8,18.7z"/>
		<path class="st1" d="M21.5,15.2c-0.3-0.3-0.8-0.3-1.1,0L18,17.7v-7.2c0-0.4-0.3-0.8-0.8-0.8s-0.8,0.3-0.8,0.8v7.2L14,15.2
			c-0.3-0.3-0.8-0.3-1.1,0s-0.3,0.8,0,1.1l3.7,3.8c0.1,0.1,0.2,0.1,0.2,0.2c0.1,0,0.2,0.1,0.3,0.1s0.2,0,0.3-0.1
			c0.1,0,0.2-0.1,0.2-0.2l3.8-3.8C21.8,16,21.8,15.5,21.5,15.2z"/>
	</g>
</g>
</svg>
