<svg width="36" height="36" viewBox="0 0 36 36" fill="none" xmlns="http://www.w3.org/2000/svg">
<path d="M26.8802 27.6266C26.8903 27.6113 26.8983 27.5947 26.9038 27.5772C27.183 26.6881 27.4034 25.7266 27.5362 24.7798L27.6107 24.0179V23.8472C27.6107 23.8316 27.6132 23.8161 27.6182 23.8012C27.6231 23.7864 27.6256 23.7708 27.6256 23.7552V23.7489V23.6593V23.2858C27.6256 22.7778 27.6405 22.2698 27.6554 21.7619C27.6703 21.2539 27.5958 20.7459 27.5809 20.2379L27.5362 19.476C27.5064 19.222 27.4617 18.983 27.417 18.729C27.3723 18.4899 27.3276 18.2359 27.2978 17.9969C27.268 17.7579 27.2233 17.5039 27.1488 17.2798C27.0147 16.8166 26.8955 16.3385 26.7614 15.8903C26.5826 15.457 26.4187 15.0238 26.2399 14.6054C26.0313 14.2021 25.8227 13.8136 25.6141 13.4252C25.3757 13.0666 25.1373 12.723 24.8989 12.3793C24.6455 12.0656 24.3773 11.7668 24.1389 11.4829C23.8707 11.214 23.6025 10.975 23.3492 10.7359C23.081 10.5267 22.8128 10.3176 22.5744 10.1233C22.3211 9.959 22.0678 9.77972 21.8443 9.64526C21.6059 9.51079 21.3973 9.39128 21.1887 9.28669C20.7864 9.09247 20.4586 8.94307 20.235 8.86837C20.1895 8.85314 20.2034 8.81186 20.25 8.82353C20.4884 8.8833 20.8311 8.97295 21.2632 9.13729C21.4718 9.22693 21.7102 9.33151 21.9635 9.43609C22.2168 9.55562 22.4701 9.70502 22.7532 9.85442C23.0214 10.0337 23.3045 10.213 23.6174 10.4072C23.9005 10.6313 24.1985 10.8704 24.4965 11.1393C24.7647 11.4232 25.0777 11.722 25.3608 12.0357C25.629 12.3793 25.8972 12.723 26.1654 13.0965C26.4038 13.4849 26.6422 13.8883 26.8806 14.3066C27.0743 14.7399 27.268 15.2031 27.4766 15.6513C27.6405 16.1144 27.7746 16.6074 27.9385 17.1005C28.0279 17.3395 28.0726 17.5935 28.1173 17.8475C28.162 18.1015 28.2067 18.3555 28.2514 18.6095C28.2961 18.8634 28.3557 19.1174 28.3855 19.3863L28.4451 20.1782C28.4749 20.7011 28.5494 21.224 28.5345 21.7619C28.5345 22.2848 28.5047 22.8226 28.4898 23.3455V23.734V23.8386V23.8983V23.9432V24.1374L28.3855 24.8993C28.2365 25.9601 27.9683 26.9462 27.6405 27.8874C27.417 28.5298 27.1339 29.1424 26.8359 29.7101C26.8955 29.6205 26.9551 29.5308 27.0147 29.4263C27.1041 29.2768 27.1786 29.1274 27.2531 28.993C27.417 28.6942 27.5958 28.4103 27.7448 28.0816C28.3706 26.8416 28.8772 25.4372 29.2199 23.9581C29.5626 22.4641 29.7564 20.8654 29.7117 19.2369C29.7117 19.0278 29.7116 18.8186 29.6967 18.6244C29.6818 18.4152 29.6521 18.221 29.6372 18.0118C29.6223 17.8027 29.6074 17.5935 29.5627 17.3993C29.5329 17.1901 29.4881 16.9959 29.4583 16.7867C29.3987 16.3684 29.2795 15.98 29.1752 15.5766C29.0709 15.1433 28.9219 14.8146 28.8027 14.4411L28.7133 14.1722L28.5643 13.8435C28.46 13.6343 28.3557 13.4102 28.2514 13.1861L28.1979 13.0653C28.1939 13.0563 28.1918 13.0466 28.1918 13.0367C28.1918 13.0269 28.1895 13.0172 28.1852 13.0084L28.162 12.962L27.9981 12.6931C27.8938 12.5138 27.7746 12.3345 27.6554 12.1552C27.1786 11.4381 26.6124 10.7658 25.9717 10.1682C25.331 9.57055 24.6157 9.01776 23.8409 8.56955C23.4684 8.34545 23.0363 8.12134 22.6638 7.97194L22.5148 7.91217L22.336 7.83748L21.9784 7.70301L21.6953 7.59843C21.591 7.56855 21.4867 7.53867 21.3675 7.50879C19.639 7.00082 17.6871 6.94106 15.8693 7.31457C13.9918 7.70302 12.2783 8.59943 10.7733 9.83948C9.26841 11.0945 8.09129 12.7528 7.30157 14.5606L7.04826 15.2479L6.91416 15.5915L6.82476 15.9501L6.63106 16.6672L6.51185 17.3993C6.40755 17.8774 6.42245 18.3704 6.37775 18.8634C6.37775 19.1025 6.39265 19.3266 6.40755 19.5507C6.40755 19.7748 6.40755 19.9989 6.46715 20.2828L6.58635 21.1194V21.1863C6.58635 21.2013 6.5844 21.2052 6.59109 21.2186C6.59424 21.2249 6.60211 21.2424 6.60382 21.2492L6.64595 21.4182C6.66267 21.4853 6.67469 21.5523 6.68992 21.6167C6.71325 21.7154 6.74744 21.8114 6.77528 21.9088C6.89269 22.32 7.05392 22.7192 7.22707 23.1065C7.62937 23.973 8.16578 24.7798 8.8214 25.482C10.1326 26.9013 11.9058 27.9173 13.813 28.5C14.2898 28.6494 14.7666 28.7689 15.2583 28.8735L15.6159 28.9332L16.0183 28.993C16.2269 29.0079 16.4802 29.0527 16.7186 29.0677C17.1954 29.1125 17.6573 29.0976 18.1192 29.0677C18.5811 29.0229 19.043 28.9482 19.4751 28.8286C20.2525 28.6098 20.9799 28.2784 21.6231 27.8229C21.7419 27.7388 21.8478 27.6377 21.9388 27.5241C22.0543 27.3799 22.1655 27.2303 22.2615 27.0806C22.6638 26.4979 22.9469 25.8406 23.1406 25.1981C23.2449 24.8695 23.2747 24.5408 23.3492 24.2121C23.379 23.8834 23.4088 23.5696 23.4237 23.2559C23.4088 22.9422 23.4237 22.6284 23.379 22.3445C23.3343 22.0457 23.3194 21.7619 23.2449 21.4929C23.0214 20.4023 22.6787 19.5358 22.4105 18.9531C22.3954 18.9194 22.4665 18.8762 22.485 18.9083C22.7979 19.4909 23.2151 20.3276 23.4833 21.4332C23.5727 21.7021 23.5876 22.0009 23.6621 22.2997C23.7217 22.5985 23.7217 22.9272 23.7515 23.241C23.7515 23.5696 23.7515 23.8983 23.7217 24.2569C23.6621 24.6005 23.6323 24.9442 23.528 25.3027C23.4205 25.6934 23.2767 26.0841 23.0965 26.4639C23.088 26.4819 23.1127 26.4982 23.1257 26.483L23.2293 26.3494C23.2298 26.3488 23.2297 26.3491 23.2301 26.3484C23.2346 26.3394 23.2571 26.3213 23.2643 26.3142L23.2733 26.3052C23.2742 26.3042 23.2751 26.3031 23.2758 26.302L23.3022 26.2578C23.3136 26.2387 23.3266 26.2204 23.3408 26.2031C23.4799 26.0324 23.5941 25.8611 23.7217 25.6762C24.72 24.1523 25.2267 22.3147 25.1224 20.5965C25.0926 20.3874 25.0926 20.1483 25.0628 19.969L25.018 19.6702L24.9286 19.3117C24.8988 19.1324 24.8094 18.9083 24.7498 18.6991C24.6753 18.4899 24.6008 18.2957 24.5263 18.0865C24.1985 17.2798 23.7366 16.5328 23.2151 15.8903C22.1423 14.5905 20.7417 13.6642 19.2516 13.3803C17.7914 13.0666 16.3461 13.5148 15.3179 14.3813C14.1855 15.3076 13.5299 16.5477 13.3958 17.7728C13.2468 18.983 13.664 20.2529 14.3047 21.1941C14.6325 21.6573 15.0199 22.0607 15.4371 22.3595C15.4993 22.404 15.5667 22.4432 15.633 22.4834C15.7225 22.5375 15.8115 22.593 15.9047 22.6405C15.9588 22.6681 16.0114 22.6931 16.0779 22.718L16.2782 22.7898C16.2837 22.7917 16.2894 22.7928 16.2953 22.7928H16.3363C16.3417 22.7928 16.3461 22.7976 16.3461 22.803C16.3461 22.8096 16.3526 22.8099 16.3589 22.812L16.4355 22.8376C16.5547 22.8824 16.6739 22.8973 16.7931 22.9422C17.7616 23.1663 18.6258 22.9571 19.0728 22.4342L19.1622 22.3296L19.21 22.2577C19.2179 22.2459 19.2256 22.2341 19.2331 22.222C19.2612 22.1765 19.3351 22.0547 19.3708 21.971C19.4453 21.8366 19.5049 21.6423 19.5645 21.4631C19.6688 21.1045 19.6986 20.7459 19.7135 20.4172C19.7135 19.7599 19.5496 19.2071 19.2963 18.8485C19.0038 18.4601 18.6609 18.2693 18.4102 18.1714C18.1798 18.0814 18.1839 18.0295 18.4297 18.002C18.4449 18.0003 18.4606 17.9986 18.4768 17.9969C18.7599 17.9969 19.2367 18.0417 19.7135 18.4152C19.9519 18.5945 20.1903 18.8634 20.3543 19.1921C20.548 19.5208 20.6672 19.9093 20.7417 20.3276C20.8162 20.7459 20.8162 21.224 20.7417 21.717C20.697 21.971 20.6523 22.1951 20.5331 22.4939C20.4735 22.6732 20.2947 23.0467 20.1158 23.2708C19.7433 23.7788 19.1622 24.1822 18.5215 24.3914C17.8808 24.6005 17.1954 24.6304 16.51 24.5408C16.3461 24.5109 16.1673 24.496 16.0034 24.4511L15.8785 24.4233C15.8724 24.4219 15.8661 24.4212 15.8598 24.4212C15.8464 24.4212 15.8332 24.4181 15.8213 24.4121L15.8092 24.4061C15.7899 24.3964 15.7686 24.3914 15.747 24.3914C15.7293 24.3914 15.7118 24.388 15.6954 24.3814L15.4967 24.3017C15.3477 24.242 15.1242 24.1673 14.9603 24.0926C14.7964 24.0179 14.6325 23.9282 14.4686 23.8236C13.8279 23.4501 13.2468 22.9123 12.7551 22.2997C12.2634 21.6872 11.8909 20.9551 11.6227 20.1633C11.3694 19.3714 11.2353 18.475 11.2949 17.5786C11.3619 16.6238 11.6704 15.669 12.1551 14.8014C12.1929 14.7338 12.1142 14.6604 12.0548 14.71C11.6972 14.979 11.3843 15.3226 11.0862 15.6812C10.8031 16.0547 10.5647 16.458 10.3859 16.9063C10.2965 17.1154 10.222 17.3545 10.1475 17.5636C10.0879 17.8027 10.0134 18.0417 9.98363 18.2658C9.89423 18.714 9.86443 19.1921 9.87933 19.6403C9.89423 20.5368 10.0879 21.3734 10.3412 22.0607C10.5945 22.7479 10.8627 23.3007 11.0862 23.6593C11.1911 23.8471 11.281 23.9934 11.3444 24.0924C11.3542 24.1077 11.3363 24.1215 11.3247 24.1075C11.2502 24.0179 11.1459 23.8834 11.0117 23.719C10.8925 23.5398 10.7435 23.3306 10.5796 23.0617C10.4157 22.8077 10.2518 22.4939 10.1177 22.1503C9.96873 21.8067 9.83462 21.4182 9.71542 20.9999C9.61112 20.5816 9.52172 20.1334 9.50682 19.6553C9.49192 19.1772 9.50682 18.6842 9.58132 18.1911C9.61112 17.9371 9.68562 17.6981 9.73032 17.4591C9.80482 17.2051 9.87933 16.966 9.98363 16.727C10.1773 16.2489 10.4604 15.8156 10.7584 15.4122C11.0863 15.0238 11.429 14.6652 11.8164 14.3963C11.9952 14.2469 12.2038 14.1274 12.3975 14.0078C12.6657 13.8883 12.8932 13.692 13.0887 13.4729C13.3205 13.2132 13.5669 12.9682 13.8279 12.7379C14.5878 12.0656 15.4818 11.5726 16.4802 11.2887C17.4785 11.0048 18.5811 10.96 19.6092 11.1542C21.6953 11.5128 23.5876 12.7528 24.9584 14.3813C25.6439 15.2031 26.225 16.1443 26.672 17.1453C26.8955 17.6533 27.0743 18.1612 27.2233 18.7439L27.3127 19.1025L27.3872 19.5507C27.4468 19.8644 27.4617 20.1334 27.4915 20.4172C27.6703 22.718 27.0445 25.0637 25.778 27.0507C25.6141 27.3047 25.4502 27.5438 25.2714 27.7828L25.1075 27.992L24.9883 28.1414L24.7349 28.4402C24.5263 28.6643 24.3028 28.9183 24.0793 29.1125C23.8558 29.3217 23.6323 29.5308 23.3939 29.7101C22.4403 30.4721 21.3079 31.0398 20.1158 31.3984C19.5198 31.5777 18.9089 31.6823 18.298 31.757C17.6871 31.8018 17.0762 31.8316 16.4653 31.7868C16.1524 31.7868 15.8693 31.742 15.5414 31.6972L15.1242 31.6374L14.6772 31.5627C14.5951 31.5463 14.5176 31.5298 14.4396 31.5133C14.3104 31.4861 14.1786 31.4741 14.0466 31.4696C13.7904 31.4609 13.5437 31.4371 13.3064 31.4133C12.1889 31.3087 11.28 31.0398 10.6541 30.8456C10.4008 30.7559 10.2071 30.6812 10.0581 30.6215C9.98363 30.5916 9.90913 30.5468 9.84953 30.5169C10.0134 30.5767 10.2965 30.6663 10.6839 30.7559C10.953 30.8288 11.0476 30.4568 10.7944 30.3404C9.28736 29.6477 7.87269 28.6953 6.67576 27.4541C5.79664 26.5428 5.06652 25.4969 4.51521 24.3465C4.247 23.7639 4.00859 23.1812 3.84469 22.5686C3.79999 22.4192 3.75529 22.2698 3.72549 22.1055L3.70355 22.023C3.69779 22.0013 3.64073 21.7747 3.63703 21.7526C3.63686 21.7516 3.63609 21.7464 3.63609 21.7453V21.7247C3.63609 21.6998 3.63262 21.675 3.62579 21.651L3.60629 21.5826L3.45729 20.7609C3.39768 20.5069 3.38278 20.1632 3.36788 19.8346C3.35298 19.5059 3.32318 19.1772 3.30828 18.8485C3.35299 18.221 3.32319 17.5935 3.44239 16.981C3.48709 16.6672 3.53179 16.3684 3.57649 16.0547L3.79999 15.1433L3.9192 14.6951L4.0682 14.2618L4.3811 13.3803C4.41702 13.2963 4.29872 13.2308 4.24926 13.3076C4.2336 13.332 4.21795 13.3562 4.2023 13.3803C3.9639 13.7538 3.8 14.1572 3.57649 14.5307C3.38279 14.9341 3.23378 15.3525 3.06988 15.7558C2.95068 16.1592 2.80167 16.6373 2.68247 17.0706C2.48876 17.9222 2.33976 18.8037 2.33976 19.7001V20.3575C2.33976 20.5816 2.36956 20.7907 2.38446 21.0149C2.38446 21.4481 2.48876 21.8664 2.54837 22.2848C2.63777 22.7031 2.74207 23.1065 2.84637 23.4949C2.98048 23.8834 3.06988 24.2718 3.23378 24.6304C3.38278 24.989 3.51689 25.3475 3.68079 25.6762C3.8298 26.0199 3.9937 26.3336 4.1725 26.6175C4.50031 27.2151 4.84302 27.7529 5.17083 28.2011C5.31983 28.4402 5.48373 28.6344 5.63273 28.8286C5.78173 29.0229 5.91584 29.2022 6.04994 29.3516C6.30325 29.6653 6.51185 29.9044 6.67576 30.0538C6.68846 30.0678 6.66058 30.0956 6.64595 30.0836C6.48205 29.9492 6.22875 29.74 5.93074 29.4561C5.78174 29.3217 5.61783 29.1573 5.45393 28.978C5.29003 28.7988 5.09632 28.6045 4.91752 28.3954C4.54501 27.9621 4.1278 27.4691 3.75529 26.8715C3.69569 26.7669 3.62119 26.6623 3.56159 26.5577C3.48709 26.4083 3.41259 26.2589 3.33809 26.0946C2.87618 25.1085 2.45897 24.0029 2.16096 22.7928C1.86295 21.5826 1.68415 20.2828 1.63944 18.9381C1.63944 18.6543 1.63944 18.3555 1.63944 18.0567C1.69905 17.6383 1.77355 17.2349 1.86295 16.8166C1.99705 16.3535 2.11626 15.9501 2.28016 15.457C2.47386 15.0238 2.63777 14.5756 2.84637 14.1423C3.27848 13.3056 3.7702 12.5138 4.32151 11.8116C4.60461 11.468 4.87282 11.1094 5.17083 10.8106C5.31983 10.6612 5.46883 10.4969 5.60293 10.3475C5.75193 10.213 5.90094 10.0636 6.06484 9.92913C6.27429 9.73079 6.48373 9.55067 6.69318 9.38166C6.80954 9.28776 6.91673 9.18304 7.01304 9.06867C7.51155 8.47671 8.0585 7.9231 8.6426 7.41915C9.11941 7.0307 9.58132 6.62731 10.1028 6.29863C10.3561 6.13428 10.5945 5.94006 10.8627 5.80559L11.6674 5.37232C11.9356 5.20798 12.2187 5.10339 12.5018 4.98387C12.7849 4.86435 13.0531 4.74483 13.3511 4.64025L14.2153 4.37132L14.6474 4.23685L15.0646 4.13227C17.4487 3.60936 19.8774 3.65418 22.1721 4.29662C22.3062 4.34144 22.4552 4.37132 22.5893 4.41614L23.0512 4.56554L23.4237 4.70001L23.6025 4.77471L23.826 4.86436C24.422 5.1034 24.8989 5.35738 25.4204 5.64125C26.4187 6.20898 27.3425 6.89623 28.1769 7.65819C28.9964 8.43509 29.7415 9.28669 30.3673 10.1981C30.5163 10.4371 30.6802 10.6612 30.8143 10.9002L31.0229 11.2588L31.081 11.3462C31.082 11.3477 31.0825 11.3494 31.0825 11.3511C31.0825 11.3572 31.0856 11.3688 31.0886 11.3741C31.0947 11.3849 31.1073 11.4069 31.1325 11.4512C31.1388 11.4622 31.1421 11.4746 31.1421 11.4873V11.4894C31.1421 11.5047 31.1464 11.5197 31.1546 11.5326L31.2464 11.6771C31.3507 11.8863 31.455 12.1104 31.5742 12.3196L31.7381 12.6483L31.8871 13.0517C32.0957 13.5746 32.3192 14.1124 32.4384 14.6054C32.5874 15.1134 32.7364 15.6214 32.8109 16.1294C32.8556 16.3833 32.9003 16.6373 32.9599 16.8913C33.0046 17.1453 33.0195 17.3993 33.0493 17.6383L33.1238 18.3853C33.1387 18.6393 33.1387 18.8784 33.1536 19.1324C33.2281 21.1045 33.0195 23.0019 32.6172 24.7798C32.2149 26.5428 31.6338 28.2011 30.9037 29.6952C30.7398 30.0836 30.5163 30.4273 30.3375 30.7858C30.2481 30.9651 30.1438 31.1444 30.0395 31.3237C30.0091 31.3724 30.0795 31.4331 30.1219 31.3944C31.2523 30.362 32.2771 29.1554 33.1387 27.7978C38.5177 19.4162 36.089 8.24086 27.7299 2.86235C19.3708 -2.51617 8.22539 -0.0958434 2.86127 8.28568C-2.51775 16.6672 -0.0889919 27.8426 8.27009 33.2211C10.7733 34.8347 13.515 35.746 16.2865 36C16.4653 36 16.6739 36 16.9272 35.9851C17.8063 35.9253 19.1324 35.7311 20.697 35.0588C21.4718 34.7301 22.3062 34.2819 23.1555 33.6693C23.3641 33.505 23.5876 33.3556 23.7813 33.1912C23.807 33.1719 23.8327 33.1498 23.8584 33.1261C23.928 33.062 23.9884 32.9888 24.0458 32.9136C24.2001 32.7116 24.3632 32.5063 24.5263 32.2799C24.9585 31.6524 25.4055 30.9502 25.8078 30.1733C26.1916 29.4035 26.5608 28.5605 26.8574 27.6732C26.8629 27.6567 26.8706 27.641 26.8802 27.6266ZM19.5513 14.3381C19.5407 14.3275 19.5263 14.3216 19.5113 14.3214C19.3999 14.3196 19.2876 14.3057 19.1622 14.2917C18.9089 14.2917 18.6258 14.3216 18.3427 14.3963C18.0596 14.456 17.7765 14.5905 17.4934 14.725C17.3593 14.7997 17.2103 14.8893 17.0762 14.979C16.9421 15.0835 16.808 15.1732 16.6739 15.2778C16.4206 15.4869 16.1673 15.726 15.9587 15.9949C15.7352 16.2489 15.5563 16.5477 15.4222 16.8166C15.3477 16.9511 15.2881 17.1453 15.2136 17.3096C15.1689 17.4142 15.1242 17.6085 15.0944 17.7579C14.9603 18.3854 14.9603 19.0128 15.0199 19.5507C15.0497 19.8196 15.0944 20.0587 15.154 20.2678C15.2136 20.477 15.2881 20.6563 15.3775 20.7907C15.4538 20.936 15.53 21.0421 15.5863 21.1111C15.5938 21.1204 15.5687 21.1543 15.5576 21.1498C15.5572 21.1496 15.5561 21.1492 15.5557 21.1489C15.4812 21.1041 15.3623 21.0294 15.2434 20.9103C15.1242 20.7907 14.9752 20.6264 14.856 20.4172C14.7368 20.2081 14.6176 19.9541 14.5431 19.6702C14.3643 19.1025 14.26 18.4152 14.3494 17.6533C14.3792 17.4591 14.409 17.2947 14.4686 17.0557C14.5282 16.8764 14.558 16.712 14.6623 16.5328C14.8411 16.1443 15.0497 15.7857 15.303 15.472C15.5563 15.1582 15.8544 14.8744 16.1673 14.6353C16.3163 14.5158 16.4951 14.4112 16.659 14.3066C16.8378 14.217 17.0017 14.1274 17.1805 14.0527C17.5381 13.9182 17.8957 13.8285 18.2533 13.7837C18.5429 13.7459 18.8324 13.772 19.0951 13.808C19.1895 13.821 19.2825 13.8426 19.3744 13.8676C19.4232 13.8809 19.4708 13.8935 19.5177 13.9067C19.609 13.9323 19.6962 13.9699 19.7815 14.0113C19.8582 14.0486 19.9349 14.0836 20.0115 14.1124C20.2166 14.2152 20.3784 14.3613 20.5113 14.4514C20.5159 14.4545 20.5202 14.4581 20.5241 14.462C20.5258 14.4637 20.5275 14.4654 20.5292 14.4671C20.5958 14.5339 20.5253 14.6414 20.4418 14.5974C20.4371 14.5949 20.4262 14.5897 20.4211 14.5882C20.2736 14.5431 20.0974 14.47 19.8923 14.4112C19.7942 14.3972 19.6828 14.3699 19.5831 14.3543C19.5711 14.3524 19.5599 14.3468 19.5513 14.3381ZM19.4006 8.27075C19.2218 8.27075 19.0281 8.27075 18.8344 8.25581C18.447 8.22593 18.0596 8.25581 17.6573 8.27075H17.5579C17.4258 8.27075 17.2941 8.28383 17.1646 8.30979L17.0613 8.33051C16.8527 8.36039 16.6441 8.39027 16.4355 8.42015C16.0183 8.50979 15.601 8.62932 15.1838 8.74884C14.9752 8.82354 14.7815 8.91318 14.5729 9.00282C14.3643 9.09247 14.1557 9.15223 13.962 9.28669C13.7683 9.39128 13.5746 9.5108 13.366 9.61538C13.2617 9.67514 13.1574 9.71995 13.068 9.77972L12.7849 9.98889C12.4124 10.2578 12.025 10.5118 11.7121 10.8554C11.3843 11.1841 11.0415 11.453 10.7435 11.8564L10.2816 12.4092L10.0432 12.6931L9.86442 12.962C9.61112 13.3654 9.32801 13.7389 9.11941 14.1423C9.0151 14.3515 8.9108 14.5606 8.8065 14.7548C8.7171 14.964 8.583 15.1582 8.5234 15.3674C8.4489 15.5766 8.37439 15.7857 8.29989 15.9949C8.22539 16.2041 8.13599 16.4132 8.10618 16.6224C7.89758 17.474 7.77838 18.3256 7.80818 19.1324C7.80818 19.2869 7.80818 19.4332 7.80818 19.5774C7.80818 19.679 7.81639 19.7803 7.82888 19.8811C7.84671 20.025 7.86061 20.1688 7.88268 20.3127C7.91248 20.7011 8.00188 21.0597 8.07638 21.4033C8.24029 22.1055 8.46379 22.7181 8.6724 23.2708C8.7916 23.5398 8.9108 23.7938 9.01511 24.0179C9.13431 24.242 9.25351 24.4511 9.34291 24.6304C9.56642 24.989 9.73032 25.2728 9.86442 25.4671C9.86521 25.4681 9.866 25.4692 9.86679 25.4702C9.88798 25.4986 9.85839 25.5232 9.83462 25.497C9.68562 25.3326 9.46212 25.0786 9.20881 24.72C9.08961 24.5408 8.9555 24.3465 8.8065 24.1374C8.6724 23.9133 8.52339 23.6742 8.37439 23.4053C8.09128 22.8674 7.79328 22.2549 7.58468 21.5378C7.48037 21.1792 7.36117 20.8057 7.30157 20.4023C7.27177 20.2081 7.22707 19.9989 7.18237 19.7897C7.16747 19.5806 7.15257 19.3714 7.13767 19.1473C7.06317 18.2808 7.13767 17.3545 7.34627 16.4282C7.37607 16.1891 7.46547 15.965 7.53998 15.7409C7.61448 15.5168 7.68898 15.2778 7.76348 15.0537C7.92738 14.5905 8.16579 14.1572 8.37439 13.709C8.5979 13.2608 8.89591 12.8724 9.16411 12.4391C9.23861 12.3196 9.28331 12.2449 9.38761 12.1104L9.62602 11.8265L10.0879 11.2588C10.371 10.8704 10.7733 10.5417 11.1459 10.1831C11.5035 9.8096 11.9356 9.54067 12.3379 9.25681C12.7253 8.94306 13.2021 8.74884 13.6193 8.52473C13.8279 8.40521 14.0663 8.33051 14.2898 8.24086C14.5133 8.15122 14.7368 8.07653 14.9603 8.00182C15.4222 7.8823 15.8693 7.76277 16.3163 7.70301C16.5398 7.67313 16.7633 7.6582 16.9868 7.62832L17.3146 7.59843H17.6424C18.0745 7.59843 18.4917 7.59843 18.894 7.65819C19.0384 7.68047 19.1912 7.69444 19.3398 7.70631C19.4398 7.71428 19.539 7.72969 19.6373 7.75013C19.7768 7.77916 19.9124 7.8042 20.0562 7.83748C20.7864 7.97194 21.442 8.19605 21.9933 8.42015C22.5446 8.64426 23.0214 8.8833 23.3939 9.09246C23.5876 9.19704 23.7366 9.30163 23.8856 9.39128C24.0197 9.48092 24.1389 9.55562 24.2283 9.64526C24.257 9.66924 24.2304 9.70972 24.1985 9.69008C24.0048 9.57055 23.7068 9.42115 23.3194 9.25681C22.932 9.07752 22.4552 8.89824 21.889 8.74884C21.6059 8.67414 21.3079 8.58449 20.9801 8.52473C20.6523 8.46497 20.3245 8.39027 19.9668 8.34544C19.7978 8.3172 19.6288 8.30231 19.4598 8.27554C19.4403 8.27243 19.4205 8.27075 19.4006 8.27075Z" fill="#F05075"/>
</svg>
