<svg width="14" height="14" viewBox="0 0 14 14" fill="none" xmlns="http://www.w3.org/2000/svg">
<path d="M6.27335 1.24584C6.66574 0.654433 7.53416 0.654432 7.92655 1.24584L9.63526 3.82117C9.76707 4.01983 9.96602 4.16438 10.1957 4.22835L13.173 5.05761C13.8567 5.24804 14.1251 6.07396 13.6839 6.6299L11.7626 9.05079C11.6144 9.23755 11.5384 9.47143 11.5485 9.70963L11.6799 12.7975C11.7101 13.5066 11.0075 14.017 10.3424 13.7692L7.44632 12.6901C7.22291 12.6068 6.97699 12.6068 6.75358 12.6901L3.85747 13.7692C3.1924 14.017 2.48983 13.5066 2.52 12.7975L2.65137 9.70963C2.6615 9.47143 2.58551 9.23755 2.4373 9.05079L0.516035 6.6299C0.0748288 6.07396 0.343185 5.24804 1.0269 5.05761L4.0042 4.22835C4.23388 4.16438 4.43283 4.01983 4.56464 3.82117L6.27335 1.24584Z" fill="#F05075"/>
</svg>
