<svg width="28" height="28" viewBox="0 0 28 28" fill="none" xmlns="http://www.w3.org/2000/svg">
<path d="M17.4367 20.0701C17.5423 20.1255 17.6208 20.1495 17.6736 20.1576C17.7263 20.1656 17.7452 20.1569 17.7474 20.156L17.7475 20.1559C17.7487 20.1553 17.7683 20.1474 17.7981 20.1004C17.8303 20.0497 17.8693 19.9606 17.8993 19.8155L17.8998 19.8133L20.1102 9.38495L20.1121 9.3758L20.1144 9.36673C20.166 9.16141 20.1742 9.0163 20.1645 8.92341C20.1595 8.87566 20.1507 8.84853 20.1449 8.83502C20.1414 8.83456 20.137 8.83412 20.1316 8.8338C20.0867 8.83117 19.9954 8.84084 19.8521 8.89953L19.8429 8.90331L19.8428 8.90322L6.86872 13.9147C6.76781 13.9554 6.68953 13.9948 6.63007 14.0303C6.64276 14.0347 6.65629 14.0391 6.67072 14.0435L6.67308 14.0443L9.92886 15.0605C10.1198 15.0848 10.2929 15.2161 10.3545 15.4197C10.3545 15.4197 10.3545 15.4197 10.3545 15.4197L11.5055 19.2197C11.5284 19.281 11.548 19.3176 11.5609 19.338L17.4367 20.0701ZM17.4367 20.0701L14.7444 18.0779C14.1554 17.6421 13.3377 17.6956 12.8105 18.2044L11.8343 19.1465C11.8343 19.1465 11.8343 19.1466 11.8342 19.1466C11.742 19.2355 11.7018 19.2739 11.6601 19.3023C11.6327 19.321 11.6095 19.3315 11.5695 19.337L17.4367 20.0701ZM6.4831 14.1458C6.48306 14.1458 6.48343 14.1451 6.48432 14.1439C6.48359 14.1451 6.48314 14.1458 6.4831 14.1458ZM14.0013 25.1667C20.1685 25.1667 25.168 20.1673 25.168 14.0001C25.168 7.8329 20.1685 2.83341 14.0013 2.83341C7.83412 2.83341 2.83464 7.8329 2.83464 14.0001C2.83464 20.1673 7.83412 25.1667 14.0013 25.1667ZM14.0013 26.8334C6.91365 26.8334 1.16797 21.0877 1.16797 14.0001C1.16797 6.91242 6.91365 1.16675 14.0013 1.16675C21.0889 1.16675 26.8347 6.91243 26.8347 14.0001C26.8347 21.0877 21.0889 26.8334 14.0013 26.8334Z" stroke="#F05075"/>
</svg>
