<svg width="25" height="28" viewBox="0 0 25 28" fill="none" xmlns="http://www.w3.org/2000/svg">
<path d="M12.1672 9.21869V1.16675H18.6339V2.00008C18.6339 4.87952 20.8394 7.16675 23.6673 7.16675H24.5007V13.6334H23.6673C22.0902 13.6334 20.6505 13.3194 19.3294 12.758L18.6339 12.4625V13.2182V18.2001C18.6339 22.9682 14.7685 26.8334 10.0005 26.8334C5.23246 26.8334 1.36719 22.9682 1.36719 18.2001C1.36719 13.432 5.23246 9.56675 10.0005 9.56675C10.5385 9.56675 11.0653 9.61606 11.5765 9.71039L12.1672 9.81941V9.21869ZM14.3339 2.83341H13.834L13.8339 3.33325C13.8328 6.63705 13.8332 9.94099 13.8335 13.2448C13.8337 14.8966 13.8339 16.5484 13.8339 18.2001C13.8339 20.3171 12.1176 22.0334 10.0005 22.0334C7.88344 22.0334 6.16719 20.3171 6.16719 18.2001C6.16719 16.083 7.88344 14.3667 10.0005 14.3667C10.1 14.3667 10.1986 14.3705 10.2959 14.378L10.834 14.419V13.8794V11.7418V11.2665L10.3593 11.2425C10.2404 11.2364 10.1208 11.2334 10.0005 11.2334C6.15294 11.2334 3.03385 14.3525 3.03385 18.2001C3.03385 22.0477 6.15294 25.1667 10.0005 25.1667C13.8481 25.1667 16.9672 22.0477 16.9672 18.2001V9.4208L18.2641 10.2889C18.2641 10.2889 18.2641 10.2889 18.2641 10.2889C19.4765 11.1005 20.7953 11.6508 22.2615 11.8657L22.834 11.9497V11.371V9.21221V8.79621L22.4249 8.72055C19.6616 8.20947 17.5666 6.01034 17.0763 3.24609L17.0031 2.83341H16.584H14.3339ZM10.0005 16.0334C8.80391 16.0334 7.83385 17.0034 7.83385 18.2001C7.83385 19.3968 8.80391 20.3667 10.0005 20.3667C11.197 20.3667 12.1672 19.3968 12.1672 18.2001C12.1672 17.0034 11.197 16.0334 10.0005 16.0334Z" stroke="#F05075"/>
</svg>
