<svg width="54" height="19" viewBox="0 0 54 19" fill="none" xmlns="http://www.w3.org/2000/svg">
<path fill-rule="evenodd" clip-rule="evenodd" d="M27.925 6.3499C27.9 8.7749 30.0875 10.1374 31.7375 10.9374C33.4375 11.7624 34.0125 12.2999 34 13.0374C33.9875 14.1749 32.65 14.6624 31.3875 14.6874C29.2 14.7249 27.925 14.0999 26.9125 13.6249L26.125 17.3249C27.1375 17.7874 29.025 18.1999 30.975 18.2249C35.5625 18.2249 38.55 15.9624 38.575 12.4499C38.5875 7.9999 32.4125 7.7499 32.4625 5.7624C32.475 5.1624 33.05 4.5124 34.3125 4.3499C34.9375 4.2624 36.6625 4.1999 38.6125 5.0999L39.375 1.5249C38.325 1.1374 36.975 0.774902 35.2875 0.774902C30.9875 0.774902 27.95 3.0749 27.925 6.3499ZM46.75 1.0874C45.9125 1.0874 45.2125 1.5749 44.8875 2.3249L38.3375 17.9499H42.9125L43.825 15.4374H49.425L49.95 17.9499H54L50.475 1.0874H46.75ZM47.3875 5.6499L48.7125 11.9874H45.0875L47.3875 5.6499ZM22.375 1.0874L18.7625 17.9499H23.125L26.7375 1.0874H22.375ZM15.925 1.0874L11.375 12.5749L9.5375 2.8124C9.325 1.7249 8.475 1.0874 7.525 1.0874H0.1L0 1.5749C1.525 1.8999 3.25 2.4374 4.3 3.0124C4.9375 3.3624 5.125 3.6624 5.3375 4.4999L8.8125 17.9624H13.425L20.5 1.0874H15.925Z" fill="white"/>
</svg>
