<svg width="41" height="15" viewBox="0 0 41 15" fill="none" xmlns="http://www.w3.org/2000/svg">
<path fill-rule="evenodd" clip-rule="evenodd" d="M21.1625 5.13755C21.1437 6.9563 22.7844 7.97817 24.0219 8.57817C25.2969 9.19692 25.7281 9.60005 25.7188 10.1532C25.7094 11.0063 24.7063 11.3719 23.7594 11.3907C22.1188 11.4188 21.1625 10.95 20.4031 10.5938L19.8125 13.3688C20.5719 13.7157 21.9875 14.025 23.45 14.0438C26.8906 14.0438 29.1313 12.3469 29.15 9.71255C29.1594 6.37505 24.5281 6.18755 24.5656 4.69692C24.575 4.24692 25.0063 3.75942 25.9531 3.63755C26.4219 3.57192 27.7156 3.52505 29.1781 4.20005L29.75 1.5188C28.9625 1.22817 27.95 0.956299 26.6844 0.956299C23.4594 0.956299 21.1812 2.6813 21.1625 5.13755ZM35.2812 1.19067C34.6531 1.19067 34.1281 1.5563 33.8844 2.1188L28.9719 13.8375H32.4031L33.0875 11.9532H37.2875L37.6813 13.8375H40.7188L38.075 1.19067H35.2812ZM35.7594 4.61255L36.7531 9.36567H34.0344L35.7594 4.61255ZM17 1.19067L14.2906 13.8375H17.5625L20.2719 1.19067H17ZM12.1625 1.19067L8.75 9.8063L7.37188 2.48442C7.2125 1.6688 6.575 1.19067 5.8625 1.19067H0.29375L0.21875 1.5563C1.3625 1.80005 2.65625 2.20317 3.44375 2.63442C3.92188 2.89692 4.0625 3.12192 4.22187 3.75005L6.82812 13.8469H10.2875L15.5938 1.19067H12.1625Z" fill="#1A1F71"/>
</svg>
