<svg width="519" height="475" viewBox="0 0 519 475" fill="none" xmlns="http://www.w3.org/2000/svg">
<path d="M482.697 22.6987L378.327 71.3906L377.634 70.1389L474.288 7.52594L482.697 22.6987Z" fill="#252F6C"/>
<path d="M441.917 12.7097L374.704 64.2433L373.732 63.196L430.108 0.000305176L441.917 12.7097Z" fill="#252F6C"/>
<path d="M18.6883 437.452L112.327 370.416L111.577 369.198L9.58301 422.684L18.6883 437.452Z" fill="#252F6C"/>
<path d="M29.9802 397.029L107.873 363.758L107.437 362.396L24.6904 380.509L29.9802 397.029Z" fill="#252F6C"/>
<path d="M508.732 238.956L464.299 269.316L498.885 338.134L422.655 323.195L420.416 400.69L356.153 356.826L327.402 459.048L279.942 367.878L232.049 429.212L203.733 356.826L139.469 400.69L137.23 323.195L35.4755 351.592L95.5856 269.314L25.1372 238.096L95.5856 206.877L17.7393 108.843L137.23 152.998L139.47 75.503L203.733 119.367L227.256 18.8639L279.942 108.315L327.836 46.9791L356.152 119.367L430.371 89.424L422.657 152.998L498.887 138.058L464.299 206.879L508.732 238.956Z" fill="#F05075"/>
<path d="M468.297 238.956L431.183 264.316L460.072 321.799L396.399 309.32L394.527 374.051L340.848 337.411L316.832 422.798L277.191 346.643L237.186 397.877L213.535 337.413L159.855 374.051L157.983 309.32L72.9896 333.04L123.199 264.314L64.3538 238.238L123.199 212.16L58.1744 130.274L157.985 167.155L159.855 102.424L213.534 139.064L233.182 55.1146L277.191 129.832L317.196 78.6L340.848 139.064L402.843 114.053L396.399 167.155L460.074 154.678L431.184 212.161L468.297 238.956Z" fill="#F05075"/>
<path d="M519 239.09L467.631 274.188L469.575 266.667L500.765 337.191L502.345 340.764L498.48 340.2L421.52 328.987L428.559 323.366L426.318 400.861L426.006 411.653L417.086 405.564L352.824 361.7L361.838 358.424L333.086 460.646L329.048 475L322.163 461.774L274.706 370.603L284.598 371.51L235.825 432.158L230.687 438.547L227.591 430.956L198.236 358.976L207.065 361.701L142.801 405.566L133.881 411.654L133.569 400.862L131.328 323.367L138.819 328.881L37.7038 359.559L13.2626 366.974L28.7965 346.717L90.8199 265.836L93.1949 274.712L22.7465 243.493L10.5699 238.097L22.7449 232.701L93.1933 201.481L90.9622 210.546L13.1157 112.512L0 95.9951L19.7885 103.307L139.279 147.462L131.33 152.827L133.571 75.3322L133.882 64.5401L142.802 70.629L207.065 114.493L197.985 118.023L223.672 18.0274L225.843 9.57892L230.43 16.9992L285.033 105.322L275.29 104.685L323.184 43.3504L329.563 35.1813L333.338 44.8319L361.654 117.218L353.945 113.895L428.164 83.9514L437.44 80.2093L436.236 90.1361L428.522 153.71L421.525 147.208L498.36 135.359L503.49 134.567L501.352 139.296L469.58 209.529L467.76 202.096L519 239.09ZM498.462 238.824L460.842 211.663L456.598 208.6L459.022 204.23L496.424 136.824L499.416 140.761L423.793 158.79L415.773 160.701L416.794 152.286L424.508 88.7121L432.58 94.8951L358.361 124.838L352.825 127.072L350.651 121.514L322.336 49.1279L332.489 50.6094L284.595 111.944L279.131 118.941L274.853 111.307L224.081 20.7286L230.838 19.7004L209.48 120.708L207.683 129.208L200.402 124.238L136.139 80.3738L145.37 75.6706L143.13 153.166L142.892 161.381L135.179 158.531L15.6887 114.377L22.3616 105.172L100.208 203.205L104.952 209.179L97.9768 212.27L27.5283 243.49V232.7L97.9768 263.918L104.512 266.814L100.353 272.795L42.1566 356.468L33.2509 343.626L135.641 317.51L142.917 315.653L143.13 323.024L145.37 400.519L136.139 395.816L200.403 351.952L206.621 347.708L209.232 354.677L236.508 427.47L228.275 426.268L275.289 364.248L280.874 356.88L285.181 365.156L332.639 456.326L321.716 457.454L350.468 355.231L352.693 347.32L359.482 351.955L423.745 395.819L414.513 400.522L416.754 323.027L416.965 315.719L423.793 317.406L499.291 336.073L497.006 339.083L459.024 271.969L456.496 267.502L460.968 264.447L498.462 238.824Z" fill="#252F6C"/>
<path d="M182.884 165.192H182.616L182.584 165.492H182.316L182.285 165.791H182.015L181.985 166.091H181.717L181.685 166.391H181.416L181.386 166.689H181.118L181.086 166.99H180.818L180.786 167.288H180.517L180.487 167.588H180.219L180.187 167.888H179.918L179.888 168.187H179.62L179.588 168.487H179.319L179.287 168.787H179.019L178.989 169.086H178.721L178.689 169.386H178.42L178.388 169.684H178.12L178.09 169.984H177.821L177.789 170.285H177.521L177.491 170.583H177.222L177.19 170.883H176.922L176.89 171.182H176.622L175.464 182.271L173.049 164.892H147.754L147.714 165.192H147.453L147.413 165.492H147.153L147.115 165.791H146.854L146.814 166.091H146.554L146.514 166.391H146.255L146.215 166.689H145.955L145.915 166.99H145.655L145.617 167.288H145.356L145.316 167.588H145.056L145.016 167.888H144.757L144.717 168.187H144.457L144.417 168.487H144.157L144.118 168.787H143.858L143.818 169.086H143.558L143.518 169.386H143.258L143.219 169.684H142.959L142.919 169.984H142.659L142.619 170.285H142.358L142.32 170.583H142.06L142.02 170.883H141.759L141.719 171.182H141.461L140.162 181.019L138.522 164.892H106.913L106.948 165.192H106.613L106.649 165.492H106.312L106.349 165.791H106.014L106.05 166.091H105.713L105.75 166.391H105.415L105.45 166.689H105.115L105.151 166.99H104.814L104.851 167.288H104.516L104.551 167.588H104.215L104.252 167.888H103.917L103.952 168.187H103.616L103.652 168.487H103.316L103.353 168.787H103.017L103.053 169.086H102.717L102.754 169.386H102.417L102.454 169.684H102.118L102.153 169.984H101.818L101.855 170.285H101.518L101.554 170.583H101.219L101.256 170.883H100.919L100.956 171.182H100.62L116.478 302.597H147.763L147.805 302.299H148.063L148.105 301.999H148.364L148.404 301.698H148.662L148.704 301.4H148.962L149.004 301.1H149.263L149.303 300.801H149.561L149.603 300.501H149.862L149.902 300.201H150.16L150.202 299.902H150.461L150.502 299.602H150.761L150.801 299.304H151.06L151.101 299.004H151.36L151.4 298.704H151.66L151.7 298.405H151.959L152 298.105H152.259L152.299 297.805H152.559L152.599 297.506H152.858L152.899 297.206H153.158L153.198 296.907H153.457L153.498 296.607H153.757L153.799 296.307H154.057L157.038 274.394L161.016 302.597H191.988L192.025 302.299H192.288L192.325 301.999H192.588L192.624 301.698H192.887L192.924 301.4H193.187L193.224 301.1H193.486L193.523 300.801H193.786L193.823 300.501H194.087L194.122 300.201H194.385L194.422 299.902H194.686L194.722 299.602H194.984L195.021 299.304H195.284L195.321 299.004H195.585L195.62 298.704H195.883L195.92 298.405H196.184L196.22 298.105H196.484L196.519 297.805H196.783L196.819 297.506H197.083L197.12 297.206H197.382L197.418 296.907H197.682L197.719 296.607H197.982L198.017 296.307H198.281L214.219 164.892H182.915L182.884 165.192Z" fill="#252F6C"/>
<path d="M167.425 296.307L160.679 248.481L154.172 296.307H122.887L107.029 164.892H138.638L142.658 204.398L147.87 164.892H173.165L178.799 205.431L183.031 164.892H214.335L198.397 296.307H167.425Z" fill="#252F6C"/>
<path d="M126.606 292.113L111.759 169.086H134.845L142.12 240.543L151.548 169.086H169.513L179.386 240.171L186.81 169.086H209.6L194.679 292.113H171.072L160.604 217.912L150.509 292.113H126.606Z" fill="#60CBE8"/>
<path d="M388.307 168.337H388.039L388.007 168.637H387.739L387.707 168.936H387.44L387.408 169.236H387.14L387.108 169.536H386.839L386.809 169.834H386.539L386.509 170.135H386.241L386.209 170.433H385.94L385.91 170.733H385.642L385.61 171.033H385.341L385.311 171.332H385.041L385.011 171.632H384.742L384.71 171.932H384.442L384.412 172.231H384.144L384.112 172.531H383.843L383.813 172.829H383.543L383.513 173.13H383.244L383.212 173.43H382.944L382.912 173.728H382.644L382.613 174.028H382.345L382.313 174.327H382.045L380.888 185.406L378.475 168.037H353.178L353.14 168.337H352.879L352.839 168.637H352.579L352.539 168.936H352.279L352.24 169.236H351.98L351.94 169.536H351.68L351.642 169.834H351.381L351.341 170.135H351.081L351.041 170.433H350.781L350.742 170.733H350.482L350.442 171.033H350.182L350.142 171.332H349.882L349.843 171.632H349.583L349.543 171.932H349.283L349.243 172.231H348.984L348.944 172.531H348.684L348.644 172.829H348.383L348.345 173.13H348.085L348.045 173.43H347.785L347.745 173.728H347.486L347.446 174.028H347.186L347.146 174.327H346.885L345.588 184.164L343.947 168.037H312.337L312.374 168.337H312.039L312.074 168.637H311.739L311.775 168.936H311.438L311.475 169.236H311.14L311.176 169.536H310.839L310.876 169.834H310.541L310.576 170.135H310.24L310.277 170.433H309.94L309.977 170.733H309.641L309.677 171.033H309.341L309.378 171.332H309.043L309.078 171.632H308.742L308.779 171.932H308.442L308.479 172.231H308.143L308.178 172.531H307.843L307.88 172.829H307.543L307.58 173.13H307.244L307.279 173.43H306.944L306.981 173.728H306.645L306.68 174.028H306.345L306.382 174.327H306.045L321.903 305.742H353.189L353.231 305.444H353.489L353.529 305.144H353.788L353.83 304.844H354.088L354.128 304.545H354.389L354.429 304.245H354.687L354.729 303.946H354.988L355.028 303.646H355.286L355.328 303.346H355.587L355.628 303.048H355.887L355.927 302.747H356.185L356.227 302.449H356.486L356.527 302.149H356.786L356.826 301.849H357.085L357.126 301.55H357.385L357.425 301.25H357.684L357.725 300.95H357.984L358.025 300.651H358.284L358.324 300.351H358.583L358.624 300.053H358.883L358.923 299.752H359.183L359.223 299.452H359.482L362.464 277.539L366.441 305.742H397.414L397.451 305.444H397.713L397.75 305.144H398.013L398.05 304.844H398.313L398.348 304.545H398.612L398.649 304.245H398.912L398.949 303.946H399.213L399.248 303.646H399.511L399.548 303.346H399.812L399.848 303.048H400.11L400.147 302.747H400.41L400.447 302.449H400.711L400.747 302.149H401.009L401.046 301.849H401.31L401.346 301.55H401.61L401.645 301.25H401.909L401.945 300.95H402.209L402.246 300.651H402.507L402.544 300.351H402.808L402.844 300.053H403.108L403.145 299.752H403.407L403.443 299.452H403.707L419.643 168.037H388.338L388.307 168.337Z" fill="#252F6C"/>
<path d="M372.85 299.452L366.105 251.626L359.598 299.452H328.312L312.454 168.037H344.063L348.083 207.543L353.295 168.037H378.592L384.223 208.569L388.454 168.037H419.76L403.823 299.452H372.85Z" fill="#252F6C"/>
<path d="M332.032 295.258L317.185 172.231H340.271L347.546 243.688L356.974 172.231H374.939L384.813 243.316L392.236 172.231H415.026L400.105 295.258H376.498L366.03 221.057L355.935 295.258H332.032Z" fill="#60CBE8"/>
<path d="M267.404 132.847C257.979 132.847 249.746 134.121 242.939 136.634C237.441 138.663 232.761 141.551 228.936 145.208C228.802 145.333 228.681 145.468 228.55 145.596C228.416 145.721 228.294 145.856 228.163 145.983C228.029 146.107 227.909 146.243 227.777 146.369C227.643 146.493 227.521 146.631 227.389 146.757C227.255 146.881 227.135 147.017 227.004 147.143C226.87 147.268 226.748 147.405 226.614 147.531C226.48 147.656 226.36 147.791 226.228 147.917C226.093 148.042 225.972 148.178 225.841 148.304C225.707 148.428 225.585 148.564 225.455 148.69C225.32 148.815 225.201 148.95 225.068 149.076C224.934 149.201 224.812 149.338 224.68 149.464C224.546 149.589 224.426 149.725 224.295 149.851C224.161 149.975 224.039 150.113 223.907 150.239C223.773 150.363 223.653 150.499 223.52 150.625C223.386 150.75 223.265 150.885 223.134 151.011C223 151.136 222.878 151.272 222.747 151.398C222.613 151.522 222.493 151.658 222.361 151.784C222.227 151.909 222.105 152.046 221.971 152.172C221.837 152.297 221.717 152.432 221.586 152.558C221.452 152.683 221.331 152.82 221.198 152.946C219.9 154.15 218.692 155.435 217.59 156.814C213.455 161.99 210.433 168.133 208.621 175.075C206.881 181.724 206 189.65 206 198.638V257.31C206 266.231 206.881 274.14 208.617 280.821C210.432 287.788 213.449 293.96 217.581 299.167C221.861 304.562 227.652 308.652 234.79 311.324C241.606 313.874 249.843 315.167 259.279 315.167C275.95 315.167 288.698 311.12 297.296 303.165C297.431 303.043 297.548 302.903 297.681 302.78C297.818 302.657 297.935 302.517 298.069 302.392C298.205 302.271 298.321 302.13 298.454 302.007C298.591 301.884 298.708 301.744 298.842 301.619C298.978 301.497 299.094 301.356 299.228 301.233C299.364 301.11 299.481 300.97 299.615 300.847C299.752 300.724 299.869 300.583 300.003 300.459C300.139 300.337 300.255 300.197 300.388 300.074C300.525 299.951 300.642 299.811 300.776 299.686C300.912 299.565 301.028 299.424 301.161 299.301C301.298 299.178 301.415 299.038 301.549 298.913C301.685 298.791 301.801 298.65 301.935 298.527C302.071 298.404 302.188 298.264 302.322 298.141C302.459 298.018 302.576 297.877 302.71 297.753C302.846 297.632 302.962 297.491 303.095 297.368C303.232 297.245 303.349 297.105 303.483 296.98C303.619 296.859 303.735 296.718 303.868 296.595C304.004 296.472 304.122 296.332 304.256 296.207C304.392 296.085 304.508 295.944 304.643 295.821C304.778 295.698 304.895 295.558 305.029 295.435C306.276 294.316 307.441 293.122 308.517 291.843C316.778 282.026 320.967 267.677 320.967 249.193V190.522C320.967 172.029 316.775 157.707 308.508 147.953C300.019 137.925 286.186 132.847 267.404 132.847ZM264.446 270.819C263.69 270.433 263.115 270 262.783 269.569C262.575 269.298 262.176 268.629 261.826 267.217C261.459 265.707 261.234 264.342 261.156 263.172C261.068 261.764 261.025 260.008 261.025 257.907V181.692C261.025 179.741 261.063 178.135 261.141 176.82C261.606 176.914 262.034 177.035 262.393 177.208C263.134 177.562 263.685 177.958 263.978 178.339C264.252 178.7 264.658 179.414 265.022 180.747C265.413 182.174 265.661 183.52 265.76 184.743C265.877 186.186 265.933 187.877 265.933 189.818V266.033C265.933 268.036 265.877 269.759 265.76 271.204C265.759 271.215 265.757 271.226 265.755 271.237C265.254 271.145 264.815 271.006 264.446 270.819Z" fill="#252F6C"/>
<path d="M267.553 307.04C258.117 307.04 249.881 305.747 243.064 303.198C235.925 300.525 230.135 296.437 225.855 291.041C221.723 285.833 218.706 279.66 216.892 272.694C215.156 266.013 214.274 258.104 214.274 249.183V190.512C214.274 181.524 215.156 173.597 216.897 166.948C218.711 160.007 221.731 153.864 225.866 148.688C230.146 143.327 235.944 139.27 243.09 136.631C249.897 134.119 258.13 132.845 267.555 132.845C286.339 132.845 300.172 137.925 308.66 147.941C316.929 157.695 321.12 172.017 321.12 190.51V249.182C321.12 267.665 316.932 282.014 308.67 291.831C300.18 301.924 286.344 307.04 267.553 307.04ZM267.553 168.511C266.287 168.511 265.263 168.696 264.515 169.062C263.768 169.429 263.206 169.835 262.89 170.237C262.735 170.435 262.332 171.049 261.976 172.489C261.612 173.99 261.387 175.342 261.308 176.497C261.217 177.86 261.177 179.597 261.177 181.693V257.908C261.177 260.009 261.219 261.765 261.308 263.173C261.387 264.343 261.612 265.71 261.979 267.218C262.329 268.63 262.727 269.297 262.936 269.57C263.268 270.003 263.843 270.434 264.599 270.82C265.325 271.19 266.32 271.377 267.556 271.377C268.841 271.377 269.888 271.186 270.679 270.807C271.394 270.464 271.928 270.073 272.22 269.678C272.506 269.295 272.929 268.539 273.3 267.148C273.694 265.681 273.945 264.313 274.044 263.079C274.161 261.634 274.216 259.911 274.216 257.908V181.693C274.216 179.752 274.161 178.059 274.044 176.618C273.945 175.393 273.699 174.048 273.306 172.622C272.942 171.289 272.536 170.577 272.262 170.215C271.969 169.831 271.418 169.437 270.677 169.083C269.885 168.704 268.837 168.511 267.553 168.511Z" fill="#252F6C"/>
<path d="M267.552 301.624C258.728 301.624 251.199 300.457 244.965 298.124C238.732 295.792 233.776 292.308 230.099 287.674C226.422 283.041 223.77 277.592 222.139 271.328C220.508 265.065 219.694 257.683 219.694 249.182V190.51C219.694 181.945 220.508 174.549 222.139 168.316C223.77 162.085 226.422 156.669 230.099 152.068C233.776 147.465 238.73 144.015 244.965 141.713C251.199 139.412 258.728 138.261 267.552 138.261C284.752 138.261 297.077 142.655 304.524 151.443C311.973 160.232 315.698 173.254 315.698 190.51V249.182C315.698 266.438 311.973 279.492 304.524 288.344C297.077 297.197 284.752 301.624 267.552 301.624ZM262.133 275.643C263.636 276.409 265.442 276.794 267.552 276.794C269.662 276.794 271.484 276.427 273.019 275.691C274.554 274.956 275.736 274.029 276.568 272.911C277.398 271.792 278.055 270.339 278.534 268.55C279.013 266.76 279.317 265.082 279.444 263.516C279.572 261.95 279.636 260.081 279.636 257.908V181.693C279.636 179.584 279.572 177.747 279.444 176.18C279.317 174.614 279.013 172.952 278.534 171.195C278.055 169.437 277.398 168.015 276.568 166.929C275.736 165.842 274.554 164.932 273.019 164.197C271.484 163.463 269.662 163.094 267.552 163.094C265.442 163.094 263.636 163.461 262.133 164.197C260.63 164.932 259.463 165.827 258.632 166.881C257.801 167.935 257.161 169.373 256.714 171.195C256.267 173.016 255.995 174.662 255.899 176.133C255.803 177.603 255.755 179.456 255.755 181.693V257.908C255.755 260.144 255.803 262.014 255.899 263.516C255.995 265.018 256.267 266.68 256.714 268.502C257.161 270.323 257.801 271.778 258.632 272.863C259.464 273.949 260.632 274.875 262.133 275.643Z" fill="#60CBE8"/>
<path d="M467.789 138.282L424.892 130.91L424.855 131.294L424.446 131.224L424.409 131.61L424 131.54L423.964 131.925L423.555 131.855L423.518 132.239L423.109 132.169L423.072 132.554L422.664 132.484L422.627 132.868L422.218 132.798L422.181 133.183L421.772 133.113L421.736 133.499L421.327 133.427L421.29 133.814L420.88 133.743L420.844 134.128L420.435 134.058L420.399 134.443L419.99 134.372L419.953 134.757L419.543 134.687L419.508 135.072L419.097 135.001L419.062 135.388L418.651 135.316L418.616 135.702L418.206 135.632L418.171 136.017L417.76 135.946L417.725 136.331L417.315 136.261L417.28 136.646L416.869 136.575L416.834 136.96L416.424 136.89L416.388 137.275L415.978 137.204L415.943 137.591L415.532 137.521L404.387 257.584L403.006 257.346L402.94 257.726L402.56 257.66L402.495 258.04L402.115 257.976L402.049 258.355L401.669 258.291L401.604 258.671L401.223 258.605L401.158 258.985L400.778 258.92L400.712 259.3L400.332 259.234L400.267 259.614L399.887 259.549L399.821 259.929L399.441 259.863L399.376 260.245L398.995 260.179L398.93 260.559L398.55 260.494L398.484 260.874L398.104 260.808L398.039 261.188L397.659 261.123L397.593 261.503L397.213 261.437L397.148 261.817L396.767 261.752L396.702 262.132L396.322 262.066L396.256 262.448L395.876 262.383L395.811 262.763L395.431 262.697L395.365 263.077L394.985 263.012L394.919 263.392L394.539 263.326L394.474 263.706L394.094 263.641L394.028 264.021L393.648 263.955L386.781 303.884L427.104 310.813L427.169 310.433L427.549 310.498L427.613 310.118L427.995 310.184L428.06 309.802L428.44 309.869L428.506 309.488L428.886 309.553L428.952 309.173L429.332 309.239L429.397 308.859L429.777 308.924L429.843 308.544L430.223 308.61L430.288 308.23L430.668 308.295L430.734 307.915L431.114 307.981L431.179 307.599L431.56 307.664L431.625 307.284L432.005 307.35L432.071 306.97L432.451 307.035L432.516 306.656L432.896 306.721L432.962 306.341L433.342 306.406L433.408 306.026L433.788 306.092L433.853 305.712L434.233 305.776L434.299 305.396L434.679 305.461L434.744 305.081L435.124 305.147L435.19 304.767L435.57 304.832L435.636 304.452L436.016 304.518L436.081 304.138L436.461 304.203L443.329 264.274L433.724 262.625L467.789 138.282Z" fill="#252F6C"/>
<path d="M396.287 297.299L403.154 257.371L413.143 259.087L425.038 130.935L467.938 138.308L433.872 262.651L443.476 264.3L436.61 304.229L396.287 297.299Z" fill="#252F6C"/>
<path d="M402.526 292.893L407.564 263.609L437.237 268.708L432.2 297.992L402.526 292.893ZM418.953 254.902L429.878 137.246L461.153 142.621L429.879 256.781L418.953 254.902Z" fill="#60CBE8"/>
</svg>
